<svg width="84" height="15" viewBox="0 0 84 15" fill="none" xmlns="http://www.w3.org/2000/svg">
<path d="M6.96412 1.46556C7.35076 0.808182 8.30142 0.808181 8.68805 1.46556L10.0812 3.83434C10.2268 4.08174 10.4716 4.2547 10.7534 4.30919L13.4659 4.83369C14.2437 4.98409 14.5461 5.93609 13.9977 6.50777L12.1732 8.40974C11.9657 8.62607 11.8661 8.9241 11.902 9.22173L12.2164 11.8285C12.3091 12.5971 11.5309 13.175 10.8219 12.864L8.22776 11.7262C7.97175 11.6139 7.68042 11.6139 7.42442 11.7262L4.83024 12.864C4.12129 13.175 3.34308 12.5971 3.43576 11.8285L3.75013 9.22173C3.78603 8.9241 3.6865 8.62607 3.47897 8.40974L1.65446 6.50777C1.10606 5.93609 1.40848 4.98409 2.18626 4.8337L4.89881 4.30919C5.18061 4.2547 5.42542 4.08175 5.57093 3.83434L6.96412 1.46556Z" fill="#0E80A4"/>
<path d="M24.0475 1.46556C24.4341 0.808182 25.3848 0.808181 25.7714 1.46556L27.1646 3.83434C27.3101 4.08174 27.5549 4.2547 27.8367 4.30919L30.5493 4.83369C31.3271 4.98409 31.6295 5.93609 31.0811 6.50777L29.2566 8.40974C29.049 8.62607 28.9495 8.9241 28.9854 9.22173L29.2998 11.8285C29.3925 12.5971 28.6143 13.175 27.9053 12.864L25.3111 11.7262C25.0551 11.6139 24.7638 11.6139 24.5078 11.7262L21.9136 12.864C21.2047 13.175 20.4264 12.5971 20.5191 11.8285L20.8335 9.22173C20.8694 8.9241 20.7699 8.62607 20.5623 8.40974L18.7378 6.50777C18.1894 5.93609 18.4919 4.98409 19.2696 4.8337L21.9822 4.30919C22.264 4.2547 22.5088 4.08175 22.6543 3.83434L24.0475 1.46556Z" fill="#0E80A4"/>
<path d="M41.1307 1.46556C41.5174 0.808182 42.468 0.808181 42.8547 1.46556L44.2479 3.83434C44.3934 4.08174 44.6382 4.2547 44.92 4.30919L47.6325 4.83369C48.4103 4.98409 48.7127 5.93609 48.1643 6.50777L46.3398 8.40974C46.1323 8.62607 46.0328 8.9241 46.0687 9.22173L46.383 11.8285C46.4757 12.5971 45.6975 13.175 44.9886 12.864L42.3944 11.7262C42.1384 11.6139 41.8471 11.6139 41.591 11.7262L38.9969 12.864C38.2879 13.175 37.5097 12.5971 37.6024 11.8285L37.9168 9.22173C37.9527 8.9241 37.8531 8.62607 37.6456 8.40974L35.8211 6.50777C35.2727 5.93609 35.5751 4.98409 36.3529 4.8337L39.0654 4.30919C39.3472 4.2547 39.592 4.08175 39.7376 3.83434L41.1307 1.46556Z" fill="#0E80A4"/>
<path d="M58.2141 1.46556C58.6008 0.808182 59.5514 0.808181 59.9381 1.46556L61.3312 3.83434C61.4768 4.08174 61.7216 4.2547 62.0034 4.30919L64.7159 4.83369C65.4937 4.98409 65.7961 5.93609 65.2477 6.50777L63.4232 8.40974C63.2157 8.62607 63.1161 8.9241 63.152 9.22173L63.4664 11.8285C63.5591 12.5971 62.7809 13.175 62.0719 12.864L59.4778 11.7262C59.2217 11.6139 58.9304 11.6139 58.6744 11.7262L56.0802 12.864C55.3713 13.175 54.5931 12.5971 54.6858 11.8285L55.0001 9.22173C55.036 8.9241 54.9365 8.62607 54.729 8.40974L52.9045 6.50777C52.3561 5.93609 52.6585 4.98409 53.4363 4.8337L56.1488 4.30919C56.4306 4.2547 56.6754 4.08175 56.8209 3.83434L58.2141 1.46556Z" fill="#0E80A4"/>
<path d="M75.2975 1.46556C75.6841 0.808182 76.6348 0.808181 77.0214 1.46556L78.4146 3.83434C78.5601 4.08174 78.8049 4.2547 79.0867 4.30919L81.7993 4.83369C82.5771 4.98409 82.8795 5.93609 82.3311 6.50777L80.5066 8.40974C80.299 8.62607 80.1995 8.9241 80.2354 9.22173L80.5498 11.8285C80.6425 12.5971 79.8643 13.175 79.1553 12.864L76.5611 11.7262C76.3051 11.6139 76.0138 11.6139 75.7578 11.7262L73.1636 12.864C72.4547 13.175 71.6764 12.5971 71.7691 11.8285L72.0835 9.22173C72.1194 8.9241 72.0199 8.62607 71.8123 8.40974L69.9878 6.50777C69.4394 5.93609 69.7419 4.98409 70.5196 4.8337L73.2322 4.30919C73.514 4.2547 73.7588 4.08175 73.9043 3.83434L75.2975 1.46556Z" fill="#C4C4C4"/>
</svg>
