<svg width="25" height="20" viewBox="0 0 25 20" fill="none" xmlns="http://www.w3.org/2000/svg">
<path d="M4.71298 3.2L4.37686 1.2H3.17037C2.9904 0.512 2.36416 0 1.61404 0C0.723895 0 0 0.7176 0 1.6C0 2.4824 0.723895 3.2 1.61404 3.2C2.36416 3.2 2.9904 2.688 3.17077 2H3.69291L3.89467 3.2H3.87933L5.96588 13.6064C4.97123 13.6816 4.14282 14.4408 4.04518 15.396C3.98788 15.958 4.1743 16.5208 4.55682 16.9392C4.93975 17.3588 5.4853 17.6 6.05263 17.6H6.85965C6.85965 18.9236 7.94549 20 9.2807 20C10.6159 20 11.7018 18.9236 11.7018 17.6H16.1404C16.1404 18.9236 17.2262 20 18.5614 20C19.8966 20 20.9825 18.9236 20.9825 17.6H22.5965C22.8196 17.6 23 17.4212 23 17.2C23 16.9788 22.8196 16.8 22.5965 16.8H20.8412C20.5079 15.8692 19.6134 15.2 18.5614 15.2C17.5095 15.2 16.6149 15.8692 16.2816 16.8H11.5605C11.2272 15.8692 10.3326 15.2 9.2807 15.2C8.22875 15.2 7.33418 15.8692 7.00088 16.8H6.05263C5.71288 16.8 5.38603 16.6552 5.15523 16.4028C4.9224 16.1472 4.81305 15.8184 4.84816 15.4764C4.90949 14.8728 5.47198 14.4004 6.12849 14.4004H6.44767C6.45332 14.4004 6.45775 14.4004 6.4634 14.4004H22.1978C23.3079 14.4 24.2105 13.5052 24.2105 12.4052V3.2H4.71298ZM1.61404 2.4C1.16896 2.4 0.807018 2.0412 0.807018 1.6C0.807018 1.1588 1.16896 0.8 1.61404 0.8C2.05911 0.8 2.42105 1.1588 2.42105 1.6C2.42105 2.0412 2.05911 2.4 1.61404 2.4ZM18.5614 16C19.4515 16 20.1754 16.7176 20.1754 17.6C20.1754 18.4824 19.4515 19.2 18.5614 19.2C17.6713 19.2 16.9474 18.4824 16.9474 17.6C16.9474 16.7176 17.6713 16 18.5614 16ZM9.2807 16C10.1708 16 10.8947 16.7176 10.8947 17.6C10.8947 18.4824 10.1708 19.2 9.2807 19.2C8.39056 19.2 7.66667 18.4824 7.66667 17.6C7.66667 16.7176 8.39056 16 9.2807 16ZM23.4035 12.4052C23.4035 13.064 22.8628 13.6 22.1982 13.6H6.78742L4.86268 4H23.4035V12.4052Z" fill="#0E80A4"/>
</svg>
