<svg width="17" height="17" viewBox="0 0 17 17" fill="none" xmlns="http://www.w3.org/2000/svg">
<path d="M15.2291 2.8335H13.6943V3.77794H15.111V14.1668H1.88878V3.77794H3.30545V2.8335H1.77072C1.66034 2.83534 1.55139 2.85891 1.45012 2.90287C1.34884 2.94682 1.25722 3.0103 1.18048 3.08967C1.10374 3.16904 1.04338 3.26276 1.00287 3.36546C0.962348 3.46816 0.942459 3.57783 0.944335 3.68822V14.2566C0.942459 14.3669 0.962348 14.4766 1.00287 14.5793C1.04338 14.682 1.10374 14.7757 1.18048 14.8551C1.25722 14.9345 1.34884 14.9979 1.45012 15.0419C1.55139 15.0859 1.66034 15.1094 1.77072 15.1113H15.2291C15.3394 15.1094 15.4484 15.0859 15.5497 15.0419C15.6509 14.9979 15.7426 14.9345 15.8193 14.8551C15.896 14.7757 15.9564 14.682 15.9969 14.5793C16.0374 14.4766 16.0573 14.3669 16.0554 14.2566V3.68822C16.0573 3.57783 16.0374 3.46816 15.9969 3.36546C15.9564 3.26276 15.896 3.16904 15.8193 3.08967C15.7426 3.0103 15.6509 2.94682 15.5497 2.90287C15.4484 2.85891 15.3394 2.83534 15.2291 2.8335Z" fill="#858B8C"/>
<path d="M3.77783 6.61133H4.72228V7.55577H3.77783V6.61133Z" fill="#858B8C"/>
<path d="M6.61108 6.61133H7.55553V7.55577H6.61108V6.61133Z" fill="#858B8C"/>
<path d="M9.44446 6.61133H10.3889V7.55577H9.44446V6.61133Z" fill="#858B8C"/>
<path d="M12.2778 6.61133H13.2223V7.55577H12.2778V6.61133Z" fill="#858B8C"/>
<path d="M3.77783 8.97217H4.72228V9.91661H3.77783V8.97217Z" fill="#858B8C"/>
<path d="M6.61108 8.97217H7.55553V9.91661H6.61108V8.97217Z" fill="#858B8C"/>
<path d="M9.44446 8.97217H10.3889V9.91661H9.44446V8.97217Z" fill="#858B8C"/>
<path d="M12.2778 8.97217H13.2223V9.91661H12.2778V8.97217Z" fill="#858B8C"/>
<path d="M3.77783 11.3335H4.72228V12.2779H3.77783V11.3335Z" fill="#858B8C"/>
<path d="M6.61108 11.3335H7.55553V12.2779H6.61108V11.3335Z" fill="#858B8C"/>
<path d="M9.44446 11.3335H10.3889V12.2779H9.44446V11.3335Z" fill="#858B8C"/>
<path d="M12.2778 11.3335H13.2223V12.2779H12.2778V11.3335Z" fill="#858B8C"/>
<path d="M4.72222 4.72211C4.84746 4.72211 4.96757 4.67236 5.05613 4.5838C5.14469 4.49524 5.19444 4.37513 5.19444 4.24989V1.41656C5.19444 1.29132 5.14469 1.17121 5.05613 1.08265C4.96757 0.994088 4.84746 0.944336 4.72222 0.944336C4.59698 0.944336 4.47687 0.994088 4.38831 1.08265C4.29975 1.17121 4.25 1.29132 4.25 1.41656V4.24989C4.25 4.37513 4.29975 4.49524 4.38831 4.5838C4.47687 4.67236 4.59698 4.72211 4.72222 4.72211Z" fill="#858B8C"/>
<path d="M12.2778 4.72211C12.403 4.72211 12.5231 4.67236 12.6117 4.5838C12.7002 4.49524 12.75 4.37513 12.75 4.24989V1.41656C12.75 1.29132 12.7002 1.17121 12.6117 1.08265C12.5231 0.994088 12.403 0.944336 12.2778 0.944336C12.1525 0.944336 12.0324 0.994088 11.9439 1.08265C11.8553 1.17121 11.8055 1.29132 11.8055 1.41656V4.24989C11.8055 4.37513 11.8553 4.49524 11.9439 4.5838C12.0324 4.67236 12.1525 4.72211 12.2778 4.72211Z" fill="#858B8C"/>
<path d="M6.13892 2.8335H10.8611V3.77794H6.13892V2.8335Z" fill="#858B8C"/>
</svg>
