<svg width="16" height="16" viewBox="0 0 16 16" fill="none" xmlns="http://www.w3.org/2000/svg">
<path d="M11.5682 5.34614L6.7555 10.1591L4.4315 7.83508C4.38749 7.79257 4.32855 7.76906 4.26737 7.76959C4.20619 7.77012 4.14767 7.79466 4.10441 7.83792C4.06114 7.88118 4.0366 7.9397 4.03607 8.00088C4.03554 8.06206 4.05906 8.121 4.10156 8.16501L6.59053 10.654C6.61219 10.6757 6.6379 10.6929 6.66621 10.7046C6.69452 10.7163 6.72486 10.7224 6.7555 10.7224C6.78614 10.7224 6.81648 10.7163 6.84478 10.7046C6.87309 10.6929 6.8988 10.6757 6.92046 10.654L11.8982 5.67607C11.9204 5.65455 11.9382 5.6288 11.9505 5.60033C11.9627 5.57186 11.9691 5.54124 11.9694 5.51026C11.9697 5.47928 11.9638 5.44856 11.952 5.41988C11.9403 5.3912 11.923 5.36515 11.9011 5.34324C11.8791 5.32134 11.8531 5.30401 11.8244 5.29228C11.7957 5.28055 11.765 5.27464 11.734 5.27491C11.7031 5.27518 11.6724 5.28162 11.644 5.29385C11.6155 5.30607 11.5898 5.32385 11.5682 5.34614Z" fill="#0E80A4" stroke="#0E80A4" stroke-width="0.4"/>
<path d="M8 1C6.61553 1 5.26215 1.41054 4.11101 2.17971C2.95987 2.94888 2.06266 4.04213 1.53285 5.32121C1.00303 6.60029 0.86441 8.00776 1.13451 9.36563C1.4046 10.7235 2.07129 11.9708 3.05026 12.9497C4.02922 13.9287 5.2765 14.5954 6.63437 14.8655C7.99224 15.1356 9.3997 14.997 10.6788 14.4671C11.9579 13.9373 13.0511 13.0401 13.8203 11.889C14.5895 10.7378 15 9.38446 15 7.99999C14.9979 6.14412 14.2597 4.36487 12.9474 3.05257C11.6351 1.74027 9.85587 1.0021 8 1ZM8 14.5333C6.70783 14.5333 5.44468 14.1501 4.37028 13.4323C3.29588 12.7144 2.45848 11.694 1.96399 10.5002C1.4695 9.30638 1.34012 7.99275 1.59221 6.72541C1.8443 5.45806 2.46654 4.29394 3.38024 3.38023C4.29394 2.46653 5.45807 1.84429 6.72541 1.5922C7.99275 1.34011 9.30639 1.46949 10.5002 1.96399C11.694 2.45848 12.7144 3.29587 13.4323 4.37027C14.1502 5.44467 14.5333 6.70782 14.5333 7.99999C14.5314 9.73214 13.8424 11.3928 12.6176 12.6176C11.3928 13.8424 9.73215 14.5314 8 14.5333Z" fill="#0E80A4" stroke="#0E80A4" stroke-width="0.4"/>
</svg>
