<svg width="23" height="23" viewBox="0 0 23 23" fill="none" xmlns="http://www.w3.org/2000/svg">
<circle cx="11.0075" cy="11.9925" r="10.5075" transform="rotate(-90 11.0075 11.9925)" stroke="#0E80A4"/>
<path d="M13.2441 17.6971C13.3344 17.697 13.4228 17.673 13.4979 17.6279C13.573 17.5828 13.6316 17.5187 13.6661 17.4438C13.7007 17.3688 13.7097 17.2863 13.6921 17.2068C13.6744 17.1272 13.6309 17.0541 13.5669 16.9968L8.25799 12.2309L13.5669 7.46513C13.6502 7.38777 13.6962 7.28416 13.6952 7.17662C13.6941 7.06908 13.6461 6.9662 13.5614 6.89015C13.4767 6.81411 13.3621 6.77097 13.2423 6.77004C13.1225 6.7691 13.007 6.81044 12.9209 6.88516L7.28874 11.9411C7.20308 12.018 7.15496 12.1223 7.15496 12.2311C7.15496 12.3398 7.20308 12.4442 7.28874 12.5211L12.9209 17.577C12.9633 17.6151 13.0137 17.6453 13.0692 17.6659C13.1246 17.6865 13.184 17.6971 13.2441 17.6971Z" fill="#0E80A4"/>
</svg>
