<svg width="23" height="23" viewBox="0 0 23 23" fill="none" xmlns="http://www.w3.org/2000/svg">
<circle r="10.5075" transform="matrix(0 -1 -1 0 11.9925 11.9925)" stroke="#0E80A4"/>
<path d="M9.75594 17.6971C9.66557 17.697 9.57723 17.673 9.5021 17.6279C9.42698 17.5828 9.36843 17.5187 9.33387 17.4438C9.29931 17.3688 9.29028 17.2863 9.30794 17.2068C9.3256 17.1272 9.36914 17.0541 9.43306 16.9968L14.742 12.2309L9.43306 7.46513C9.34983 7.38777 9.30378 7.28416 9.30482 7.17662C9.30586 7.06908 9.35391 6.9662 9.43863 6.89015C9.52334 6.81411 9.63794 6.77097 9.75774 6.77004C9.87754 6.7691 9.99295 6.81044 10.0791 6.88516L15.7113 11.9411C15.7969 12.018 15.845 12.1223 15.845 12.2311C15.845 12.3398 15.7969 12.4442 15.7113 12.5211L10.0791 17.577C10.0367 17.6151 9.98629 17.6453 9.93084 17.6659C9.87538 17.6865 9.81595 17.6971 9.75594 17.6971Z" fill="#0E80A4"/>
</svg>
