<svg width="17" height="17" viewBox="0 0 17 17" fill="none" xmlns="http://www.w3.org/2000/svg">
<path fill-rule="evenodd" clip-rule="evenodd" d="M3.64286 12.495L4.85714 11.2807V13.005L3.46071 14.3893L2.42857 13.9643V10.9286H0.607143L0 10.3214V0.607143L0.607143 0H15.1786L15.7857 0.607143V6.07143H14.5714V1.21429H1.21429V9.71429H3.03571L3.64286 10.3214V12.495ZM11.2807 14.5714L13.5393 16.8179L14.5714 16.3929V14.5714H16.3929L17 13.9643V7.89286L16.3929 7.28571H6.67857L6.07143 7.89286V13.9643L6.67857 14.5714H11.2807ZM11.5357 13.3571H7.28571V8.5H15.7857V13.3571H13.9643L13.3571 13.9643V14.9236L11.9607 13.5393L11.5357 13.3571Z" fill="#68C2D0"/>
</svg>
