<svg width="73" height="74" viewBox="0 0 73 74" fill="none" xmlns="http://www.w3.org/2000/svg">
<g clip-path="url(#clip0_12:658)">
<path d="M31.9002 60.1129V56.2365C31.9002 53.8737 29.988 51.9586 27.6291 51.9586H24.8066V50.1218C24.0261 50.664 23.2188 50.9835 22.435 50.9835C21.6833 50.9835 20.89 50.6607 20.1127 50.1123H20.0646V51.9586H17.2409C14.8816 51.9586 12.9694 53.8737 12.9694 56.2365V60.1129H31.9002Z" fill="white"/>
<path d="M31.9003 60.4297H12.9695C12.795 60.4297 12.6533 60.2883 12.6533 60.1131V56.2367C12.6533 53.7032 14.7113 51.6421 17.241 51.6421H19.7485V50.1125C19.7485 49.9373 19.8901 49.7958 20.0647 49.7958H20.1125C20.1779 49.7958 20.2413 49.816 20.2948 49.8536C21.0597 50.3933 21.7801 50.667 22.4347 50.667C23.1193 50.667 23.857 50.3961 24.6269 49.8618C24.7236 49.7946 24.8496 49.7868 24.9537 49.8416C25.0579 49.8964 25.1229 50.004 25.1229 50.122V51.6421H27.6292C30.1585 51.6421 32.2165 53.7032 32.2165 56.2367V60.1131C32.2165 60.2883 32.0749 60.4297 31.9003 60.4297ZM13.2857 59.7964H31.5841V56.2367C31.5841 54.0524 29.8098 52.2754 27.6288 52.2754H24.8068C24.6322 52.2754 24.4906 52.134 24.4906 51.9587V50.6959C23.7858 51.0975 23.0963 51.3003 22.4347 51.3003C21.783 51.3003 21.0943 51.0867 20.3809 50.6637V51.9587C20.3809 52.134 20.2392 52.2754 20.0647 52.2754H17.241C15.06 52.2754 13.2857 54.0524 13.2857 56.2367V59.7964Z" fill="#50A5B3"/>
<path d="M31.9004 60.43H12.97C12.7955 60.43 12.6539 60.2882 12.6539 60.1133V56.2349C12.6539 53.7017 14.7118 51.6407 17.2412 51.6407H18.0888C18.2259 51.6407 18.3477 51.7293 18.3897 51.86C18.391 51.8637 18.3922 51.8679 18.3934 51.872L21.0689 55.4256L22.3311 54.4731C22.4435 54.3882 22.5991 54.3882 22.7115 54.4731L23.9737 55.4256L26.6495 51.8716C26.6508 51.8674 26.652 51.8633 26.6537 51.8592C26.6957 51.7289 26.8171 51.6407 26.9542 51.6407H27.6293C30.1587 51.6407 32.2166 53.7017 32.2166 56.2353V60.1133C32.2166 60.2882 32.075 60.43 31.9004 60.43V60.43ZM13.2862 59.7967H31.5843V56.2349C31.5843 54.051 29.81 52.274 27.6289 52.274H27.1386L24.2882 56.0597C24.1836 56.1994 23.9852 56.2271 23.8456 56.1219L22.5213 55.1225L21.1965 56.1219C21.0574 56.2271 20.8594 56.199 20.754 56.0597L17.904 52.274H17.2412C15.0601 52.274 13.2858 54.051 13.2858 56.2349V59.7967H13.2862Z" fill="#50A5B3"/>
<path fill-rule="evenodd" clip-rule="evenodd" d="M30.1339 39.712C29.2274 39.5116 28.3304 40.0847 28.1303 40.9926C27.9298 41.9005 28.5025 42.7988 29.409 42.9992C30.3155 43.1996 31.2125 42.6265 31.4126 41.7186C31.6127 40.8108 31.04 39.9124 30.1339 39.712V39.712Z" fill="white"/>
<path d="M29.7699 43.354C28.6687 43.354 27.7729 42.4569 27.7729 41.354C27.7729 40.2515 28.6687 39.3544 29.7699 39.3544C30.8711 39.3544 31.7669 40.2515 31.7669 41.354C31.7669 42.4569 30.8711 43.354 29.7699 43.354V43.354ZM29.7699 39.9877C29.0178 39.9877 28.4052 40.6007 28.4052 41.354C28.4052 42.1077 29.0174 42.7207 29.7699 42.7207C30.5225 42.7207 31.1346 42.1077 31.1346 41.354C31.1346 40.6007 30.5225 39.9877 29.7699 39.9877V39.9877Z" fill="#50A5B3"/>
<path d="M29.886 40.537C29.886 44.6583 25.9228 50.9837 22.4351 50.9837C19.1063 50.9837 14.9846 44.6583 14.9846 40.537C14.9846 36.4161 18.3204 33.0753 22.4351 33.0753C26.5502 33.0753 29.886 36.4161 29.886 40.537Z" fill="white"/>
<path d="M22.435 51.3005C20.7813 51.3005 18.8736 49.9102 17.201 47.4863C15.6387 45.2216 14.6684 42.559 14.6684 40.5371C14.6684 36.2484 18.1524 32.7588 22.435 32.7588C26.7181 32.7588 30.2025 36.248 30.2025 40.5371C30.2025 42.5817 29.2548 45.2435 27.73 47.4843C26.0792 49.9098 24.1492 51.3005 22.435 51.3005V51.3005ZM22.435 33.3921C18.5011 33.3921 15.3003 36.5977 15.3003 40.5375C15.3003 44.3867 19.2861 50.6676 22.435 50.6676C23.915 50.6676 25.6988 49.3441 27.2071 47.1281C28.6645 44.9862 29.5697 42.4613 29.5697 40.5375C29.5697 36.5977 26.3694 33.3921 22.435 33.3921V33.3921Z" fill="#50A5B3"/>
<path d="M20.5319 40.453C20.5319 40.8554 20.2063 41.1815 19.8049 41.1815C19.4031 41.1815 19.0775 40.8554 19.0775 40.453C19.0775 40.051 19.4031 39.7249 19.8049 39.7249C20.2063 39.7249 20.5319 40.051 20.5319 40.453Z" fill="#50A5B3"/>
<path d="M25.7933 40.453C25.7933 40.8554 25.4677 41.1815 25.0659 41.1815C24.6641 41.1815 24.3389 40.8554 24.3389 40.453C24.3389 40.051 24.6645 39.7249 25.0659 39.7249C25.4677 39.7249 25.7933 40.051 25.7933 40.453Z" fill="#50A5B3"/>
<path d="M22.5212 31.4285C18.262 31.4285 14.8097 34.7342 14.8097 38.8122C14.8097 39.2439 14.8875 39.5655 15.0324 39.9675C15.1008 40.1567 16.2049 39.5515 16.2992 39.4855C16.7693 39.1536 17.1534 38.7046 17.4407 38.2078C17.5593 38.0008 17.6581 37.791 17.738 37.5807C17.992 36.9099 18.6828 35.0435 19.3842 35.1898C20.3245 35.3861 21.3903 35.497 22.5212 35.497C23.6517 35.497 24.7179 35.3861 25.6582 35.1898C26.3592 35.0435 27.05 36.9099 27.3044 37.5807C27.3839 37.791 27.4831 38.0013 27.6017 38.2078C28.0763 39.0295 28.8774 39.8121 29.8523 39.9543C29.8548 39.9073 29.914 39.8912 29.9585 39.8751C30.2775 39.7589 30.2327 39.0687 30.2327 38.8122C30.2331 34.7342 26.7804 31.4285 22.5212 31.4285V31.4285Z" fill="white"/>
<path d="M15.0922 40.3162C15.0478 40.3162 15.0083 40.3112 14.9733 40.3005C14.8609 40.2651 14.774 40.1826 14.7353 40.0746C14.5904 39.673 14.4937 39.3044 14.4937 38.8121C14.4937 34.5663 18.095 31.1117 22.5217 31.1117C26.9484 31.1117 30.5498 34.5663 30.5498 38.8121L30.5506 38.8942C30.5559 39.2714 30.5662 39.969 30.0899 40.164C30.0788 40.1768 30.0665 40.1888 30.0533 40.1995C29.9845 40.256 29.8956 40.2803 29.8071 40.2679C28.8631 40.1298 27.9365 39.419 27.3284 38.3664C27.2033 38.1487 27.0958 37.9224 27.009 37.6932L26.9929 37.6503C26.1864 35.52 25.7937 35.4845 25.7233 35.5002C24.725 35.7084 23.6476 35.8139 22.5217 35.8139C21.3954 35.8139 20.318 35.708 19.3205 35.5002C19.2497 35.4861 18.8566 35.52 18.0501 37.6507L18.0341 37.6932C17.9472 37.922 17.8402 38.1483 17.715 38.366C17.3902 38.928 16.9637 39.4046 16.4812 39.7443C16.4718 39.7509 15.5582 40.3162 15.0922 40.3162V40.3162ZM22.5213 31.745C18.4437 31.745 15.126 34.9151 15.126 38.8121C15.126 39.1329 15.1733 39.3794 15.2573 39.6466C15.527 39.5481 16.0061 39.2999 16.1198 39.2248C16.5253 38.9391 16.888 38.5318 17.1671 38.0494C17.2749 37.8618 17.3676 37.6664 17.4429 37.4685L17.4585 37.4264C17.9982 36.0011 18.6088 34.7036 19.449 34.8801C20.4045 35.0796 21.4386 35.1806 22.5213 35.1806C23.6044 35.1806 24.6381 35.0796 25.594 34.8801C26.4306 34.7032 27.0448 36.0007 27.5841 37.426L27.6001 37.4685C27.675 37.6664 27.7677 37.8618 27.8759 38.0498C28.356 38.8814 29.0521 39.4574 29.7598 39.6157C29.7845 39.6029 29.8112 39.5914 29.8413 39.5811C29.8767 39.5444 29.9253 39.3906 29.9183 38.9032L29.917 38.8121C29.917 34.9151 26.5993 31.745 22.5213 31.745Z" fill="#50A5B3"/>
<path d="M18.0739 51.969L19.595 50.8207L22.5294 54.7206L21.0083 55.8689L18.0739 51.969Z" fill="white"/>
<path d="M21.0068 56.1859C20.9919 56.1859 20.9771 56.1851 20.9627 56.1826C20.8796 56.1711 20.8046 56.127 20.754 56.0598L17.8196 52.1603C17.7689 52.0931 17.7471 52.009 17.7591 51.9257C17.7706 51.8428 17.8146 51.7674 17.8817 51.7171L19.4029 50.5688C19.542 50.4633 19.7405 50.4913 19.8458 50.6311L22.7803 54.5306C22.8852 54.6703 22.8572 54.8691 22.7177 54.9742L21.197 56.122C21.1418 56.1637 21.0747 56.1859 21.0068 56.1859V56.1859ZM18.5149 52.0317L21.0689 55.4257L22.0845 54.6588L19.5309 51.2648L18.5149 52.0317Z" fill="#50A5B3"/>
<path d="M24.0382 55.8685L22.5166 54.7206L25.4514 50.8207L26.9726 51.969L24.0382 55.8685Z" fill="white"/>
<path d="M24.0363 56.186C23.97 56.186 23.9029 56.1653 23.8461 56.122L22.3249 54.9742C22.2578 54.9239 22.2138 54.8489 22.2022 54.7656C22.1903 54.6823 22.2121 54.5978 22.2628 54.531L25.1972 50.6315C25.3022 50.4918 25.5006 50.4637 25.6397 50.5693L27.1609 51.7175C27.228 51.7678 27.272 51.8429 27.2839 51.9261C27.2959 52.0094 27.2737 52.0935 27.2234 52.1607L24.289 56.0602C24.2269 56.1423 24.1318 56.186 24.0363 56.186V56.186ZM22.9581 54.6588L23.9741 55.4257L26.5277 52.0321L25.5117 51.2652L22.9581 54.6588Z" fill="#50A5B3"/>
<path d="M16.5155 60.4299C16.3409 60.4299 16.1993 60.2881 16.1993 60.1133V57.0491C16.1993 56.8743 16.3409 56.7325 16.5155 56.7325C16.69 56.7325 16.8316 56.8743 16.8316 57.0491V60.1133C16.8316 60.2881 16.69 60.4299 16.5155 60.4299Z" fill="#50A5B3"/>
<path d="M28.5271 60.4299C28.3526 60.4299 28.211 60.2881 28.211 60.1133V57.0491C28.211 56.8743 28.3526 56.7325 28.5271 56.7325C28.7017 56.7325 28.8433 56.8743 28.8433 57.0491V60.1133C28.8433 60.2881 28.7017 60.4299 28.5271 60.4299Z" fill="#50A5B3"/>
<path d="M16.1326 32.8777C17.3972 34.4725 18.9101 36.1728 20.7376 36.6931C23.6806 37.5313 28.8895 36.4861 28.8895 32.2436C28.8895 29.5307 26.6196 26.2518 22.3822 28.7482C17.1301 31.8429 14.0816 25.8943 14.0816 28.6072C14.0816 29.4648 14.4266 30.3199 14.8795 31.0979L16.1326 32.8777Z" fill="white"/>
<path d="M22.7967 37.2752C22.0198 37.2752 21.2805 37.1767 20.651 36.9978C18.7725 36.4626 17.2502 34.7961 15.8847 33.0744C15.8814 33.0698 15.8777 33.0649 15.874 33.0599L14.6208 31.2805C14.6155 31.2731 14.6105 31.2652 14.606 31.2574C14.0399 30.2852 13.7654 29.4181 13.7654 28.6072C13.7654 28.2509 13.8065 27.8184 14.1297 27.6354C14.5113 27.4185 14.958 27.6869 15.6339 28.093C16.9739 28.8982 19.218 30.2452 22.222 28.4756C24.4985 27.1345 26.0785 27.4845 27.0027 28.0139C28.5251 28.8859 29.206 30.7668 29.206 32.2436C29.206 33.7415 28.5811 35.006 27.3979 35.9006C26.1209 36.8662 24.3812 37.2752 22.7967 37.2752ZM16.3857 32.6876C17.6837 34.3236 19.12 35.9035 20.8239 36.3884C22.5855 36.8901 25.2786 36.7096 27.0167 35.3952C28.0496 34.6135 28.5737 33.553 28.5737 32.2432C28.5737 30.949 27.9907 29.3093 26.6886 28.5635C25.5709 27.9228 24.1371 28.0815 22.5427 29.0211C19.2147 30.9816 16.6734 29.4557 15.3087 28.6356C14.9893 28.4439 14.5965 28.2081 14.4467 28.1936C14.4298 28.234 14.3977 28.3445 14.3977 28.6072C14.3977 29.2998 14.6426 30.0589 15.1457 30.9267L16.3857 32.6876Z" fill="#50A5B3"/>
<path d="M22.435 46.9062C21.3416 46.9062 20.5525 46.4139 20.0906 45.4421C20.0156 45.2842 20.0827 45.0954 20.2404 45.0203C20.3977 44.9449 20.5866 45.0121 20.6615 45.17C21.0193 45.9224 21.5829 46.2729 22.435 46.2729C23.5107 46.2729 24.0583 45.5683 24.1974 45.1952C24.2587 45.0315 24.4411 44.9482 24.6046 45.0096C24.768 45.0711 24.8511 45.2537 24.7898 45.4174C24.5218 46.1344 23.6705 46.9062 22.435 46.9062V46.9062Z" fill="#50A5B3"/>
<path d="M59.8632 56.2365V60.1129H40.9328V56.2365C40.9328 53.8737 42.8446 51.9586 45.2039 51.9586H48.0276V50.1123H48.0758C48.853 50.6607 49.6463 50.9835 50.398 50.9835C51.1819 50.9835 51.9896 50.664 52.7701 50.1218V51.9586H55.5921C57.951 51.9586 59.8632 53.8737 59.8632 56.2365V56.2365Z" fill="white"/>
<path d="M59.8638 60.4297H40.9329C40.7584 60.4297 40.6168 60.2883 40.6168 60.1131V56.2367C40.6168 53.7032 42.6747 51.6421 45.2041 51.6421H47.7116V50.1125C47.7116 49.9373 47.8532 49.7958 48.0277 49.7958H48.0755C48.1409 49.7958 48.2043 49.816 48.2578 49.8536C49.0227 50.3933 49.7428 50.667 50.3977 50.667C51.0828 50.667 51.8201 50.3961 52.5895 49.8618C52.6862 49.7946 52.8122 49.7872 52.9163 49.8416C53.0205 49.8964 53.086 50.0045 53.086 50.122V51.6421H55.5918C58.1215 51.6421 60.1795 53.7032 60.1795 56.2367V60.1131C60.1799 60.2883 60.0383 60.4297 59.8638 60.4297ZM41.2491 59.7964H59.5472V56.2367C59.5472 54.0524 57.7729 52.2754 55.5918 52.2754H52.7698C52.5952 52.2754 52.4536 52.134 52.4536 51.9587V50.6959C51.7488 51.0975 51.0597 51.3003 50.3981 51.3003C49.746 51.3003 49.0573 51.0867 48.3439 50.6637V51.9587C48.3439 52.134 48.2023 52.2754 48.0277 52.2754H45.2041C43.0234 52.2754 41.2491 54.0524 41.2491 56.2367V59.7964Z" fill="#50A5B3"/>
<path d="M59.8638 60.43H40.9329C40.7584 60.43 40.6168 60.2882 40.6168 60.1134V56.2349C40.6168 53.7018 42.6747 51.6407 45.2041 51.6407H46.0517C46.1884 51.6407 46.3098 51.729 46.3522 51.8592C46.3539 51.8634 46.3551 51.8675 46.3559 51.8716L49.0318 55.4256L50.294 54.4728C50.4064 54.3878 50.562 54.3878 50.6744 54.4728L51.9366 55.4256L54.612 51.872C54.6133 51.8679 54.6145 51.8638 54.6157 51.8597C54.6577 51.729 54.7796 51.6403 54.9167 51.6403H55.5922C58.1215 51.6403 60.1795 53.7014 60.1795 56.2349V60.113C60.1799 60.2882 60.0383 60.43 59.8638 60.43V60.43ZM41.2491 59.7967H59.5472V56.2349C59.5472 54.051 57.7729 52.274 55.5922 52.274H55.1015L52.2515 56.0597C52.1465 56.1995 51.9485 56.2271 51.8089 56.122L50.4842 55.1226L49.1598 56.122C49.0207 56.2271 48.8223 56.1991 48.7173 56.0597L45.8668 52.274H45.2041C43.023 52.274 41.2487 54.051 41.2487 56.2349V59.7967H41.2491Z" fill="#50A5B3"/>
<path fill-rule="evenodd" clip-rule="evenodd" d="M44.6507 40.8073C44.3485 39.9283 43.3922 39.4608 42.5145 39.763C41.6368 40.0652 41.17 41.023 41.4718 41.9024C41.7739 42.7814 42.7298 43.2489 43.6079 42.9463C44.4856 42.6441 44.9525 41.6863 44.6507 40.8073V40.8073Z" fill="white"/>
<path d="M43.0638 43.354C41.9625 43.354 41.0667 42.4569 41.0667 41.354C41.0667 40.2515 41.9625 39.3544 43.0638 39.3544C44.165 39.3544 45.0608 40.2515 45.0608 41.354C45.0604 42.4569 44.1646 43.354 43.0638 43.354V43.354ZM43.0638 39.9877C42.3112 39.9877 41.6991 40.6007 41.6991 41.354C41.6991 42.1077 42.3112 42.7207 43.0638 42.7207C43.8159 42.7207 44.4285 42.1077 44.4285 41.354C44.4281 40.6007 43.8159 39.9877 43.0638 39.9877V39.9877Z" fill="#50A5B3"/>
<path d="M57.8488 40.537C57.8488 44.6583 53.8856 50.9837 50.3979 50.9837C47.0687 50.9837 42.9474 44.6583 42.9474 40.537C42.9474 36.4161 46.2832 33.0753 50.3979 33.0753C54.513 33.0753 57.8488 36.4161 57.8488 40.537V40.537Z" fill="white"/>
<path d="M50.3985 51.3005C48.7448 51.3005 46.8371 49.9102 45.1645 47.4863C43.6022 45.2216 42.6315 42.559 42.6315 40.5371C42.6315 36.2484 46.1159 32.7588 50.3985 32.7588C54.6812 32.7588 58.1656 36.248 58.1656 40.5371C58.1656 42.5817 57.2183 45.2435 55.693 47.4843C54.0422 49.9098 52.1123 51.3005 50.3985 51.3005V51.3005ZM50.3985 33.3921C46.4646 33.3921 43.2638 36.5977 43.2638 40.5375C43.2638 44.3867 47.2496 50.6676 50.3985 50.6676C51.8781 50.6676 53.6623 49.3441 55.1706 47.1281C56.628 44.9862 57.5332 42.4613 57.5332 40.5375C57.5328 36.5977 54.3321 33.3921 50.3985 33.3921V33.3921Z" fill="#50A5B3"/>
<path d="M48.4954 40.453C48.4954 40.8554 48.1698 41.1815 47.768 41.1815C47.3666 41.1815 47.041 40.8554 47.041 40.453C47.041 40.051 47.3666 39.7249 47.768 39.7249C48.1698 39.7249 48.4954 40.051 48.4954 40.453Z" fill="#50A5B3"/>
<path d="M53.7561 40.453C53.7561 40.8554 53.4304 41.1815 53.0291 41.1815C52.6273 41.1815 52.3016 40.8554 52.3016 40.453C52.3016 40.051 52.6273 39.7249 53.0291 39.7249C53.4304 39.7249 53.7561 40.051 53.7561 40.453Z" fill="#50A5B3"/>
<path d="M50.4839 31.4285C46.2252 31.4285 42.7724 34.7342 42.7724 38.8122C42.7724 39.2439 42.8503 39.5655 42.9952 39.9675C43.0635 40.1567 44.1676 39.5515 44.2619 39.4855C44.732 39.1536 45.1161 38.7046 45.4035 38.2078C45.522 38.0008 45.6208 37.791 45.7007 37.5807C45.9547 36.9099 46.6455 35.0435 47.347 35.1898C48.2872 35.3861 49.3531 35.497 50.4839 35.497C51.6148 35.497 52.6806 35.3861 53.6209 35.1898C54.322 35.0435 55.0128 36.9099 55.2672 37.5807C55.3466 37.791 55.4458 38.0013 55.5644 38.2078C56.0391 39.0295 56.8402 39.8121 57.815 39.9543C57.8175 39.9073 57.8768 39.8912 57.9212 39.8751C58.2403 39.7589 58.1954 39.0687 58.1954 38.8122C58.1958 34.7342 54.7431 31.4285 50.4839 31.4285V31.4285Z" fill="white"/>
<path d="M43.0551 40.3166C43.011 40.3166 42.9711 40.3116 42.9361 40.3005C42.8237 40.265 42.7373 40.1826 42.6982 40.075C42.5532 39.673 42.4565 39.3044 42.4565 38.8125C42.4565 34.5663 46.0578 31.1117 50.4846 31.1117C54.9109 31.1117 58.5122 34.5663 58.5122 38.8125L58.513 38.8946C58.5188 39.2718 58.5291 39.969 58.0528 40.164C58.0417 40.1768 58.0293 40.1888 58.0161 40.1995C57.9474 40.2564 57.8581 40.2803 57.77 40.2679C56.8256 40.1302 55.8993 39.419 55.2913 38.3668C55.1661 38.1487 55.0591 37.9224 54.9718 37.6936L54.9557 37.6511C54.1493 35.5204 53.7553 35.4849 53.6861 35.5006C52.6878 35.7088 51.6105 35.8143 50.4846 35.8143C49.3582 35.8143 48.2809 35.7088 47.283 35.5006C47.2126 35.4857 46.8198 35.5199 46.0134 37.6507L45.9969 37.6936C45.91 37.9228 45.803 38.1491 45.6779 38.3664C45.353 38.9288 44.9265 39.405 44.4441 39.7451C44.4346 39.7509 43.5211 40.3166 43.0551 40.3166V40.3166ZM50.4846 31.745C46.4065 31.745 43.0888 34.9151 43.0888 38.8121C43.0888 39.1329 43.1362 39.3794 43.2206 39.6466C43.4902 39.5481 43.9694 39.2999 44.0826 39.2248C44.4881 38.9391 44.8512 38.5318 45.1303 38.0494C45.2382 37.8618 45.3308 37.6663 45.4057 37.4684L45.4218 37.426C45.9615 36.0007 46.572 34.7032 47.4118 34.8801C48.3677 35.0796 49.4014 35.1806 50.4846 35.1806C51.5677 35.1806 52.6014 35.0796 53.5569 34.8801C54.3946 34.7044 55.0076 36.0007 55.5473 37.4264L55.563 37.4684C55.6379 37.6663 55.7309 37.8618 55.8392 38.0498C56.3192 38.8818 57.0149 39.4574 57.723 39.6157C57.7469 39.6029 57.7737 39.5918 57.8033 39.581C57.8395 39.5443 57.8881 39.3906 57.8811 38.9036L57.8799 38.8121C57.8799 34.9151 54.5622 31.745 50.4846 31.745V31.745Z" fill="#50A5B3"/>
<path d="M46.0367 51.9678L47.5578 50.8195L50.4923 54.719L48.9711 55.8672L46.0367 51.9678Z" fill="white"/>
<path d="M48.9696 56.1859C48.8737 56.1859 48.779 56.1426 48.7168 56.0598L45.7824 52.1603C45.7322 52.0931 45.7099 52.009 45.7219 51.9257C45.7338 51.8428 45.7779 51.7674 45.845 51.7171L47.3661 50.5688C47.5048 50.4633 47.7037 50.4913 47.8087 50.6311L50.7431 54.5306C50.7933 54.5978 50.8155 54.6823 50.8036 54.7652C50.7916 54.8485 50.7476 54.9235 50.6805 54.9742L49.1594 56.122C49.103 56.1649 49.0358 56.1859 48.9696 56.1859V56.1859ZM46.4777 52.0321L49.0317 55.4257L50.0477 54.6588L47.4941 51.2652L46.4777 52.0321Z" fill="#50A5B3"/>
<path d="M52.0008 55.8678L50.4801 54.7196L53.4145 50.8201L54.9356 51.9683L52.0008 55.8678Z" fill="white"/>
<path d="M51.9991 56.1861C51.9328 56.1861 51.8657 56.1655 51.8093 56.1222L50.2881 54.9744C50.221 54.9241 50.177 54.8491 50.1651 54.7658C50.1531 54.6825 50.1753 54.598 50.2256 54.5312L53.16 50.6317C53.265 50.4919 53.4634 50.4639 53.6029 50.5695L55.1241 51.7177C55.1912 51.768 55.2352 51.843 55.2468 51.9263C55.2587 52.0096 55.2369 52.0937 55.1867 52.1609L52.2518 56.0604C52.1897 56.1424 52.095 56.1861 51.9991 56.1861V56.1861ZM50.9209 54.659L51.9373 55.4259L54.4909 52.0323L53.4749 51.2654L50.9209 54.659Z" fill="#50A5B3"/>
<path d="M44.4785 60.4302C44.3039 60.4302 44.1623 60.2884 44.1623 60.1135V57.0494C44.1623 56.8746 44.3039 56.7327 44.4785 56.7327C44.653 56.7327 44.7946 56.8746 44.7946 57.0494V60.1135C44.7946 60.2884 44.653 60.4302 44.4785 60.4302Z" fill="#50A5B3"/>
<path d="M56.4898 60.4302C56.3153 60.4302 56.1736 60.2884 56.1736 60.1135V57.0494C56.1736 56.8746 56.3153 56.7327 56.4898 56.7327C56.6644 56.7327 56.806 56.8746 56.806 57.0494V60.1135C56.806 60.2884 56.6644 60.4302 56.4898 60.4302Z" fill="#50A5B3"/>
<path d="M50.3978 46.9064C49.3044 46.9064 48.5152 46.4142 48.0537 45.4424C47.9788 45.2845 48.0455 45.0957 48.2031 45.0206C48.3608 44.9456 48.5498 45.0124 48.6247 45.1703C48.982 45.9227 49.5456 46.2732 50.3978 46.2732C51.4735 46.2732 52.021 45.5681 52.1605 45.1954C52.2219 45.0318 52.4034 44.9485 52.5677 45.0099C52.7311 45.0713 52.8139 45.254 52.7525 45.4177C52.4845 46.1346 51.6332 46.9064 50.3978 46.9064V46.9064Z" fill="#50A5B3"/>
<path fill-rule="evenodd" clip-rule="evenodd" d="M44.041 41.5908C43.123 41.454 42.2679 42.0885 42.1312 43.0083C41.9946 43.9277 42.6281 44.7841 43.5466 44.9205C44.4646 45.0574 45.3197 44.4229 45.4559 43.5035C45.5926 42.5841 44.959 41.7277 44.041 41.5908V41.5908Z" fill="white"/>
<path fill-rule="evenodd" clip-rule="evenodd" d="M58.6601 32.6499C58.6601 32.6499 55.0588 36.4364 50.616 36.4364C46.1732 36.4364 44.5735 34.741 44.5735 32.6499C44.5735 30.5583 46.1732 28.8625 50.616 28.8625C55.0588 28.863 58.6601 32.6499 58.6601 32.6499Z" fill="white"/>
<path d="M50.6161 36.7533C45.0833 36.7533 44.2574 34.1823 44.2574 32.6498C44.2574 31.1173 45.0833 28.5462 50.6161 28.5462C55.1421 28.5462 58.7385 32.2729 58.8891 32.4317C59.0056 32.5541 59.0056 32.7462 58.8891 32.8683C58.7385 33.027 55.1421 36.7533 50.6161 36.7533ZM50.6161 29.1795C46.8699 29.1795 44.8898 30.3797 44.8898 32.6498C44.8898 34.9199 46.8699 36.1196 50.6161 36.1196C54.2619 36.1196 57.368 33.4426 58.2082 32.6498C57.3672 31.8569 54.2562 29.1795 50.6161 29.1795Z" fill="#50A5B3"/>
<path d="M28.3616 39.1703H44.3526V57.5005H28.3616V39.1703Z" fill="white"/>
<path d="M44.3528 57.817H28.3617C28.1872 57.817 28.0455 57.6756 28.0455 57.5004V39.1702C28.0455 38.995 28.1872 38.8536 28.3617 38.8536H44.3528C44.5273 38.8536 44.6689 38.995 44.6689 39.1702V57.5004C44.6689 57.6756 44.5273 57.817 44.3528 57.817ZM28.6779 57.1838H44.0366V39.4869H28.6779V57.1838Z" fill="#50A5B3"/>
<path d="M45.9281 60.1134V58.1735C45.9281 55.8107 44.0163 53.8956 41.657 53.8956H38.835V52.0588C38.0544 52.6005 37.2467 52.9205 36.4629 52.9205C35.7112 52.9205 34.9179 52.5977 34.1402 52.0489H34.0925V53.8956H31.2688C28.9099 53.8956 26.9973 55.8107 26.9973 58.1735V60.1134H45.9281Z" fill="white"/>
<path d="M45.9281 60.4301H26.9978C26.8232 60.4301 26.6816 60.2883 26.6816 60.1135V58.1732C26.6816 55.6397 28.7395 53.5786 31.2689 53.5786H33.7764V52.049C33.7764 51.8738 33.918 51.7324 34.0925 51.7324H34.1403C34.2057 51.7324 34.2691 51.7526 34.3227 51.7901C35.0875 52.3298 35.808 52.6035 36.4629 52.6035C37.1476 52.6035 37.8849 52.3327 38.6547 51.7983C38.7519 51.7311 38.8774 51.7237 38.9816 51.7781C39.0857 51.833 39.1512 51.941 39.1512 52.0585V53.5786H41.657C44.1868 53.5786 46.2447 55.6401 46.2447 58.1732V60.1135C46.2443 60.2883 46.1027 60.4301 45.9281 60.4301ZM27.3139 59.7968H45.612V58.1732C45.612 55.9889 43.8377 54.2119 41.6566 54.2119H38.8346C38.6601 54.2119 38.5184 54.0705 38.5184 53.8953V52.6328C37.8137 53.034 37.1241 53.2368 36.4625 53.2368C35.8109 53.2368 35.1217 53.0233 34.4087 52.6002V53.8953C34.4087 54.0705 34.2671 54.2119 34.0925 54.2119H31.2689C29.0878 54.2119 27.3135 55.9889 27.3135 58.1732V59.7968H27.3139Z" fill="#50A5B3"/>
<path d="M45.9282 60.4299H26.9978C26.8232 60.4299 26.6816 60.2881 26.6816 60.1132V58.1718C26.6816 55.6382 28.7395 53.5771 31.2689 53.5771H32.1165C32.2532 53.5771 32.3746 53.6654 32.417 53.7957C32.4187 53.7998 32.4199 53.8039 32.4211 53.808L35.0966 57.362L36.3588 56.4096C36.4712 56.3247 36.6268 56.3247 36.7392 56.4096L38.0018 57.3624L40.6773 53.808C40.6785 53.8039 40.6797 53.7998 40.681 53.7957C40.7234 53.6654 40.8444 53.5771 40.9815 53.5771H41.6566C44.1864 53.5771 46.2443 55.6382 46.2443 58.1718V60.1132C46.2443 60.2881 46.1031 60.4299 45.9282 60.4299V60.4299ZM27.3139 59.7966H45.612V58.1718C45.612 55.9874 43.8377 54.2104 41.6566 54.2104H41.1663L38.3163 57.9965C38.2117 58.1359 38.0133 58.1639 37.8738 58.0588L36.549 57.059L35.2246 58.0588C35.0847 58.1639 34.8867 58.1359 34.7817 57.9965L31.9321 54.2104H31.2689C29.0878 54.2104 27.3135 55.9874 27.3135 58.1718V59.7966H27.3139Z" fill="#50A5B3"/>
<path d="M43.9136 42.4739C43.9136 46.5952 39.9509 52.9206 36.4632 52.9206C33.134 52.9206 29.0123 46.5948 29.0123 42.4739C29.0123 38.3526 32.3481 35.0118 36.4632 35.0118C40.5779 35.0118 43.9136 38.353 43.9136 42.4739Z" fill="white"/>
<path d="M36.4633 53.2374C34.8092 53.2374 32.9019 51.8472 31.2293 49.4229C29.667 47.1585 28.6963 44.496 28.6963 42.4741C28.6963 38.185 32.1803 34.6953 36.4633 34.6953C40.7459 34.6953 44.2299 38.185 44.2299 42.4741C44.2299 44.5182 43.2827 47.1804 41.7578 49.4212C40.1074 51.8463 38.1775 53.2374 36.4633 53.2374V53.2374ZM36.4633 35.3286C32.5294 35.3286 29.3286 38.5342 29.3286 42.4741C29.3286 46.3232 33.3144 52.6041 36.4633 52.6041C37.9429 52.6041 39.7266 51.2807 41.235 49.0646C42.6923 46.9227 43.5976 44.3978 43.5976 42.4741C43.5976 38.5342 40.3973 35.3286 36.4633 35.3286V35.3286Z" fill="#50A5B3"/>
<path d="M34.5596 42.3898C34.5596 42.7922 34.234 43.1179 33.8326 43.1179C33.4308 43.1179 33.1052 42.7918 33.1052 42.3898C33.1052 41.9874 33.4308 41.6613 33.8326 41.6613C34.234 41.6613 34.5596 41.9874 34.5596 42.3898Z" fill="#50A5B3"/>
<path d="M39.8207 42.3898C39.8207 42.7918 39.4951 43.1179 39.0933 43.1179C38.6919 43.1179 38.3663 42.7918 38.3663 42.3898C38.3663 41.9874 38.6919 41.6613 39.0933 41.6613C39.4951 41.6613 39.8207 41.9874 39.8207 42.3898Z" fill="#50A5B3"/>
<path d="M32.1018 53.9048L33.6229 52.7565L36.5578 56.656L35.0366 57.8043L32.1018 53.9048Z" fill="white"/>
<path d="M35.0344 58.1226C34.9385 58.1226 34.8438 58.0793 34.7816 57.9969L31.8472 54.097C31.7966 54.0302 31.7748 53.9457 31.7867 53.8624C31.7982 53.7795 31.8423 53.704 31.9094 53.6537L33.4305 52.5059C33.5697 52.4004 33.7681 52.4284 33.8735 52.5682L36.8083 56.4677C36.8585 56.5349 36.8803 56.6194 36.8688 56.7022C36.8569 56.7855 36.8128 56.8606 36.7457 56.9109L35.2246 58.0591C35.1678 58.102 35.1007 58.1226 35.0344 58.1226ZM32.5425 53.9687L35.0966 57.3627L36.1126 56.5959L33.5586 53.2019L32.5425 53.9687Z" fill="#50A5B3"/>
<path d="M38.0655 57.8049L36.5444 56.6567L39.4792 52.7572L40.9999 53.905L38.0655 57.8049Z" fill="white"/>
<path d="M38.0639 58.1226C37.9977 58.1226 37.9306 58.102 37.8737 58.0591L36.3526 56.9109C36.2855 56.8606 36.2415 56.7855 36.2299 56.7022C36.218 56.619 36.2398 56.5344 36.2905 56.4677L39.2249 52.5682C39.3298 52.4284 39.5287 52.4004 39.6678 52.5059L41.1889 53.6537C41.2561 53.704 41.3001 53.7795 41.312 53.8624C41.3236 53.9457 41.3017 54.0302 41.2515 54.097L38.3167 57.9969C38.2545 58.0793 38.1599 58.1226 38.0639 58.1226ZM36.9858 56.5959L38.0018 57.3627L40.5558 53.9687L39.5398 53.2019L36.9858 56.5959Z" fill="#50A5B3"/>
<path d="M36.463 48.8435C35.3692 48.8435 34.5804 48.3508 34.1189 47.3794C34.044 47.2215 34.1107 47.0327 34.2683 46.9572C34.4264 46.8822 34.615 46.9494 34.6899 47.1073C35.0472 47.8597 35.6108 48.2102 36.463 48.2102C37.5387 48.2102 38.0862 47.5052 38.2253 47.1324C38.2863 46.9688 38.4691 46.8855 38.6325 46.9469C38.7959 47.0083 38.8791 47.1906 38.8177 47.3547C38.5497 48.0717 37.6984 48.8435 36.463 48.8435V48.8435Z" fill="#50A5B3"/>
<path d="M44.9426 39.739C44.9426 40.5034 44.8434 41.2447 44.6552 41.9502C42.7471 41.0287 40.9317 39.8974 39.25 38.6184C38.7568 38.2441 38.271 37.854 37.807 37.4405C37.2377 36.9404 36.6992 36.4011 36.2135 35.8169C35.1571 34.5429 34.3815 33.0793 33.7249 31.5546C34.5536 31.2862 35.4379 31.1415 36.3563 31.1415C38.8124 31.1415 41.028 32.1747 42.5936 33.8313C44.0505 35.3712 44.9426 37.4504 44.9426 39.739V39.739Z" fill="white"/>
<path d="M44.6554 42.2669C44.6084 42.2669 44.5619 42.2562 44.5183 42.2356C42.6373 41.3269 40.8005 40.1952 39.0591 38.8709C38.5033 38.4491 38.0254 38.0591 37.5972 37.6773C36.9863 37.1405 36.4388 36.5826 35.9707 36.0199C35.0234 34.877 34.2174 33.4983 33.4352 31.6805C33.3998 31.5984 33.4006 31.5056 33.4373 31.4244C33.4739 31.3432 33.5431 31.2814 33.6279 31.2537C34.5051 30.9693 35.4232 30.825 36.3564 30.825C38.8273 30.825 41.1236 31.8153 42.8234 33.6137C44.394 35.2736 45.2589 37.4489 45.2589 39.7392C45.2589 40.518 45.1588 41.2898 44.9612 42.0315C44.9369 42.123 44.8731 42.1985 44.7875 42.2381C44.7455 42.2575 44.7006 42.2669 44.6554 42.2669V42.2669ZM34.1581 31.7555C34.8711 33.356 35.6064 34.5888 36.4573 35.615C36.9035 36.1522 37.428 36.6865 38.0159 37.2031C38.4333 37.575 38.8989 37.9548 39.4415 38.3666C41.0405 39.5825 42.7209 40.633 44.4409 41.4922C44.5644 40.9204 44.6265 40.3325 44.6265 39.7396C44.6265 37.6121 43.8234 35.5915 42.3648 34.0495C40.7856 32.3789 38.6519 31.4586 36.3568 31.4586C35.608 31.4582 34.8699 31.558 34.1581 31.7555V31.7555Z" fill="#50A5B3"/>
<path d="M42.5935 33.8313C41.1164 35.1799 39.5092 36.3731 37.8074 37.4405C34.7894 39.335 31.4799 40.8296 28.0931 42.0743C27.8836 41.3317 27.772 40.5484 27.772 39.739C27.772 35.9101 30.2713 32.6657 33.7252 31.5546C34.5535 31.2862 35.4378 31.1415 36.3562 31.1415C38.8123 31.1415 41.0279 32.1751 42.5935 33.8313V33.8313Z" fill="white"/>
<path d="M28.0933 42.391C28.0439 42.391 27.9945 42.3795 27.9496 42.3564C27.871 42.3164 27.813 42.2455 27.7891 42.1606C27.568 41.3768 27.4556 40.5621 27.4556 39.7392C27.4556 35.8516 29.9364 32.4411 33.6283 31.2537C34.5047 30.9693 35.4227 30.825 36.3564 30.825C38.8269 30.825 41.1232 31.8157 42.8234 33.6137C42.8814 33.6756 42.9127 33.7584 42.9094 33.8429C42.9061 33.9279 42.8695 34.0083 42.8065 34.0656C41.3825 35.366 39.7568 36.5917 37.9747 37.7094C35.2046 39.4481 32.0079 40.9732 28.202 42.3717C28.167 42.3849 28.1304 42.391 28.0933 42.391V42.391ZM36.3564 31.4582C35.4894 31.4582 34.6369 31.5918 33.8226 31.8561C30.3925 32.9594 28.0884 36.1275 28.0884 39.7392C28.0884 40.3881 28.1629 41.0313 28.3115 41.6563C31.9322 40.3061 34.9864 38.8375 37.6396 37.1726C39.2884 36.1382 40.7996 35.0106 42.1371 33.8174C40.5835 32.2935 38.5432 31.4582 36.3564 31.4582V31.4582Z" fill="#50A5B3"/>
<path d="M29.1783 21.793V26.4205C29.1783 27.1313 29.7538 27.7081 30.464 27.7081H58.7447C59.4549 27.7081 60.0304 27.1313 60.0304 26.4205V14.3337C60.0304 13.6229 59.4549 13.0461 58.7447 13.0461H30.464C29.7538 13.0461 29.1783 13.6229 29.1783 14.3337V21.793Z" fill="white"/>
<path d="M58.7446 28.0253H30.4639C29.5804 28.0253 28.8617 27.3059 28.8617 26.4211V21.7935C28.8617 21.6187 29.0033 21.4769 29.1778 21.4769C29.3524 21.4769 29.494 21.6187 29.494 21.7935V26.4211C29.494 26.9562 29.9291 27.392 30.4639 27.392H58.7446C59.2794 27.392 59.7141 26.9562 59.7141 26.4211V14.3343C59.7141 13.7991 59.2794 13.3633 58.7446 13.3633H30.4639C29.9291 13.3633 29.494 13.7991 29.494 14.3343V18.999C29.494 19.1738 29.3524 19.3156 29.1778 19.3156C29.0033 19.3156 28.8617 19.1738 28.8617 18.999V14.3343C28.8617 13.4499 29.5804 12.73 30.4639 12.73H58.7446C59.6277 12.73 60.3465 13.4499 60.3465 14.3343V26.4211C60.3465 27.3055 59.6277 28.0253 58.7446 28.0253V28.0253Z" fill="#50A5B3"/>
<path d="M43.0707 15.2683H32.5027C31.9967 15.2683 31.5863 15.679 31.5863 16.1857V24.5697C31.5863 25.0764 31.9967 25.487 32.5027 25.487H56.7058C57.2117 25.487 57.6218 25.0764 57.6218 24.5697V16.1861C57.6218 15.6794 57.2117 15.2687 56.7058 15.2687H43.0707V15.2683Z" fill="white"/>
<path d="M56.7056 25.8042H32.5029C31.8232 25.8042 31.2703 25.2505 31.2703 24.5702V16.1862C31.2703 15.5055 31.8232 14.9518 32.5029 14.9518H43.071C43.2455 14.9518 43.3871 15.0936 43.3871 15.2684C43.3871 15.4432 43.2455 15.5851 43.071 15.5851H32.5029C32.1719 15.5851 31.9027 15.8547 31.9027 16.1862V24.5702C31.9027 24.9013 32.1719 25.1709 32.5029 25.1709H56.7056C57.0362 25.1709 57.3058 24.9013 57.3058 24.5702V16.1862C57.3058 15.8547 57.0366 15.5851 56.7056 15.5851H45.7683C45.5937 15.5851 45.4521 15.4432 45.4521 15.2684C45.4521 15.0936 45.5937 14.9518 45.7683 14.9518H56.7056C57.3853 14.9518 57.9381 15.5055 57.9381 16.1862V24.5702C57.9381 25.2505 57.3853 25.8042 56.7056 25.8042Z" fill="#50A5B3"/>
<path d="M40.3589 23.5852C40.3523 23.5852 40.3461 23.5852 40.3391 23.5848C40.2374 23.5782 40.1448 23.5234 40.0909 23.4364L36.7859 18.1446L34.6827 22.5784C34.6078 22.7367 34.4192 22.8035 34.2616 22.7285C34.1039 22.6534 34.0368 22.4646 34.1117 22.3067L36.4628 17.3501C36.5118 17.2458 36.6147 17.1769 36.73 17.1699C36.8489 17.1641 36.9551 17.2202 37.0161 17.3183L40.3926 22.7252L42.4646 20.1772C42.5564 20.0642 42.714 20.0283 42.8458 20.0914L45.6513 21.4305L48.0448 18.5239C48.1029 18.453 48.1893 18.4109 48.2807 18.4088C48.3717 18.4047 48.4606 18.4439 48.5219 18.5115L51.5691 21.8482L54.7769 20.2988C54.9338 20.2229 55.1231 20.2885 55.1989 20.446C55.2746 20.6035 55.2088 20.7931 55.0515 20.869L51.6317 22.5211C51.5053 22.5821 51.3551 22.5524 51.2612 22.4493L48.3013 19.2079L45.9819 22.0243C45.8901 22.136 45.7337 22.171 45.6019 22.1084L42.798 20.7701L40.6038 23.4685C40.5437 23.5427 40.4535 23.5852 40.3589 23.5852V23.5852Z" fill="#50A5B3"/>
</g>
<path d="M72.5 36.555C72.5 56.4683 56.3815 72.61 36.5 72.61C16.6185 72.61 0.5 56.4683 0.5 36.555C0.5 16.6417 16.6185 0.5 36.5 0.5C56.3815 0.5 72.5 16.6417 72.5 36.555Z" stroke="#68C2D0"/>
<defs>
<clipPath id="clip0_12:658">
<rect width="47.6933" height="47.7652" fill="white" transform="translate(12.6533 12.6724)"/>
</clipPath>
</defs>
</svg>
