<svg width="24" height="20" viewBox="0 0 24 20" fill="none" xmlns="http://www.w3.org/2000/svg">
<path d="M12.2849 2.24058L12.285 2.2405C13.423 1.12736 14.9692 0.5 16.5837 0.5C18.1983 0.5 19.7445 1.12736 20.8825 2.2405L20.8827 2.24066C22.0205 3.35257 22.6579 4.85897 22.6579 6.42733C22.6579 7.99567 22.0205 9.50207 20.8825 10.6141L20.8824 10.6142L11.9441 19.3529C11.7436 19.549 11.4138 19.549 11.2132 19.3529L2.2749 10.6142C-0.091635 8.30055 -0.0916348 4.5541 2.2749 2.24042C4.64775 -0.0794339 8.49947 -0.079434 10.8723 2.24042L11.2291 2.58927L11.5787 2.931L11.9282 2.58927L12.2849 2.24058Z" stroke="#0E80A4"/>
</svg>
