<svg width="166" height="25" viewBox="0 0 166 25" fill="none" xmlns="http://www.w3.org/2000/svg">
<path d="M10.3137 18.5143C9.83531 17.7151 9.18859 17.1166 8.4666 16.5645C7.72039 15.9931 6.90529 15.4037 6.01748 15.1077C5.19473 14.8349 4.18063 14.943 3.36554 15.1965C2.57722 15.441 2.01086 15.9339 1.71238 16.7421C1.41261 17.5529 1.34118 18.3495 1.99173 18.9904C2.58743 19.5773 3.46886 19.9595 4.2763 20.0239C4.51739 20.0432 5.14881 20.0856 5.31973 19.8682C5.51745 19.6172 5.45622 18.9248 5.39372 18.6481C5.21896 17.8669 4.43958 17.2183 3.77883 17.8759C3.09894 18.5516 2.18434 17.3457 2.85913 16.6752C3.60152 15.9365 4.75465 15.8889 5.61312 16.4629C6.47542 17.0394 6.89126 18.0883 6.89253 19.123C6.89253 20.1809 6.56343 21.1139 5.5251 21.4176C4.53015 21.7085 3.44462 21.5258 2.50196 21.0972C1.61161 20.6905 0.748033 20.0586 0.292649 19.1359C-0.176767 18.1848 0.0120205 17.0214 0.38194 16.0768C1.19704 13.997 3.39998 13.3188 5.40775 13.4462C6.65782 13.526 7.8084 14.2493 8.82504 14.9687C9.82255 15.674 10.8048 16.486 11.4502 17.5658C11.949 18.3959 10.815 19.3521 10.3137 18.5143Z" fill="#369CB7"/>
<path d="M28.5608 9.89299C28.7535 11.7423 28.0621 13.315 27.0148 13.4C25.9676 13.4888 24.9611 12.0602 24.7685 10.2109C24.5759 8.36151 25.2673 6.79271 26.3145 6.70391C27.3618 6.61768 28.3682 8.04363 28.5608 9.89299Z" fill="#369CB7"/>
<path d="M8.26904 11.5761C8.26904 16.751 12.5754 20.2168 17.8079 20.2168C23.0403 20.2168 27.1005 17.4601 27.2102 11.5761C27.3084 6.40386 22.9702 2.20581 17.7415 2.20581C12.5091 2.20581 8.26904 6.40128 8.26904 11.5761Z" fill="#369CB7"/>
<path d="M20.1673 2.69618C20.1392 2.22773 17.4197 2.1711 16.7691 0.490331C16.6875 0.276696 16.6582 0.092661 16.6467 0C16.3788 0.0862262 15.8137 0.308869 15.3124 0.855826C14.8328 1.37833 14.6529 1.93173 14.5841 2.20199C14.468 2.15437 14.1899 2.02053 13.9782 1.71166C13.7294 1.34873 13.7294 0.972939 13.7345 0.855826C13.5011 1.05273 13.2332 1.33329 13.0062 1.71166C12.3059 2.89566 12.5546 4.15559 12.6439 4.52881C18.833 3.5816 20.189 3.03079 20.1673 2.69618Z" fill="#369CB7"/>
<path d="M13.4503 15.742C13.9771 18.1576 17.1699 19.5012 20.5808 18.7432C23.9943 17.9851 26.3325 15.4138 25.8057 13.002C25.2788 10.5864 22.086 9.24282 18.6713 10.0008C15.2642 10.755 12.9222 13.3263 13.4503 15.742Z" fill="white"/>
<path d="M12.2753 11.3021C12.6885 13.4886 14.6045 14.8541 16.5574 14.3509C18.5103 13.8477 19.7604 11.6676 19.3471 9.48103C18.9338 7.29448 17.0153 5.92902 15.065 6.43222C13.112 6.93542 11.862 9.11553 12.2753 11.3021Z" fill="white"/>
<path d="M24.2251 8.20571C24.6384 10.3922 23.5121 12.5402 21.7135 13.0048C19.9149 13.4693 18.1202 12.0717 17.7095 9.88518C17.2962 7.69864 18.4225 5.55072 20.2211 5.08613C22.0197 4.62154 23.8119 6.01531 24.2251 8.20571Z" fill="white"/>
<path d="M9.67319 16.5284C9.06474 16.6545 8.42567 16.3315 7.88227 15.6867C7.34015 15.0433 6.90262 14.0883 6.6998 12.97C6.49698 11.8529 6.56969 10.7912 6.84649 9.97782C7.12457 9.16318 7.60547 8.60721 8.21392 8.47981C8.82238 8.35368 9.46145 8.67671 10.0048 9.32147C10.547 9.96495 10.9845 10.9199 11.1873 12.0369C11.3914 13.154 11.32 14.2158 11.0432 15.0304C10.7651 15.8476 10.2842 16.4036 9.67319 16.5284Z" fill="#369CB7" stroke="white" stroke-width="0.7"/>
<path d="M8.15414 12.8826C9.48968 15.5865 9.68357 17.6006 10.5943 17.3368C11.5077 17.0729 11.7513 14.1953 11.4554 11.9251C11.162 9.65494 9.17334 8.10802 8.85827 8.4259C8.54319 8.4259 7.86076 10.6124 8.15414 12.8826Z" fill="#369CB7"/>
<path d="M22.6444 15.9016C22.5245 16.0418 21.2565 17.4704 19.0128 17.4395C17.403 17.4176 15.8991 16.6506 15.0903 15.4473C15.399 15.7021 16.8009 16.796 18.9834 16.8668C20.9338 16.9324 22.2719 16.1396 22.6444 15.9016Z" fill="#369CB7"/>
<path d="M18.6558 14.0422C18.7655 14.0988 19.1737 14.2906 19.6903 14.176C20.2082 14.0615 20.4977 13.714 20.5768 13.6162C20.3089 13.7179 19.99 13.8195 19.6303 13.8993C19.2744 13.9778 18.9428 14.019 18.6558 14.0422Z" fill="#369CB7"/>
<path d="M27.3057 11.7242C27.3886 11.6792 27.5008 11.7384 27.5085 11.8632L27.96 20.3147C27.9626 20.3868 27.9269 20.4524 27.872 20.4794L20.429 24.2155L20.4277 24.2168C20.3996 24.2322 20.3639 24.2348 20.3333 24.2232H20.332L12.4374 21.5244H12.4361C12.3813 21.5064 12.3379 21.4485 12.3328 21.3726L11.8813 12.9172C11.8774 12.8568 11.9017 12.804 11.9387 12.7718C11.9744 12.7396 12.0203 12.7281 12.0662 12.7448H12.0675L19.934 15.5079H19.9353C19.9953 15.5285 20.0603 15.5246 20.1164 15.495L27.3057 11.7242Z" fill="#369CB7" stroke="white" stroke-width="0.8"/>
<path d="M20.1739 23.7252L19.7861 16.172L20.3576 16.0034L20.6892 23.4163L20.1739 23.7252Z" fill="white"/>
<path d="M12.6198 12.5594L12.579 12.9185L12.5586 12.8979L12.5127 12.5607V12.2827L18.3281 14.6121L12.6543 12.5388L12.6237 12.5272L12.6198 12.5594Z" fill="#369CB7" stroke="white" stroke-width="0.4"/>
<path d="M26.9128 11.92L26.6666 11.1697L20.8818 14.7847L26.673 11.5854L26.6947 11.5738L26.7074 11.5957L26.8988 11.9213H26.9128V11.92Z" fill="#369CB7" stroke="white" stroke-width="0.4"/>
<path d="M14.4158 19.666C14.4285 20.3095 13.5917 20.8436 12.5483 20.8629C11.5074 20.8822 10.6515 20.3764 10.6387 19.733C10.6298 19.0895 11.4628 18.5554 12.5062 18.5361C13.5509 18.5181 14.4056 19.0239 14.4158 19.666Z" fill="#369CB7"/>
<path d="M13.6837 19.6788C13.6901 20.0701 13.1786 20.3983 12.5408 20.4111C11.903 20.424 11.3825 20.1113 11.3736 19.72C11.3672 19.3288 11.8787 19.0006 12.5152 18.9877C13.153 18.9787 13.6735 19.2876 13.6837 19.6788Z" fill="white"/>
<path d="M14.7055 18.2852C14.7183 19.0368 13.7437 19.6597 12.5281 19.6828C11.3099 19.7047 10.3162 19.1127 10.3009 18.365C10.2881 17.6173 11.2627 16.9905 12.4783 16.9674C13.6965 16.9455 14.6927 17.5375 14.7055 18.2852Z" fill="#369CB7"/>
<path d="M13.8508 18.3018C13.8572 18.76 13.264 19.1422 12.5191 19.155C11.7741 19.1679 11.1657 18.8076 11.1593 18.3494C11.1503 17.8913 11.7461 17.5091 12.491 17.4962C13.2321 17.4833 13.8406 17.8424 13.8508 18.3018Z" fill="white"/>
<path d="M14.0563 17.0276C14.0691 17.6698 13.2323 18.2052 12.1888 18.2245C11.148 18.2438 10.2921 17.738 10.2793 17.0946C10.2793 17.0662 10.2793 17.0366 10.2831 17.0083C10.3456 16.4073 11.1505 15.917 12.1442 15.8977C13.1915 15.8797 14.0435 16.3854 14.0563 17.0276Z" fill="#369CB7"/>
<path d="M13.32 17.0406C13.3264 17.4319 12.8149 17.76 12.1784 17.7729C11.7026 17.7819 11.1031 17.5374 11.0202 17.1655C11.0163 17.1462 11.0112 17.1204 11.0112 17.0831C11.0176 16.7176 11.6299 16.3611 12.1529 16.3508C12.7932 16.3405 13.3137 16.6494 13.32 17.0406Z" fill="white"/>
<path d="M11.815 14.8474C11.6071 14.9465 10.9348 15.2554 10.5751 15.9259C10.3162 16.4059 10.2817 16.8589 10.2817 17.0944C10.783 16.7161 11.2818 16.3364 11.7844 15.9555C11.7589 15.59 11.838 15.2168 11.815 14.8474Z" fill="#369CB7"/>
<path d="M11.594 16.5955C11.4116 16.8117 11.2279 17.0253 11.0455 17.239C11.02 17.163 10.8656 16.656 11.0646 16.1283C11.2317 15.6792 11.5417 15.517 11.6131 15.4849C11.3707 15.8993 11.3108 16.3124 11.4307 16.4938C11.4588 16.5324 11.5021 16.5762 11.594 16.5955Z" fill="white"/>
<path d="M25.5149 17.805C25.5596 18.4472 26.4359 18.9092 27.4781 18.8397C28.519 18.7702 29.3277 18.1898 29.283 17.5501C29.2384 16.9105 28.3621 16.4459 27.3237 16.5154C26.2816 16.5849 25.4703 17.1615 25.5149 17.805Z" fill="#369CB7"/>
<path d="M26.2455 17.7537C26.271 18.1449 26.8067 18.4281 27.4445 18.3843C28.0785 18.3431 28.5747 17.9892 28.5492 17.598C28.5237 17.2067 27.9879 16.9236 27.3501 16.9674C26.7124 17.0085 26.2213 17.3625 26.2455 17.7537Z" fill="white"/>
<path d="M25.1103 16.4525C25.1613 17.2002 26.183 17.742 27.3974 17.6584C28.6118 17.576 29.5557 16.9003 29.5047 16.1526C29.4549 15.4049 28.4294 14.8631 27.2175 14.9468C26.0032 15.033 25.0605 15.7048 25.1103 16.4525Z" fill="#369CB7"/>
<path d="M25.9624 16.3945C25.9943 16.8527 26.6181 17.1809 27.3605 17.1294C28.1016 17.0779 28.6794 16.6673 28.6475 16.2092C28.6156 15.751 27.9919 15.4228 27.2495 15.4743C26.5084 15.5258 25.9343 15.9363 25.9624 16.3945Z" fill="white"/>
<path d="M25.5262 15.1437C25.5708 15.7872 26.4472 16.2479 27.4855 16.1784C28.5264 16.1089 29.3338 15.5298 29.2904 14.8902C29.2904 14.8619 29.2841 14.8323 29.2815 14.804C29.168 14.2081 28.3261 13.7924 27.3311 13.8594C26.289 13.925 25.4815 14.5015 25.5262 15.1437Z" fill="#369CB7"/>
<path d="M26.2572 15.0934C26.2827 15.4846 26.8185 15.7677 27.4563 15.724C27.9321 15.6918 28.5073 15.3997 28.5571 15.02C28.5609 15.0007 28.5635 14.975 28.5609 14.9377C28.5227 14.5747 27.8823 14.2697 27.3619 14.3071C26.7241 14.3482 26.233 14.7009 26.2572 15.0934Z" fill="white"/>
<path d="M27.6157 12.7708C27.8262 12.8402 28.4614 13.0809 28.899 13.7463C29.1987 14.2031 29.2702 14.6523 29.2906 14.8852C28.7612 14.5506 28.2306 14.2134 27.6999 13.8788C27.6744 13.7077 27.6514 13.5236 27.6374 13.328C27.6208 13.1311 27.6157 12.9445 27.6157 12.7708Z" fill="#369CB7"/>
<path d="M27.9397 14.5014C28.1387 14.6983 28.3402 14.899 28.5392 15.0972C28.5584 15.0213 28.6681 14.5014 28.4257 13.993C28.2203 13.5606 27.8989 13.4268 27.8262 13.3984C28.1042 13.7897 28.1986 14.1976 28.0915 14.3881C28.0685 14.4241 28.0277 14.4756 27.9397 14.5014Z" fill="white"/>
<path d="M17.2454 11.5504C17.3334 12.2222 16.9176 12.8297 16.318 12.9095C15.7185 12.9893 15.1636 12.5079 15.0782 11.8374C14.9901 11.1656 15.406 10.5582 16.0055 10.4784C16.6025 10.3986 17.1612 10.8786 17.2454 11.5504Z" fill="#369CB7"/>
<path d="M16.0399 10.9585C16.0782 11.2417 15.9008 11.4965 15.6521 11.5287C15.3995 11.5608 15.1661 11.3601 15.1317 11.0769C15.0934 10.7938 15.2707 10.539 15.5194 10.5068C15.772 10.4746 16.0054 10.6754 16.0399 10.9585Z" fill="white"/>
<path d="M22.8142 10.4013C22.8997 11.0731 22.4864 11.6805 21.8869 11.7603C21.2874 11.8401 20.7325 11.3588 20.647 10.687C20.559 10.0152 20.9748 9.40776 21.5718 9.32797C22.1713 9.24946 22.7262 9.73079 22.8142 10.4013Z" fill="#369CB7"/>
<path d="M21.7074 9.68581C21.7456 9.96894 21.5683 10.2238 21.3196 10.2559C21.067 10.2881 20.8336 10.0873 20.7991 9.80421C20.7609 9.52108 20.9382 9.26627 21.1869 9.2341C21.4357 9.20192 21.6691 9.40269 21.7074 9.68581Z" fill="white"/>
<path d="M12.5981 12.5247V12.9107L13.0446 13.0394L12.8533 12.6534L12.5981 12.5247Z" fill="white"/>
<path d="M12.6235 12.6997L16.4197 14.1269L19.74 15.3933L12.7779 12.8438L12.6235 12.6997Z" fill="#369CB7"/>
<path d="M25.2904 12.3317L21.2085 14.8413L24.3337 13.2326L26.8848 11.9457L26.6935 11.5596L25.2904 12.3317Z" fill="white"/>
<path d="M26.6628 11.7627L23.1065 13.7189L19.9966 15.4473L26.5301 11.9287L26.6628 11.7627Z" fill="#369CB7"/>
<path d="M103.643 20.3879L102.406 18.6608C101.83 20.3879 100.809 20.7804 100.061 20.7804C98.7946 20.7804 98.5956 19.6337 98.5956 18.9658V10.3149H94.0787V13.042H95.3722V18.9208C94.8109 20.5758 93.4282 21.0545 92.5085 21.0545C91.2418 21.0545 90.7392 20.0816 90.7392 19.2399V13.0587H92.3363V10.3162H90.7392V4.82861L87.5158 6.77449V10.3303H86.2211V13.0574H87.5158V16.8166C86.4507 18.9787 84.1776 21.4625 81.5002 21.4625C78.5497 21.4625 77.2831 19.6788 77.2831 17.397C77.2831 13.8849 79.2985 12.6366 80.9517 12.6366C81.5844 12.6366 81.9721 12.8258 81.9721 12.8258V14.8862H84.7057V10.2557C84.7057 10.2557 83.3255 9.80656 81.726 9.80656C74.7192 9.80656 73.9411 15.3958 73.9411 17.4845C73.9411 17.9337 73.9857 18.442 74.0839 18.9787C73.7102 20.4458 72.9321 20.7624 72.3721 20.7624C71.1641 20.7624 71.1641 19.5707 71.1641 19.3107V10.3419C71.1641 10.3123 68.9625 9.76152 67.1065 9.76152C60.9046 9.76152 58.8892 14.1024 58.8892 17.9903C58.8892 19.3262 59.4351 24.2462 64.0259 24.2462C65.8245 24.2462 67.5223 23.3904 68.3859 21.9091C68.3859 21.9091 68.442 21.8229 68.4714 21.8229C68.5007 21.8229 68.5007 21.8525 68.5275 21.9091C68.7711 22.9978 69.7087 24.0287 71.2611 24.0287C73.5048 24.0287 74.7 22.6221 75.1758 21.6337C76.1976 23.0699 77.9681 24.2024 80.9453 24.2024C84.2401 24.2024 86.1828 22.4753 87.5362 20.922C87.8092 22.8074 89.1779 24.1432 91.5786 24.1432C93.867 24.1432 95.2344 23.317 95.9832 22.4457C96.6159 23.3891 97.681 24.0145 99.1058 24.0145C102.359 24.0145 103.709 21.3737 103.709 20.6466C103.744 20.5462 103.643 20.3879 103.643 20.3879ZM68.0007 17.6583C68.0007 19.2116 66.8641 20.9966 64.8079 20.9966C62.3026 20.9966 62.2758 18.3262 62.2758 17.5424C62.2758 13.6533 65.0094 12.5349 66.4904 12.5349C67.5708 12.5349 68.0007 12.7241 68.0007 12.7241V17.6583Z" fill="#369CB7"/>
<path d="M41.1391 4.82739H30.5913V7.83243H33.0519V23.6684H36.7498V17.4125H41.1659C42.9645 17.4125 48.3602 17.2233 48.3602 11.0987C48.3602 4.82739 43.7566 4.82739 41.1391 4.82739ZM40.9797 14.4512C40.3177 14.4512 36.7358 14.4216 36.7358 14.4216V7.83243H41.1812C42.5346 7.83243 44.6062 7.86204 44.6062 11.0537C44.6202 14.2904 41.9147 14.4512 40.9797 14.4512Z" fill="#369CB7"/>
<path d="M164.004 17.2659C163.615 18.253 163.084 19.1668 162.364 19.9956C161.644 20.8218 160.867 21.2439 160.046 21.2439C159.297 21.2439 158.606 20.9685 157.959 20.4177C157.297 19.8669 156.778 19.2144 156.404 18.4589C157.57 18.1539 158.547 17.5452 159.339 16.6302C160.131 15.7164 160.533 14.6997 160.533 13.5672C160.533 12.4656 160.189 11.5647 159.497 10.8672C158.791 10.1697 157.885 9.83762 156.748 9.83762C154.359 9.83762 152.576 11.1014 151.368 13.6251V4.83008H146.923V7.55714H148.16V20.5464C147.831 20.7201 147.484 20.7922 147.18 20.7922C145.914 20.7922 145.67 19.7021 145.67 19.0651V14.1463C145.67 11.288 143.714 10.0242 141.367 10.0242C138.747 10.0242 137.583 11.5776 137.583 11.5776C137.527 11.6638 137.497 11.6947 137.468 11.6947C137.437 11.6947 137.437 11.6381 137.437 11.6085V10.3305H132.963V13.0602H134.401V18.7511C133.826 20.4061 132.82 20.7832 132.085 20.7832C130.817 20.7832 130.615 19.6365 130.615 18.9686V10.3177H126.099V13.0447H127.392V18.8347C126.832 20.4177 125.837 20.7806 125.105 20.7806C123.866 20.7806 123.593 19.6339 123.593 18.966V14.1463C123.593 11.288 121.638 10.0242 119.264 10.0242C116.647 10.0242 115.51 11.5776 115.51 11.5776V4.83008H99.4517C99.8828 5.3809 100.143 6.07843 100.143 6.83258C100.143 7.16719 100.087 7.50051 100 7.80552H103.627V18.1539C103.627 18.1539 104.49 19.3302 104.748 19.7369C104.849 19.8952 105.021 20.2452 105.021 20.6648C105.021 21.4189 104.546 22.5231 103.625 23.4523V23.6711H107.323V7.80809H112.315V23.6711H115.538V16.5736C115.538 14.6869 116.588 13.0614 118.458 13.0614C118.876 13.0614 120.444 13.3073 120.444 15.0639V20.3173C120.444 22.3198 121.853 24.0469 124.227 24.0469C126.026 24.0469 127.249 23.2052 127.97 22.3494C128.587 23.3648 129.697 24.0469 131.178 24.0469C132.617 24.0469 133.679 23.5231 134.431 22.8861V23.6853H137.653V16.5723C137.653 14.6856 138.675 13.0602 140.546 13.0602C140.992 13.0602 142.532 13.306 142.532 15.0627V20.316C142.532 22.3185 143.942 24.0456 146.289 24.0456C147.022 24.0456 147.669 23.9015 148.217 23.6827H151.411C151.411 19.6777 151.613 18.5014 151.8 17.746C152.103 16.4114 152.633 15.2197 153.367 14.2043C154.1 13.1889 154.949 12.6651 155.913 12.6651C156.908 12.6651 157.51 13.2751 157.51 14.2043C157.51 15.5401 156.344 16.6714 153.266 17.6134C153.353 18.2955 154.058 20.038 154.806 21.083C156.186 23.0135 157.756 24.0443 159.685 24.0443C160.779 24.0443 161.772 23.7239 162.691 23.0714C164.535 21.7664 165.425 20.1255 166 18.3393L164.004 17.2659Z" fill="#369CB7"/>
<path d="M58.8929 15.4666V10.0819C58.7054 9.96483 58.1454 9.9378 57.8712 9.9378C54.3454 9.92364 52.6923 12.5362 52.6183 12.6224C52.5621 12.7099 52.5328 12.7395 52.5022 12.7395C52.4461 12.7395 52.4461 12.6224 52.4461 12.6224V10.3149H49.4102V23.6657H52.6336V18.7174C52.6336 18.1074 52.7203 16.1911 53.6847 14.8282C54.2306 14.0741 55.0381 13.3469 56.1899 13.3469V15.4666H58.8929Z" fill="#369CB7"/>
<path d="M128.896 8.86199C129.977 8.86199 130.881 7.94826 130.881 6.82989C130.881 5.73984 129.977 4.82739 128.896 4.82739C127.789 4.82739 126.91 5.74113 126.91 6.82989C126.91 7.94954 127.774 8.86199 128.896 8.86199Z" fill="#369CB7"/>
<path d="M96.8801 8.86199C97.9606 8.86199 98.8662 7.94826 98.8662 6.82989C98.8662 5.73984 97.9606 4.82739 96.8801 4.82739C95.7729 4.82739 94.894 5.74113 94.894 6.82989C94.894 7.94954 95.7729 8.86199 96.8801 8.86199Z" fill="#369CB7"/>
</svg>
