<svg width="18" height="18" viewBox="0 0 18 18" fill="none" xmlns="http://www.w3.org/2000/svg">
<path d="M17.8441 17.0332L12.946 12.0234C14.0652 10.6641 14.6249 9.09961 14.6249 7.33008C14.6249 6.33398 14.4345 5.38477 14.0537 4.48242C13.6729 3.58008 13.1624 2.80078 12.522 2.14453C11.8816 1.48828 11.1172 0.966797 10.2287 0.580078C9.34024 0.193359 8.40562 0 7.42485 0C6.12101 0 4.91524 0.325195 3.80755 0.975586C2.69985 1.62598 1.82581 2.51367 1.18543 3.63867C0.545046 4.76367 0.224854 5.99121 0.224854 7.32129C0.224854 8.65137 0.545046 9.87891 1.18543 11.0039C1.82581 12.1289 2.69985 13.0166 3.80755 13.667C4.91524 14.3174 6.12101 14.6426 7.42485 14.6426C9.22485 14.6426 10.8056 14.0391 12.1672 12.832L17.0479 17.8242C17.0941 17.8711 17.1431 17.9092 17.195 17.9385C17.247 17.9678 17.3018 17.9854 17.3595 17.9912C17.4172 17.9971 17.4749 17.9971 17.5325 17.9912C17.5902 17.9854 17.645 17.9678 17.697 17.9385C17.7489 17.9092 17.7979 17.8711 17.8441 17.8242C17.9479 17.7188 17.9999 17.5869 17.9999 17.4287C17.9999 17.2705 17.9479 17.1387 17.8441 17.0332ZM7.42485 13.5C6.31716 13.5 5.29601 13.2217 4.36139 12.665C3.42678 12.1084 2.68831 11.3555 2.14601 10.4062C1.6037 9.45703 1.33255 8.42578 1.33255 7.3125C1.33255 6.19922 1.6037 5.16797 2.14601 4.21875C2.68831 3.26953 3.42678 2.5166 4.36139 1.95996C5.29601 1.40332 6.31428 1.125 7.4162 1.125C8.51812 1.125 9.53639 1.40332 10.471 1.95996C11.4056 2.5166 12.147 3.26953 12.695 4.21875C13.2431 5.16797 13.5172 6.19922 13.5172 7.3125C13.5172 8.96484 12.9518 10.3887 11.821 11.584C10.7018 12.7676 9.34024 13.4062 7.73639 13.5H7.42485ZM10.1941 6.75H7.9787V4.5C7.9787 4.34766 7.92389 4.21582 7.81428 4.10449C7.70466 3.99316 7.57197 3.9375 7.4162 3.9375C7.26043 3.9375 7.13062 3.99316 7.02678 4.10449C6.92293 4.21582 6.87101 4.34766 6.87101 4.5V6.75H4.65562C4.49408 6.75 4.36139 6.80566 4.25755 6.91699C4.1537 7.02832 4.10178 7.16016 4.10178 7.3125C4.10178 7.46484 4.1537 7.59668 4.25755 7.70801C4.36139 7.81934 4.49408 7.875 4.65562 7.875H6.87101V10.125C6.87101 10.2773 6.92293 10.4092 7.02678 10.5205C7.13062 10.6318 7.26043 10.6875 7.4162 10.6875C7.57197 10.6875 7.70466 10.6318 7.81428 10.5205C7.92389 10.4092 7.9787 10.2773 7.9787 10.125V7.875H10.1941C10.3441 7.875 10.4739 7.81934 10.5835 7.70801C10.6931 7.59668 10.7479 7.46484 10.7479 7.3125C10.7479 7.16016 10.6931 7.02832 10.5835 6.91699C10.4739 6.80566 10.3441 6.75 10.1941 6.75Z" fill="#68C2D0"/>
</svg>
