<svg width="49" height="52" viewBox="0 0 49 52" fill="none" xmlns="http://www.w3.org/2000/svg">
<g clip-path="url(#clip0_12:1358)">
<path d="M19.4972 51.4749V47.2689C19.4972 44.7051 17.5601 42.6271 15.1705 42.6271H12.3114V40.6341C11.5207 41.2224 10.7029 41.5691 9.90888 41.5691C9.14739 41.5691 8.34378 41.2188 7.55643 40.6238H7.50764V42.6271H4.64726C2.25728 42.6271 0.32019 44.7051 0.32019 47.2689V51.4749H19.4972Z" fill="#5BA47C"/>
<path d="M19.4972 51.8187H0.320276C0.143457 51.8187 0 51.6652 0 51.4751V47.2691C0 44.5201 2.08472 42.2837 4.64734 42.2837H7.18745V40.624C7.18745 40.4339 7.33091 40.2805 7.50773 40.2805H7.5561C7.62241 40.2805 7.68663 40.3024 7.74085 40.3431C8.51568 40.9287 9.24548 41.2257 9.90855 41.2257C10.6021 41.2257 11.3494 40.9318 12.1292 40.352C12.2272 40.2791 12.3548 40.2706 12.4603 40.3301C12.5658 40.3896 12.6317 40.5064 12.6317 40.6343V42.2837H15.1706C17.7328 42.2837 19.8175 44.5201 19.8175 47.2691V51.4751C19.8175 51.6652 19.6741 51.8187 19.4972 51.8187ZM0.640553 51.1315H19.177V47.2691C19.177 44.899 17.3796 42.9709 15.1702 42.9709H12.3115C12.1346 42.9709 11.9912 42.8174 11.9912 42.6273V41.257C11.2772 41.6928 10.5787 41.9129 9.90855 41.9129C9.2484 41.9129 8.55071 41.6811 7.828 41.2221V42.6273C7.828 42.8174 7.68455 42.9709 7.50773 42.9709H4.64734C2.43794 42.9709 0.640553 44.899 0.640553 47.2691V51.1315Z" fill="white"/>
<path d="M19.4974 51.819H0.320826C0.144006 51.819 0.000549316 51.6651 0.000549316 51.4754V47.2671C0.000549316 44.5186 2.08526 42.2822 4.64748 42.2822H5.50613C5.645 42.2822 5.76844 42.3784 5.81098 42.5202C5.81223 42.5242 5.81348 42.5287 5.81473 42.5332L8.52499 46.389L9.80359 45.3556C9.91744 45.2634 10.0751 45.2634 10.1889 45.3556L11.4675 46.389L14.1782 42.5327C14.1794 42.5283 14.1807 42.5238 14.1824 42.5193C14.2249 42.378 14.3479 42.2822 14.4868 42.2822H15.1707C17.7329 42.2822 19.8176 44.5186 19.8176 47.2676V51.4754C19.8176 51.6651 19.6742 51.819 19.4974 51.819ZM0.641102 51.1318H19.1771V47.2671C19.1771 44.8975 17.3797 42.9694 15.1703 42.9694H14.6736L11.7861 47.077C11.6802 47.2286 11.4792 47.2586 11.3378 47.1445L9.99626 46.0602L8.65427 47.1445C8.51331 47.2586 8.31272 47.2282 8.20596 47.077L5.31889 42.9694H4.64748C2.43807 42.9694 0.640685 44.8975 0.640685 47.2671V51.1318H0.641102Z" fill="white"/>
<path fill-rule="evenodd" clip-rule="evenodd" d="M17.7079 29.3391C16.7896 29.1216 15.8809 29.7435 15.6782 30.7285C15.4751 31.7136 16.0552 32.6884 16.9735 32.9058C17.8918 33.1232 18.8005 32.5014 19.0032 31.5163C19.2059 30.5313 18.6258 29.5565 17.7079 29.3391Z" fill="#5BA47C"/>
<path d="M17.3391 33.2908C16.2236 33.2908 15.3161 32.3174 15.3161 31.1207C15.3161 29.9245 16.2236 28.951 17.3391 28.951C18.4547 28.951 19.3621 29.9245 19.3621 31.1207C19.3621 32.3174 18.4547 33.2908 17.3391 33.2908ZM17.3391 29.6382C16.5772 29.6382 15.9567 30.3034 15.9567 31.1207C15.9567 31.9385 16.5768 32.6037 17.3391 32.6037C18.1015 32.6037 18.7216 31.9385 18.7216 31.1207C18.7216 30.3034 18.1015 29.6382 17.3391 29.6382Z" fill="white"/>
<path d="M17.4567 30.2342C17.4567 34.706 13.442 41.5693 9.90891 41.5693C6.53684 41.5693 2.36157 34.706 2.36157 30.2342C2.36157 25.7629 5.74074 22.138 9.90891 22.138C14.0775 22.138 17.4567 25.7629 17.4567 30.2342Z" fill="#5BA47C"/>
<path d="M9.90888 41.9131C8.23369 41.9131 6.30119 40.4046 4.60681 37.7746C3.02419 35.3173 2.04126 32.4283 2.04126 30.2344C2.04126 25.581 5.57055 21.7946 9.90888 21.7946C14.2476 21.7946 17.7773 25.5806 17.7773 30.2344C17.7773 32.4529 16.8173 35.341 15.2727 37.7724C13.6004 40.4042 11.6454 41.9131 9.90888 41.9131ZM9.90888 22.4818C5.92378 22.4818 2.6814 25.9599 2.6814 30.2349C2.6814 34.4114 6.71905 41.2264 9.90888 41.2264C11.4081 41.2264 13.2151 39.7904 14.7431 37.3859C16.2193 35.0618 17.1364 32.3222 17.1364 30.2349C17.1364 25.9599 13.8944 22.4818 9.90888 22.4818Z" fill="white"/>
<path d="M7.98105 30.1431C7.98105 30.5797 7.65118 30.9336 7.24458 30.9336C6.83756 30.9336 6.50769 30.5797 6.50769 30.1431C6.50769 29.7069 6.83756 29.3531 7.24458 29.3531C7.65118 29.3531 7.98105 29.7069 7.98105 30.1431Z" fill="white"/>
<path d="M13.3109 30.1431C13.3109 30.5797 12.981 30.9336 12.574 30.9336C12.167 30.9336 11.8376 30.5797 11.8376 30.1431C11.8376 29.7069 12.1674 29.3531 12.574 29.3531C12.981 29.3531 13.3109 29.7069 13.3109 30.1431Z" fill="white"/>
<path d="M9.99616 20.3511C5.6816 20.3511 2.18442 23.938 2.18442 28.3628C2.18442 28.8312 2.26324 29.1801 2.41003 29.6163C2.47926 29.8217 3.59772 29.1649 3.69322 29.0934C4.16946 28.7332 4.55855 28.2461 4.84963 27.707C4.96974 27.4824 5.06982 27.2547 5.15073 27.0266C5.40803 26.2987 6.1078 24.2735 6.81842 24.4324C7.7709 24.6453 8.85059 24.7656 9.99616 24.7656C11.1413 24.7656 12.2214 24.6453 13.1739 24.4324C13.8841 24.2735 14.5839 26.2987 14.8416 27.0266C14.9221 27.2547 15.0226 27.4829 15.1427 27.707C15.6235 28.5986 16.435 29.4477 17.4226 29.602C17.4251 29.551 17.4851 29.5336 17.5302 29.5161C17.8534 29.39 17.8079 28.6411 17.8079 28.3628C17.8083 23.938 14.3107 20.3511 9.99616 20.3511Z" fill="#5BA47C"/>
<path d="M2.47061 29.9947C2.42558 29.9947 2.38554 29.9893 2.35009 29.9777C2.23625 29.9392 2.14825 29.8497 2.10905 29.7325C1.96226 29.2968 1.86426 28.8969 1.86426 28.3627C1.86426 23.7558 5.51241 20.0074 9.99669 20.0074C14.481 20.0074 18.1291 23.7558 18.1291 28.3627L18.13 28.4517C18.1354 28.8611 18.1458 29.618 17.6633 29.8296C17.6521 29.8435 17.6395 29.8564 17.6262 29.8681C17.5566 29.9294 17.4665 29.9558 17.3768 29.9423C16.4206 29.7925 15.4818 29.0212 14.8659 27.8791C14.7391 27.6429 14.6303 27.3973 14.5423 27.1486L14.526 27.1021C13.7091 24.7906 13.3112 24.7521 13.2399 24.7691C12.2286 24.995 11.1373 25.1095 9.99669 25.1095C8.85571 25.1095 7.76435 24.9946 6.75389 24.7691C6.68217 24.7539 6.28391 24.7906 5.46695 27.1025L5.45069 27.1486C5.36269 27.3969 5.25427 27.6425 5.12749 27.8787C4.79846 28.4884 4.36642 29.0056 3.87766 29.3742C3.86807 29.3814 2.94269 29.9947 2.47061 29.9947ZM9.99628 20.6946C5.86563 20.6946 2.50481 24.1343 2.50481 28.3627C2.50481 28.7108 2.55277 28.9783 2.63784 29.2682C2.91099 29.1613 3.39641 28.8919 3.51151 28.8105C3.92228 28.5005 4.28968 28.0585 4.57243 27.5351C4.68169 27.3316 4.77552 27.1195 4.85184 26.9048L4.86768 26.8592C5.41441 25.3126 6.03286 23.9048 6.88401 24.0963C7.85193 24.3128 8.8995 24.4224 9.99628 24.4224C11.0935 24.4224 12.1406 24.3128 13.109 24.0963C13.9564 23.9044 14.5786 25.3122 15.1249 26.8587L15.1411 26.9048C15.217 27.1195 15.3109 27.3316 15.4205 27.5356C15.9068 28.4379 16.612 29.0628 17.3289 29.2346C17.3539 29.2208 17.381 29.2082 17.4114 29.197C17.4473 29.1572 17.4965 28.9904 17.4894 28.4616L17.4882 28.3627C17.4882 24.1343 14.1273 20.6946 9.99628 20.6946Z" fill="white"/>
<path d="M5.491 42.6385L7.03191 41.3926L10.0045 45.6241L8.46356 46.87L5.491 42.6385Z" fill="#5BA47C"/>
<path d="M8.46204 47.214C8.44703 47.214 8.43202 47.2131 8.41742 47.2104C8.33318 47.1979 8.25728 47.15 8.20599 47.0771L5.23342 42.846C5.18213 42.7731 5.16003 42.6818 5.17212 42.5915C5.1838 42.5015 5.22842 42.4197 5.29639 42.3651L6.83731 41.1192C6.97826 41.0047 7.17927 41.0351 7.28603 41.1868L10.2586 45.4179C10.3649 45.5695 10.3366 45.7851 10.1952 45.8992L8.65471 47.1446C8.59883 47.1898 8.53085 47.214 8.46204 47.214ZM5.93778 42.7064L8.52501 46.3891L9.55382 45.557L6.967 41.8743L5.93778 42.7064Z" fill="white"/>
<path d="M11.5328 46.8696L9.99149 45.6241L12.9645 41.3926L14.5054 42.6385L11.5328 46.8696Z" fill="#5BA47C"/>
<path d="M11.5309 47.214C11.4637 47.214 11.3958 47.1917 11.3382 47.1447L9.79731 45.8992C9.72933 45.8447 9.68471 45.7632 9.67304 45.6729C9.66094 45.5825 9.68304 45.4908 9.73434 45.4183L12.7069 41.1872C12.8132 41.0356 13.0143 41.0052 13.1552 41.1197L14.6961 42.3656C14.7641 42.4202 14.8087 42.5016 14.8208 42.5919C14.8329 42.6823 14.8104 42.7736 14.7595 42.8465L11.7869 47.0776C11.724 47.1666 11.6276 47.214 11.5309 47.214ZM10.4387 45.557L11.4679 46.3891L14.0547 42.7069L13.0255 41.8748L10.4387 45.557Z" fill="white"/>
<path d="M3.91232 51.8189C3.7355 51.8189 3.59204 51.665 3.59204 51.4753V48.1506C3.59204 47.9609 3.7355 47.807 3.91232 47.807C4.08914 47.807 4.23259 47.9609 4.23259 48.1506V51.4753C4.23259 51.665 4.08914 51.8189 3.91232 51.8189Z" fill="white"/>
<path d="M16.0802 51.8189C15.9034 51.8189 15.7599 51.665 15.7599 51.4753V48.1506C15.7599 47.9609 15.9034 47.807 16.0802 47.807C16.257 47.807 16.4005 47.9609 16.4005 48.1506V51.4753C16.4005 51.665 16.257 51.8189 16.0802 51.8189Z" fill="white"/>
<path d="M3.52449 21.9237C4.8056 23.6541 6.33817 25.499 8.18935 26.0635C11.1707 26.973 16.4473 25.8389 16.4473 21.2357C16.4473 18.2921 14.1478 14.7342 9.85537 17.443C4.53495 20.8008 1.44687 14.3464 1.44687 17.29C1.44687 18.2205 1.79634 19.1483 2.25507 19.9925L3.52449 21.9237Z" fill="#5BA47C"/>
<path d="M10.2752 26.6951C9.48829 26.6951 8.73932 26.5882 8.10168 26.3941C6.19879 25.8134 4.65663 24.0052 3.27335 22.137C3.27001 22.1321 3.26626 22.1267 3.26251 22.1214L1.99308 20.1906C1.98766 20.1825 1.98265 20.174 1.97806 20.1655C1.40465 19.1107 1.1265 18.1699 1.1265 17.2899C1.1265 16.9034 1.1682 16.4341 1.49556 16.2355C1.88215 16.0002 2.33462 16.2914 3.01938 16.7321C4.3768 17.6058 6.65001 19.0673 9.69305 17.1472C11.9992 15.692 13.5998 16.0718 14.536 16.6462C16.0781 17.5923 16.7679 19.6332 16.7679 21.2356C16.7679 22.8608 16.1349 24.2329 14.9363 25.2036C13.6427 26.2513 11.8804 26.6951 10.2752 26.6951ZM3.78087 21.7174C5.09575 23.4925 6.55076 25.2068 8.27683 25.7329C10.0613 26.2773 12.7895 26.0814 14.5502 24.6552C15.5965 23.807 16.1274 22.6564 16.1274 21.2351C16.1274 19.8309 15.5368 18.0518 14.2178 17.2425C13.0856 16.5473 11.6331 16.7195 10.0179 17.7391C6.64668 19.8662 4.07237 18.2106 2.68993 17.3208C2.36632 17.1128 1.96847 16.8569 1.81667 16.8412C1.79958 16.8851 1.76705 17.005 1.76705 17.2899C1.76705 18.0415 2.01518 18.8651 2.52479 19.8067L3.78087 21.7174Z" fill="white"/>
<path d="M9.90889 37.1451C8.80127 37.1451 8.00183 36.611 7.53393 35.5566C7.45803 35.3852 7.52601 35.1803 7.68573 35.0989C7.84503 35.017 8.03645 35.09 8.11235 35.2613C8.47474 36.0777 9.04565 36.458 9.90889 36.458C10.9986 36.458 11.5532 35.6934 11.6942 35.2886C11.7563 35.111 11.9411 35.0206 12.1066 35.0873C12.2722 35.1539 12.3564 35.3521 12.2943 35.5297C12.0228 36.3077 11.1604 37.1451 9.90889 37.1451Z" fill="white"/>
<path d="M47.8238 47.2689V51.4749H28.6472V47.2689C28.6472 44.7051 30.5839 42.6271 32.9739 42.6271H35.8343V40.6238H35.883C36.6704 41.2188 37.474 41.5691 38.2355 41.5691C39.0295 41.5691 39.8477 41.2224 40.6384 40.6341V42.6271H43.4971C45.8867 42.6271 47.8238 44.7051 47.8238 47.2689Z" fill="#5BA47C"/>
<path d="M47.8243 51.8187H28.6473C28.4705 51.8187 28.327 51.6652 28.327 51.4751V47.2691C28.327 44.5201 30.4117 42.2837 32.974 42.2837H35.5141V40.624C35.5141 40.4339 35.6575 40.2805 35.8343 40.2805H35.8827C35.949 40.2805 36.0132 40.3024 36.0675 40.3431C36.8423 40.9287 37.5717 41.2257 38.2352 41.2257C38.9291 41.2257 39.676 40.9318 40.4554 40.352C40.5534 40.2791 40.681 40.2711 40.7865 40.3301C40.892 40.3896 40.9583 40.5068 40.9583 40.6343V42.2837H43.4968C46.0594 42.2837 48.1441 44.5201 48.1441 47.2691V51.4751C48.1445 51.6652 48.0011 51.8187 47.8243 51.8187ZM28.9676 51.1315H47.5036V47.2691C47.5036 44.899 45.7062 42.9709 43.4968 42.9709H40.6381C40.4612 42.9709 40.3178 42.8174 40.3178 42.6273V41.257C39.6038 41.6928 38.9057 41.9129 38.2356 41.9129C37.575 41.9129 36.8773 41.6811 36.1546 41.2221V42.6273C36.1546 42.8174 36.0112 42.9709 35.8343 42.9709H32.974C30.765 42.9709 28.9676 44.899 28.9676 47.2691V51.1315Z" fill="white"/>
<path d="M47.8243 51.819H28.6473C28.4705 51.819 28.327 51.6651 28.327 51.4754V47.2671C28.327 44.5186 30.4117 42.2822 32.974 42.2822H33.8326C33.9711 42.2822 34.0941 42.378 34.137 42.5193C34.1387 42.5238 34.14 42.5283 34.1408 42.5328L36.8515 46.389L38.1301 45.3551C38.2439 45.263 38.4016 45.263 38.5154 45.3551L39.794 46.389L42.5043 42.5332C42.5055 42.5287 42.5068 42.5243 42.508 42.5198C42.5505 42.378 42.674 42.2818 42.8129 42.2818H43.4972C46.0594 42.2818 48.1441 44.5181 48.1441 47.2671V51.475C48.1445 51.6651 48.0011 51.819 47.8243 51.819ZM28.9676 51.1318H47.5036V47.2671C47.5036 44.8975 45.7062 42.9694 43.4972 42.9694H43.0001L40.113 47.077C40.0067 47.2287 39.8061 47.2586 39.6647 47.1446L38.3227 46.0602L36.9812 47.1446C36.8402 47.2586 36.6392 47.2282 36.5329 47.077L33.6454 42.9694H32.974C30.7645 42.9694 28.9672 44.8975 28.9672 47.2671V51.1318H28.9676Z" fill="white"/>
<path fill-rule="evenodd" clip-rule="evenodd" d="M32.4134 30.5276C32.1073 29.5738 31.1386 29.0665 30.2495 29.3944C29.3604 29.7223 28.8875 30.7615 29.1931 31.7157C29.4992 32.6695 30.4676 33.1768 31.3571 32.8484C32.2462 32.5205 32.7191 31.4813 32.4134 30.5276Z" fill="#5BA47C"/>
<path d="M30.8058 33.2908C29.6903 33.2908 28.7828 32.3174 28.7828 31.1207C28.7828 29.9245 29.6903 28.951 30.8058 28.951C31.9213 28.951 32.8288 29.9245 32.8288 31.1207C32.8284 32.3174 31.9209 33.2908 30.8058 33.2908ZM30.8058 29.6382C30.0435 29.6382 29.4234 30.3034 29.4234 31.1207C29.4234 31.9385 30.0435 32.6037 30.8058 32.6037C31.5677 32.6037 32.1882 31.9385 32.1882 31.1207C32.1878 30.3034 31.5677 29.6382 30.8058 29.6382Z" fill="white"/>
<path d="M45.7831 30.2342C45.7831 34.706 41.7684 41.5693 38.2354 41.5693C34.8629 41.5693 30.688 34.706 30.688 30.2342C30.688 25.7629 34.0672 22.138 38.2354 22.138C42.404 22.138 45.7831 25.7629 45.7831 30.2342Z" fill="#5BA47C"/>
<path d="M38.236 41.9131C36.5608 41.9131 34.6283 40.4046 32.9339 37.7746C31.3513 35.3173 30.3679 32.4283 30.3679 30.2344C30.3679 25.581 33.8976 21.7946 38.236 21.7946C42.5743 21.7946 46.104 25.5806 46.104 30.2344C46.104 32.4529 45.1444 35.341 43.5993 37.7724C41.9271 40.4042 39.972 41.9131 38.236 41.9131ZM38.236 22.4818C34.2509 22.4818 31.0085 25.9599 31.0085 30.2349C31.0085 34.4114 35.0461 41.2264 38.236 41.2264C39.7348 41.2264 41.5421 39.7904 43.0701 37.3859C44.5464 35.0618 45.4634 32.3222 45.4634 30.2349C45.463 25.9599 42.2206 22.4818 38.236 22.4818Z" fill="white"/>
<path d="M36.3081 30.1431C36.3081 30.5797 35.9782 30.9336 35.5712 30.9336C35.1646 30.9336 34.8347 30.5797 34.8347 30.1431C34.8347 29.7069 35.1646 29.3531 35.5712 29.3531C35.9782 29.3531 36.3081 29.7069 36.3081 30.1431Z" fill="white"/>
<path d="M41.6371 30.1431C41.6371 30.5797 41.3073 30.9336 40.9007 30.9336C40.4937 30.9336 40.1638 30.5797 40.1638 30.1431C40.1638 29.7069 40.4937 29.3531 40.9007 29.3531C41.3073 29.3531 41.6371 29.7069 41.6371 30.1431Z" fill="white"/>
<path d="M38.3225 20.3511C34.0083 20.3511 30.5107 23.938 30.5107 28.3628C30.5107 28.8312 30.5896 29.1801 30.7364 29.6163C30.8056 29.8217 31.924 29.1649 32.0195 29.0934C32.4958 28.7332 32.8849 28.2461 33.176 27.707C33.2961 27.4824 33.3962 27.2547 33.4771 27.0266C33.7344 26.2987 34.4341 24.2735 35.1447 24.4324C36.0972 24.6453 37.1769 24.7656 38.3225 24.7656C39.4681 24.7656 40.5477 24.6453 41.5002 24.4324C42.2104 24.2735 42.9102 26.2987 43.1679 27.0266C43.2484 27.2547 43.3489 27.4829 43.469 27.707C43.9498 28.5986 44.7614 29.4477 45.7489 29.602C45.7514 29.551 45.8115 29.5336 45.8565 29.5161C46.1797 29.39 46.1342 28.6411 46.1342 28.3628C46.1346 23.938 42.637 20.3511 38.3225 20.3511Z" fill="#5BA47C"/>
<path d="M30.797 29.9951C30.7524 29.9951 30.712 29.9898 30.6765 29.9777C30.5627 29.9392 30.4751 29.8497 30.4355 29.733C30.2887 29.2968 30.1907 28.8969 30.1907 28.3632C30.1907 23.7558 33.8388 20.0074 38.3231 20.0074C42.807 20.0074 46.4551 23.7558 46.4551 28.3632L46.456 28.4522C46.4618 28.8615 46.4722 29.618 45.9897 29.8296C45.9785 29.8435 45.966 29.8564 45.9526 29.8681C45.883 29.9298 45.7925 29.9558 45.7032 29.9423C44.7466 29.7929 43.8083 29.0212 43.1923 27.8796C43.0655 27.6429 42.9571 27.3973 42.8687 27.149L42.8524 27.103C42.0355 24.791 41.6364 24.7526 41.5663 24.7696C40.555 24.9955 39.4637 25.11 38.3231 25.11C37.1821 25.11 36.0908 24.9955 35.0799 24.7696C35.0086 24.7534 34.6107 24.7906 33.7938 27.1025L33.7771 27.149C33.6891 27.3978 33.5807 27.6434 33.4539 27.8791C33.1249 28.4893 32.6928 29.006 32.2041 29.3751C32.1945 29.3813 31.2691 29.9951 30.797 29.9951ZM38.3231 20.6946C34.192 20.6946 30.8312 24.1343 30.8312 28.3627C30.8312 28.7108 30.8792 28.9783 30.9647 29.2682C31.2378 29.1612 31.7232 28.8919 31.8379 28.8105C32.2487 28.5005 32.6165 28.0585 32.8993 27.5351C33.0085 27.3316 33.1024 27.1195 33.1783 26.9048L33.1945 26.8587C33.7412 25.3122 34.3597 23.9044 35.2104 24.0963C36.1788 24.3128 37.2259 24.4224 38.3231 24.4224C39.4203 24.4224 40.4675 24.3128 41.4354 24.0963C42.284 23.9057 42.905 25.3122 43.4517 26.8592L43.4675 26.9048C43.5434 27.1195 43.6377 27.3316 43.7474 27.5356C44.2336 28.4383 44.9384 29.0628 45.6557 29.2346C45.6799 29.2207 45.707 29.2087 45.737 29.197C45.7737 29.1572 45.8229 28.9904 45.8158 28.462L45.8146 28.3627C45.8146 24.1343 42.4538 20.6946 38.3231 20.6946Z" fill="white"/>
<path d="M33.8174 42.6371L35.3584 41.3912L38.3309 45.6223L36.79 46.8682L33.8174 42.6371Z" fill="#5BA47C"/>
<path d="M36.7885 47.214C36.6913 47.214 36.5954 47.167 36.5324 47.0771L33.5598 42.846C33.509 42.7731 33.4864 42.6818 33.4985 42.5915C33.5106 42.5015 33.5552 42.4197 33.6232 42.3651L35.1641 41.1192C35.3047 41.0047 35.5061 41.0351 35.6124 41.1868L38.585 45.4179C38.6359 45.4908 38.6584 45.5825 38.6463 45.6724C38.6342 45.7628 38.5896 45.8442 38.5216 45.8992L36.9807 47.1446C36.9236 47.1912 36.8556 47.214 36.7885 47.214ZM34.2642 42.7069L36.8514 46.3891L37.8806 45.557L35.2938 41.8748L34.2642 42.7069Z" fill="white"/>
<path d="M39.859 46.8688L38.3185 45.6229L41.2911 41.3918L42.832 42.6377L39.859 46.8688Z" fill="#5BA47C"/>
<path d="M39.8573 47.2141C39.7902 47.2141 39.7222 47.1918 39.6651 47.1448L38.1242 45.8994C38.0562 45.8448 38.0116 45.7634 37.9995 45.673C37.9874 45.5826 38.0099 45.4909 38.0608 45.4185L41.0334 41.1874C41.1397 41.0357 41.3407 41.0053 41.4821 41.1198L43.023 42.3657C43.091 42.4203 43.1356 42.5017 43.1473 42.5921C43.1594 42.6824 43.1373 42.7737 43.0864 42.8466L40.1134 47.0777C40.0504 47.1667 39.9545 47.2141 39.8573 47.2141ZM38.7651 45.5571L39.7948 46.3892L42.3816 42.707L41.3524 41.875L38.7651 45.5571Z" fill="white"/>
<path d="M32.239 51.8191C32.0622 51.8191 31.9187 51.6652 31.9187 51.4756V48.1508C31.9187 47.9611 32.0622 47.8073 32.239 47.8073C32.4158 47.8073 32.5592 47.9611 32.5592 48.1508V51.4756C32.5592 51.6652 32.4158 51.8191 32.239 51.8191Z" fill="white"/>
<path d="M44.4065 51.8191C44.2296 51.8191 44.0862 51.6652 44.0862 51.4756V48.1508C44.0862 47.9611 44.2296 47.8073 44.4065 47.8073C44.5833 47.8073 44.7267 47.9611 44.7267 48.1508V51.4756C44.7267 51.6652 44.5833 51.8191 44.4065 51.8191Z" fill="white"/>
<path d="M38.2352 37.1453C37.1276 37.1453 36.3281 36.6112 35.8606 35.5568C35.7847 35.3854 35.8523 35.1805 36.012 35.0991C36.1717 35.0177 36.3632 35.0902 36.4391 35.2615C36.801 36.0779 37.3719 36.4582 38.2352 36.4582C39.3249 36.4582 39.8795 35.6932 40.0209 35.2888C40.083 35.1112 40.2669 35.0208 40.4333 35.0875C40.5989 35.1541 40.6827 35.3523 40.6206 35.5299C40.3491 36.3079 39.4867 37.1453 38.2352 37.1453Z" fill="white"/>
<path fill-rule="evenodd" clip-rule="evenodd" d="M31.7958 31.3778C30.8658 31.2292 29.9996 31.9177 29.8612 32.9158C29.7227 33.9134 30.3645 34.8425 31.2949 34.9906C32.2249 35.1391 33.0911 34.4506 33.2291 33.453C33.3675 32.4554 32.7257 31.5263 31.7958 31.3778Z" fill="#5BA47C"/>
<path fill-rule="evenodd" clip-rule="evenodd" d="M46.605 21.6764C46.605 21.6764 42.9568 25.7849 38.4563 25.7849C33.9557 25.7849 32.3351 23.9454 32.3351 21.6764C32.3351 19.407 33.9557 17.567 38.4563 17.567C42.9568 17.5675 46.605 21.6764 46.605 21.6764Z" fill="#5BA47C"/>
<path d="M38.4564 26.1288C32.8516 26.1288 32.015 23.3391 32.015 21.6763C32.015 20.0135 32.8516 17.2238 38.4564 17.2238C43.0412 17.2238 46.6843 21.2674 46.837 21.4396C46.955 21.5725 46.955 21.781 46.837 21.9134C46.6843 22.0856 43.0412 26.1288 38.4564 26.1288ZM38.4564 17.9109C34.6615 17.9109 32.6556 19.2131 32.6556 21.6763C32.6556 24.1394 34.6615 25.4412 38.4564 25.4412C42.1496 25.4412 45.2961 22.5366 46.1472 21.6763C45.2952 20.816 42.1438 17.9109 38.4564 17.9109Z" fill="white"/>
<path d="M15.9125 28.7513H32.1115V48.6403H15.9125V28.7513Z" fill="#5BA47C"/>
<path d="M32.1116 48.9838H15.9126C15.7358 48.9838 15.5923 48.8304 15.5923 48.6403V28.7513C15.5923 28.5612 15.7358 28.4077 15.9126 28.4077H32.1116C32.2884 28.4077 32.4318 28.5612 32.4318 28.7513V48.6403C32.4318 48.8304 32.2884 48.9838 32.1116 48.9838ZM16.2329 48.2967H31.7913V29.0949H16.2329V48.2967Z" fill="white"/>
<path d="M33.7074 51.4754V49.3706C33.7074 46.8068 31.7707 44.7288 29.3808 44.7288H26.522V42.7358C25.7314 43.3237 24.9132 43.6708 24.1191 43.6708C23.3577 43.6708 22.554 43.3205 21.7663 42.7251H21.7179V44.7288H18.8575C16.468 44.7288 14.5305 46.8068 14.5305 49.3706V51.4754H33.7074Z" fill="#5BA47C"/>
<path d="M33.7075 51.8191H14.5309C14.3541 51.8191 14.2107 51.6652 14.2107 51.4755V49.3702C14.2107 46.6212 16.2954 44.3849 18.8576 44.3849H21.3977V42.7252C21.3977 42.5351 21.5411 42.3817 21.718 42.3817H21.7663C21.8327 42.3817 21.8969 42.4036 21.9511 42.4443C22.7259 43.0299 23.4557 43.3269 24.1192 43.3269C24.8127 43.3269 25.5596 43.033 26.3395 42.4532C26.4379 42.3803 26.5651 42.3723 26.6706 42.4313C26.7761 42.4908 26.8424 42.608 26.8424 42.7355V44.3849H29.3808C31.9435 44.3849 34.0282 46.6217 34.0282 49.3702V51.4755C34.0278 51.6652 33.8843 51.8191 33.7075 51.8191ZM14.8512 51.1319H33.3872V49.3702C33.3872 47.0002 31.5898 45.0721 29.3804 45.0721H26.5217C26.3449 45.0721 26.2014 44.9186 26.2014 44.7285V43.3587C25.4875 43.794 24.7889 44.0141 24.1188 44.0141C23.4586 44.0141 22.7605 43.7823 22.0382 43.3233V44.7285C22.0382 44.9186 21.8948 45.0721 21.718 45.0721H18.8576C16.6482 45.0721 14.8508 47.0002 14.8508 49.3702V51.1319H14.8512Z" fill="white"/>
<path d="M33.7075 51.8189H14.5309C14.3541 51.8189 14.2107 51.665 14.2107 51.4753V49.3687C14.2107 46.6197 16.2954 44.3834 18.8576 44.3834H19.7162C19.8547 44.3834 19.9777 44.4791 20.0207 44.6205C20.0223 44.6249 20.0236 44.6294 20.0248 44.6339L22.7351 48.4901L24.0137 47.4567C24.1276 47.3645 24.2852 47.3645 24.399 47.4567L25.6781 48.4905L28.3883 44.6339C28.3896 44.6294 28.3908 44.6249 28.3921 44.6205C28.435 44.4791 28.5576 44.3834 28.6965 44.3834H29.3804C31.943 44.3834 34.0278 46.6197 34.0278 49.3687V51.4753C34.0278 51.665 33.8847 51.8189 33.7075 51.8189ZM14.8512 51.1317H33.3872V49.3687C33.3872 46.9986 31.5898 45.0705 29.3804 45.0705H28.8837L25.9967 49.1786C25.8907 49.3298 25.6897 49.3602 25.5484 49.2461L24.2064 48.1613L22.8648 49.2461C22.723 49.3602 22.5224 49.3298 22.4161 49.1786L19.5294 45.0705H18.8576C16.6482 45.0705 14.8508 46.9986 14.8508 49.3687V51.1317H14.8512Z" fill="white"/>
<path d="M31.6668 32.3359C31.6668 36.8076 27.6525 43.671 24.1194 43.671C20.7469 43.671 16.5717 36.8072 16.5717 32.3359C16.5717 27.8641 19.9508 24.2392 24.1194 24.2392C28.2876 24.2392 31.6668 27.8646 31.6668 32.3359Z" fill="#5BA47C"/>
<path d="M24.1196 44.0147C22.444 44.0147 20.5119 42.5062 18.8175 39.8757C17.2349 37.4189 16.2516 34.5298 16.2516 32.336C16.2516 27.6822 19.7809 23.8958 24.1196 23.8958C28.4579 23.8958 31.9872 27.6822 31.9872 32.336C31.9872 34.554 31.0276 37.4426 29.483 39.874C27.8111 42.5053 25.8561 44.0147 24.1196 44.0147ZM24.1196 24.5829C20.1345 24.5829 16.8921 28.0611 16.8921 32.336C16.8921 36.5125 20.9298 43.3275 24.1196 43.3275C25.6184 43.3275 27.4254 41.8915 28.9533 39.487C30.4296 37.163 31.3467 34.4234 31.3467 32.336C31.3467 28.0611 28.1047 24.5829 24.1196 24.5829Z" fill="white"/>
<path d="M22.1912 32.2446C22.1912 32.6813 21.8613 33.0347 21.4547 33.0347C21.0477 33.0347 20.7178 32.6808 20.7178 32.2446C20.7178 31.808 21.0477 31.4542 21.4547 31.4542C21.8613 31.4542 22.1912 31.808 22.1912 32.2446Z" fill="white"/>
<path d="M27.5206 32.2446C27.5206 32.6808 27.1908 33.0347 26.7837 33.0347C26.3771 33.0347 26.0473 32.6808 26.0473 32.2446C26.0473 31.808 26.3771 31.4542 26.7837 31.4542C27.1908 31.4542 27.5206 31.808 27.5206 32.2446Z" fill="white"/>
<path d="M19.7014 44.7388L21.2423 43.4929L24.2153 47.724L22.6743 48.9699L19.7014 44.7388Z" fill="#5BA47C"/>
<path d="M22.6721 49.3153C22.5749 49.3153 22.479 49.2684 22.416 49.1789L19.4435 44.9474C19.3922 44.8749 19.3701 44.7832 19.3822 44.6928C19.3938 44.6029 19.4385 44.521 19.5064 44.4665L21.0474 43.221C21.1883 43.1065 21.3893 43.1369 21.4961 43.2886L24.4691 47.5197C24.5199 47.5926 24.542 47.6843 24.5304 47.7742C24.5183 47.8646 24.4737 47.946 24.4057 48.0006L22.8648 49.2464C22.8072 49.293 22.7392 49.3153 22.6721 49.3153ZM20.1478 44.8082L22.7351 48.4909L23.7643 47.6588L21.1771 43.9762L20.1478 44.8082Z" fill="white"/>
<path d="M25.7425 48.9706L24.2016 47.7247L27.1746 43.4937L28.7151 44.7391L25.7425 48.9706Z" fill="#5BA47C"/>
<path d="M25.741 49.3153C25.6739 49.3153 25.6059 49.293 25.5483 49.2464L24.0074 48.0006C23.9394 47.946 23.8948 47.8646 23.8831 47.7742C23.8711 47.6838 23.8932 47.5921 23.9445 47.5197L26.917 43.2886C27.0233 43.1369 27.2248 43.1065 27.3657 43.221L28.9066 44.4665C28.9746 44.521 29.0192 44.6029 29.0313 44.6928C29.043 44.7832 29.0209 44.8749 28.97 44.9474L25.9971 49.1789C25.9341 49.2684 25.8382 49.3153 25.741 49.3153ZM24.6488 47.6588L25.678 48.4909L28.2653 44.8082L27.236 43.9762L24.6488 47.6588Z" fill="white"/>
<path d="M24.1192 39.2471C23.0112 39.2471 22.2121 38.7125 21.7446 37.6585C21.6687 37.4872 21.7363 37.2823 21.896 37.2004C22.0562 37.119 22.2472 37.1919 22.3231 37.3633C22.685 38.1797 23.2559 38.56 24.1192 38.56C25.2089 38.56 25.7635 37.795 25.9045 37.3906C25.9662 37.213 26.1514 37.1226 26.3169 37.1893C26.4825 37.2559 26.5667 37.4536 26.5046 37.6317C26.2331 38.4096 25.3707 39.2471 24.1192 39.2471Z" fill="white"/>
<path d="M32.7091 29.3684C32.7091 30.1978 32.6086 31.0022 32.418 31.7676C30.4851 30.7678 28.646 29.5402 26.9425 28.1525C26.4429 27.7463 25.9508 27.3231 25.4808 26.8744C24.904 26.3318 24.3586 25.7466 23.8665 25.1127C22.7964 23.7304 22.0107 22.1423 21.3456 20.488C22.185 20.1968 23.0808 20.0397 24.0112 20.0397C26.4992 20.0397 28.7436 21.1608 30.3296 22.9583C31.8054 24.6292 32.7091 26.8852 32.7091 29.3684Z" fill="#5BA47C"/>
<path d="M32.4182 32.1113C32.3706 32.1113 32.3235 32.0997 32.2793 32.0773C30.3739 31.0913 28.5131 29.8633 26.7491 28.4264C26.1861 27.9688 25.7019 27.5456 25.2682 27.1313C24.6494 26.5489 24.0947 25.9436 23.6206 25.333C22.661 24.0929 21.8444 22.5969 21.0521 20.6246C21.0162 20.5355 21.0171 20.4349 21.0542 20.3467C21.0913 20.2586 21.1614 20.1915 21.2473 20.1615C22.1359 19.8529 23.0659 19.6963 24.0113 19.6963C26.5143 19.6963 28.8405 20.7708 30.5624 22.7222C32.1533 24.5233 33.0295 26.8835 33.0295 29.3686C33.0295 30.2136 32.9282 31.0511 32.728 31.8559C32.7034 31.9552 32.6388 32.037 32.552 32.08C32.5095 32.101 32.464 32.1113 32.4182 32.1113ZM21.7844 20.706C22.5067 22.4426 23.2515 23.7802 24.1135 24.8937C24.5655 25.4766 25.0968 26.0563 25.6923 26.6169C26.1152 27.0204 26.5869 27.4324 27.1365 27.8793C28.7562 29.1986 30.4585 30.3384 32.2009 31.2707C32.326 30.6502 32.389 30.0123 32.389 29.369C32.389 27.0607 31.5753 24.8682 30.0978 23.1951C28.4981 21.3824 26.3367 20.3839 24.0117 20.3839C23.2532 20.3834 22.5054 20.4917 21.7844 20.706Z" fill="white"/>
<path d="M30.3294 22.9583C28.8331 24.4216 27.2051 25.7162 25.4811 26.8744C22.4239 28.93 19.0714 30.5517 15.6405 31.9023C15.4282 31.0966 15.3152 30.2466 15.3152 29.3684C15.3152 25.2138 17.847 21.6936 21.3458 20.488C22.1849 20.1968 23.0807 20.0397 24.0111 20.0397C26.499 20.0397 28.7435 21.1613 30.3294 22.9583Z" fill="#5BA47C"/>
<path d="M15.6408 32.246C15.5907 32.246 15.5407 32.2334 15.4952 32.2084C15.4156 32.165 15.3568 32.088 15.3326 31.9959C15.1086 31.1455 14.9948 30.2615 14.9948 29.3686C14.9948 25.1505 17.5078 21.4499 21.2477 20.1615C22.1355 19.8529 23.0655 19.6963 24.0113 19.6963C26.5139 19.6963 28.8401 20.7713 30.5624 22.7222C30.6212 22.7893 30.6529 22.8792 30.6495 22.9709C30.6462 23.0631 30.6091 23.1503 30.5453 23.2125C29.1028 24.6235 27.456 25.9535 25.6506 27.1662C22.8445 29.0527 19.6063 30.7075 15.7509 32.2249C15.7154 32.2393 15.6783 32.246 15.6408 32.246ZM24.0113 20.3834C23.1331 20.3834 22.2694 20.5284 21.4445 20.8151C17.9698 22.0122 15.6358 25.4497 15.6358 29.3686C15.6358 30.0727 15.7112 30.7706 15.8618 31.4488C19.5295 29.9837 22.6235 28.3902 25.3112 26.5838C26.9814 25.4614 28.5123 24.2378 29.8672 22.9432C28.2933 21.2898 26.2266 20.3834 24.0113 20.3834Z" fill="white"/>
<path d="M16.7398 9.89684V14.918C16.7398 15.6892 17.3228 16.3151 18.0422 16.3151H46.6907C47.41 16.3151 47.993 15.6892 47.993 14.918V1.80328C47.993 1.03204 47.41 0.406189 46.6907 0.406189H18.0422C17.3228 0.406189 16.7398 1.03204 16.7398 1.80328V9.89684Z" fill="#5BA47C"/>
<path d="M46.6906 16.6587H18.0421C17.1472 16.6587 16.4191 15.878 16.4191 14.918V9.8969C16.4191 9.70722 16.5625 9.55333 16.7393 9.55333C16.9162 9.55333 17.0596 9.70722 17.0596 9.8969V14.918C17.0596 15.4987 17.5004 15.9715 18.0421 15.9715H46.6906C47.2323 15.9715 47.6727 15.4987 47.6727 14.918V1.80334C47.6727 1.22268 47.2323 0.749821 46.6906 0.749821H18.0421C17.5004 0.749821 17.0596 1.22268 17.0596 1.80334V6.86473C17.0596 7.0544 16.9162 7.2083 16.7393 7.2083C16.5625 7.2083 16.4191 7.0544 16.4191 6.86473V1.80334C16.4191 0.843766 17.1472 0.0626831 18.0421 0.0626831H46.6906C47.5851 0.0626831 48.3132 0.843766 48.3132 1.80334V14.918C48.3132 15.8776 47.5851 16.6587 46.6906 16.6587Z" fill="white"/>
<path d="M30.8129 2.81671H20.1074C19.5949 2.81671 19.1791 3.26228 19.1791 3.81208V12.9091C19.1791 13.4589 19.5949 13.9044 20.1074 13.9044H44.6253C45.1378 13.9044 45.5531 13.4589 45.5531 12.9091V3.81252C45.5531 3.26272 45.1378 2.81716 44.6253 2.81716H30.8129V2.81671Z" fill="#5BA47C"/>
<path d="M44.625 14.2486H20.1076C19.4191 14.2486 18.8591 13.6478 18.8591 12.9096V3.81265C18.8591 3.07407 19.4191 2.47327 20.1076 2.47327H30.8131C30.99 2.47327 31.1334 2.62716 31.1334 2.81684C31.1334 3.00651 30.99 3.1604 30.8131 3.1604H20.1076C19.7724 3.1604 19.4996 3.45298 19.4996 3.81265V12.9096C19.4996 13.2689 19.7724 13.5614 20.1076 13.5614H44.625C44.9599 13.5614 45.2331 13.2689 45.2331 12.9096V3.81265C45.2331 3.45298 44.9603 3.1604 44.625 3.1604H33.5455C33.3687 3.1604 33.2252 3.00651 33.2252 2.81684C33.2252 2.62716 33.3687 2.47327 33.5455 2.47327H44.625C45.3136 2.47327 45.8736 3.07407 45.8736 3.81265V12.9096C45.8736 13.6478 45.3136 14.2486 44.625 14.2486Z" fill="white"/>
<path d="M28.0658 11.8409C28.0591 11.8409 28.0528 11.8409 28.0457 11.8404C27.9427 11.8333 27.8489 11.7738 27.7943 11.6794L24.4464 5.93757L22.3158 10.7484C22.2399 10.9202 22.0489 10.9927 21.8892 10.9113C21.7295 10.8299 21.6615 10.625 21.7374 10.4536L24.119 5.07551C24.1687 4.96233 24.2729 4.88762 24.3897 4.88002C24.5102 4.87376 24.6178 4.9346 24.6795 5.04107L28.1 10.9077L30.1989 8.14303C30.2919 8.02046 30.4516 7.98154 30.585 8.04998L33.4271 9.50299L35.8516 6.34913C35.9104 6.27219 35.998 6.22656 36.0906 6.22432C36.1828 6.21985 36.2728 6.26235 36.335 6.33571L39.4218 9.95617L42.6713 8.275C42.8302 8.19269 43.022 8.26382 43.0987 8.43471C43.1755 8.6056 43.1087 8.81138 42.9494 8.8937L39.4852 10.6863C39.3572 10.7525 39.205 10.7202 39.1099 10.6084L36.1115 7.0913L33.7619 10.1472C33.6689 10.2684 33.5105 10.3064 33.377 10.2384L30.5366 8.78633L28.3139 11.7143C28.253 11.7948 28.1617 11.8409 28.0658 11.8409Z" fill="white"/>
</g>
<defs>
<clipPath id="clip0_12:1358">
<rect width="48.3135" height="51.8272" fill="white"/>
</clipPath>
</defs>
</svg>
