<svg width="15" height="18" viewBox="0 0 15 18" fill="none" xmlns="http://www.w3.org/2000/svg">
<ellipse cx="7.64917" cy="5.06502" rx="3.98169" ry="3.98169" stroke="#C4C4C4" stroke-linecap="round" stroke-linejoin="round"/>
<path fill-rule="evenodd" clip-rule="evenodd" d="M1.33339 14.5845C1.33232 14.3046 1.39492 14.0281 1.51645 13.7759C1.89784 13.0132 2.97336 12.6089 3.86581 12.4258C4.50944 12.2885 5.16196 12.1967 5.81851 12.1512C7.03407 12.0444 8.25665 12.0444 9.47221 12.1512C10.1287 12.1972 10.7812 12.289 11.4249 12.4258C12.3174 12.6089 13.3929 12.975 13.7743 13.7759C14.0187 14.2899 14.0187 14.8867 13.7743 15.4006C13.3929 16.2016 12.3174 16.5677 11.4249 16.7431C10.782 16.8862 10.1293 16.9805 9.47221 17.0254C8.48285 17.1092 7.48886 17.1245 6.49739 17.0711C6.26855 17.0711 6.04735 17.0711 5.81851 17.0254C5.1639 16.9811 4.51364 16.8867 3.87343 16.7431C2.97336 16.5677 1.90547 16.2016 1.51645 15.4006C1.39554 15.1456 1.333 14.8668 1.33339 14.5845Z" stroke="#C4C4C4" stroke-linecap="round" stroke-linejoin="round"/>
</svg>
