<svg width="18" height="18" viewBox="0 0 18 18" fill="none" xmlns="http://www.w3.org/2000/svg">
<path fill-rule="evenodd" clip-rule="evenodd" d="M9 16.875C11.0886 16.875 13.0916 16.0453 14.5685 14.5685C16.0453 13.0916 16.875 11.0886 16.875 9C16.875 6.91142 16.0453 4.90838 14.5685 3.43153C13.0916 1.95468 11.0886 1.125 9 1.125C6.91142 1.125 4.90838 1.95468 3.43153 3.43153C1.95468 4.90838 1.125 6.91142 1.125 9C1.125 11.0886 1.95468 13.0916 3.43153 14.5685C4.90838 16.0453 6.91142 16.875 9 16.875ZM9 18C11.3869 18 13.6761 17.0518 15.364 15.364C17.0518 13.6761 18 11.3869 18 9C18 6.61305 17.0518 4.32387 15.364 2.63604C13.6761 0.948212 11.3869 0 9 0C6.61305 0 4.32387 0.948212 2.63604 2.63604C0.948212 4.32387 0 6.61305 0 9C0 11.3869 0.948212 13.6761 2.63604 15.364C4.32387 17.0518 6.61305 18 9 18Z" fill="#68C2D0"/>
<path d="M5.90625 6.78713H7.39125C7.39125 5.9085 7.9065 5.23013 8.92125 5.23013C9.69187 5.23013 10.3984 5.616 10.3984 6.54412C10.3984 7.2585 9.97762 7.587 9.31275 8.0865C8.55562 8.63663 7.956 9.279 7.99875 10.3219L8.00663 10.8427H9.477V10.4434C9.477 9.63562 9.78413 9.4005 10.6132 8.77163C11.2984 8.25075 12.0128 7.6725 12.0128 6.45863C12.0128 4.75875 10.5773 3.9375 9.00563 3.9375C7.51388 3.9375 5.87137 4.66537 5.90737 6.78713H5.90625ZM7.6635 12.9926C7.6635 13.5922 8.14163 14.0355 8.79975 14.0355C9.48487 14.0355 9.95625 13.5922 9.95625 12.9926C9.95625 12.3716 9.48375 11.9351 8.79862 11.9351C8.14163 11.9351 7.6635 12.3716 7.6635 12.9926Z" fill="#68C2D0"/>
</svg>
