<svg width="18" height="18" viewBox="0 0 18 18" fill="none" xmlns="http://www.w3.org/2000/svg">
<path d="M13.7828 17.9999C13.5427 17.9997 13.3082 17.9243 13.1092 17.7835L9.05704 14.9352C9.03707 14.9207 9.01339 14.913 8.98914 14.913C8.96488 14.913 8.9412 14.9207 8.92124 14.9352L4.86903 17.7835C4.66555 17.926 4.42555 18.0002 4.1809 17.9962C3.93625 17.9923 3.69854 17.9104 3.49932 17.7614C3.3001 17.6125 3.1488 17.4035 3.06552 17.1622C2.98224 16.9209 2.97091 16.6588 3.03304 16.4106L4.36386 11.4887C4.37015 11.464 4.36939 11.4378 4.36167 11.4135C4.35394 11.3892 4.3396 11.3678 4.32041 11.352L0.485476 8.19038C0.283592 8.03266 0.13384 7.81263 0.0572154 7.56114C-0.0194089 7.30966 -0.0190622 7.03933 0.0582068 6.78806C0.135476 6.53679 0.285792 6.31718 0.48808 6.16003C0.690367 6.00287 0.934481 5.91605 1.18619 5.91174L6.07491 5.71806C6.09895 5.71632 6.122 5.70732 6.14127 5.69216C6.16055 5.677 6.17523 5.65632 6.18355 5.63261L7.86745 0.830367C7.95232 0.586916 8.10649 0.376699 8.30906 0.228176C8.51163 0.0796536 8.75283 0 9 0C9.24717 0 9.48837 0.0796536 9.69094 0.228176C9.89351 0.376699 10.0477 0.586916 10.1326 0.830367L11.8164 5.63261C11.8248 5.65632 11.8395 5.677 11.8587 5.69216C11.878 5.70732 11.901 5.71632 11.9251 5.71806L16.8138 5.91174C17.0655 5.91605 17.3096 6.00287 17.5119 6.16003C17.7142 6.31718 17.8645 6.53679 17.9418 6.78806C18.0191 7.03933 18.0194 7.30966 17.9428 7.56114C17.8662 7.81263 17.7164 8.03266 17.5145 8.19038L13.6796 11.352C13.6598 11.3673 13.645 11.3887 13.6373 11.4132C13.6295 11.4376 13.6291 11.464 13.6361 11.4887L14.967 16.4106C15.0137 16.5994 15.0183 16.7969 14.9805 16.9879C14.9427 17.1788 14.8635 17.3581 14.749 17.5118C14.6345 17.6655 14.4877 17.7895 14.3202 17.8741C14.1527 17.9588 13.9688 18.0018 13.7828 17.9999ZM8.99185 13.7731C9.23239 13.7808 9.46517 13.8641 9.65998 14.0123L13.7122 16.8606C13.7327 16.877 13.7578 16.886 13.7835 16.8862C13.8093 16.8864 13.8345 16.8778 13.8553 16.8618C13.8761 16.8458 13.8913 16.8231 13.8988 16.7973C13.9063 16.7714 13.9056 16.7436 13.8969 16.7182L12.5661 11.7963C12.5006 11.5549 12.5054 11.2984 12.5799 11.0599C12.6545 10.8213 12.7953 10.6116 12.9843 10.4576L16.8192 7.29602C16.8402 7.28061 16.8558 7.25857 16.8639 7.23314C16.872 7.2077 16.8721 7.18022 16.8642 7.15472C16.8563 7.12923 16.8408 7.10706 16.82 7.09148C16.7992 7.07589 16.7742 7.06772 16.7486 7.06815L11.8599 6.87447C11.6205 6.86468 11.3894 6.78035 11.1959 6.63222C11.0024 6.48409 10.8553 6.27888 10.7735 6.04276L9.08963 1.24052C9.08203 1.21502 9.06687 1.19274 9.04635 1.17691C9.02583 1.16109 9.00103 1.15255 8.97556 1.15255C8.95009 1.15255 8.92528 1.16109 8.90476 1.17691C8.88424 1.19274 8.86908 1.21502 8.86149 1.24052L7.19389 6.03707C7.11206 6.27318 6.96503 6.47839 6.77154 6.62652C6.57805 6.77465 6.34688 6.85898 6.10751 6.86877L1.21878 7.06246C1.19322 7.06202 1.1682 7.0702 1.1474 7.08578C1.1266 7.10136 1.11111 7.12353 1.10321 7.14903C1.0953 7.17452 1.09541 7.20201 1.1035 7.22744C1.11159 7.25287 1.12725 7.27491 1.14817 7.29032L4.98853 10.4576C5.17699 10.6121 5.31738 10.8219 5.39186 11.0603C5.46633 11.2986 5.47153 11.5549 5.40679 11.7963L4.0814 16.7182C4.07349 16.7428 4.07345 16.7695 4.0813 16.7942C4.08914 16.8189 4.10443 16.8402 4.12486 16.8549C4.14454 16.8726 4.16958 16.8823 4.19547 16.8823C4.22137 16.8823 4.24641 16.8726 4.26609 16.8549L8.31829 14.0066C8.51633 13.8689 8.74877 13.7955 8.98642 13.7958L8.99185 13.7731Z" fill="#68C2D0"/>
</svg>
