<svg width="53" height="62" viewBox="0 0 53 62" fill="none" xmlns="http://www.w3.org/2000/svg">
<rect x="4.50635" y="25.8342" width="44.2843" height="30.7695" fill="#E1F3F6" stroke="#5B8288" stroke-width="0.5"/>
<rect x="1.65112" y="21.4663" width="50.1502" height="3.46233" rx="1.73116" fill="#E1F3F6"/>
<path d="M49.33 56.7844C49.3042 56.7844 49.2846 56.7749 49.2699 56.7593C49.2547 56.743 49.2401 56.7148 49.2401 56.6731V25.7047C49.2401 25.6629 49.2547 25.6347 49.2699 25.6185C49.2846 25.6029 49.3042 25.5933 49.33 25.5933C49.3558 25.5933 49.3753 25.6029 49.39 25.6185C49.4053 25.6347 49.4199 25.6629 49.4199 25.7047V56.6731C49.4199 56.7489 49.3642 56.7844 49.33 56.7844Z" fill="#5B8288" stroke="#5B8288" stroke-width="0.5"/>
<rect x="2.30225" y="56.7823" width="50.1502" height="3.46233" rx="1.73116" fill="#E1F3F6"/>
<path d="M15.9023 20.4679C15.8693 20.2096 15.7772 19.9627 15.5547 19.7872C15.4057 19.6687 15.2237 19.6328 15.0655 19.6209C14.9302 19.6108 14.7804 19.6167 14.6429 19.6222C14.6197 19.6232 14.5969 19.6241 14.5746 19.6249L14.5644 19.6253L14.5544 19.6265C14.4695 19.6365 14.3822 19.6368 14.2778 19.6368L14.2746 19.6368L12.4182 19.6609C12.1557 19.6608 11.9701 19.6493 11.7788 19.6373C11.7432 19.6349 11.7055 19.6318 11.6657 19.6285C11.5242 19.6169 11.357 19.6031 11.1672 19.6127C11.0559 19.6127 10.9295 19.6124 10.7721 19.6013L10.7721 19.6012L10.7651 19.6009C10.7485 19.6002 10.7298 19.5993 10.7092 19.5984C10.5579 19.5916 10.3041 19.5801 10.0633 19.5857C9.92694 19.5888 9.78587 19.5974 9.66498 19.6176C9.60463 19.6277 9.54247 19.6417 9.48543 19.6624C9.43245 19.6817 9.36085 19.7147 9.30347 19.7757L9.29576 19.7839L9.28881 19.7928C9.21213 19.8906 9.19241 20.0209 9.18433 20.1049C9.17481 20.2037 9.17616 20.315 9.18215 20.4218C9.19416 20.6356 9.2267 20.8616 9.25018 20.9992C9.2688 21.1183 9.27924 21.2194 9.2893 21.3169C9.29047 21.3283 9.29163 21.3396 9.29281 21.3508C9.294 21.3916 9.28111 21.4212 9.26657 21.4389C9.25225 21.4564 9.23365 21.4666 9.2094 21.4681L9.2094 21.4681L9.20843 21.4682C9.17189 21.4706 9.11823 21.4389 9.11238 21.3708C9.11076 21.275 9.08555 21.1414 9.06612 21.0384C9.06533 21.0342 9.06455 21.0301 9.06378 21.026L9.06303 21.0208C9.02308 20.7479 8.98282 20.4727 8.98918 20.2183C8.99563 19.9604 9.04974 19.7634 9.16577 19.6277L9.16579 19.6277L9.16784 19.6252C9.28009 19.4905 9.48689 19.4074 9.79354 19.3734C10.0936 19.3401 10.4329 19.3591 10.76 19.3774C10.9162 19.39 11.0591 19.39 11.1491 19.39H11.151C11.4144 19.39 11.6003 19.4016 11.792 19.4135C11.8276 19.4159 11.8654 19.419 11.9051 19.4223C12.047 19.434 12.2148 19.4478 12.4053 19.4381L14.2569 19.4141C14.3085 19.414 14.3591 19.4107 14.4021 19.4079L14.4086 19.4075C14.4558 19.4045 14.4965 19.402 14.5384 19.402H14.5456L14.5528 19.4016C14.9926 19.3763 15.3542 19.3567 15.6524 19.5892C15.9054 19.7914 16.0225 20.0626 16.07 20.3719C16.1168 20.6769 16.093 20.9975 16.0705 21.3013C16.0696 21.3127 16.0688 21.3241 16.068 21.3354C16.0669 21.3467 16.0658 21.3581 16.0647 21.3696C16.0551 21.47 16.0451 21.5754 16.0445 21.6721C16.0412 21.707 16.0265 21.736 16.0081 21.755C15.9894 21.7745 15.9705 21.7808 15.9546 21.7808H15.9535C15.9316 21.7782 15.9126 21.7679 15.8966 21.7492C15.8782 21.7278 15.8647 21.6955 15.8647 21.6574C15.8647 21.5507 15.8747 21.4419 15.8862 21.3195L15.8863 21.319C15.9144 21.0139 15.9346 20.7201 15.9023 20.4679Z" fill="#5B8288" stroke="#5B8288" stroke-width="0.5"/>
<path d="M46.6726 20.4679C46.6395 20.2096 46.5475 19.9627 46.325 19.7872C46.176 19.6687 45.9939 19.6328 45.8358 19.6209C45.7005 19.6108 45.5507 19.6167 45.4132 19.6222C45.39 19.6232 45.3672 19.6241 45.3448 19.6249L45.3347 19.6253L45.3247 19.6265C45.2397 19.6365 45.1525 19.6368 45.0481 19.6368L45.0449 19.6368L43.1885 19.6609C42.926 19.6608 42.7404 19.6493 42.5491 19.6373C42.5135 19.6349 42.4757 19.6318 42.4359 19.6285C42.2945 19.6169 42.1273 19.6031 41.9374 19.6127C41.8262 19.6127 41.6997 19.6124 41.5424 19.6013L41.5424 19.6012L41.5353 19.6009C41.5188 19.6002 41.5001 19.5993 41.4794 19.5984C41.3282 19.5916 41.0744 19.5801 40.8336 19.5857C40.6972 19.5888 40.5561 19.5974 40.4352 19.6176C40.3749 19.6277 40.3127 19.6417 40.2557 19.6624C40.2027 19.6817 40.1311 19.7147 40.0737 19.7757L40.066 19.7839L40.0591 19.7928C39.9824 19.8906 39.9627 20.0209 39.9546 20.1049C39.9451 20.2037 39.9464 20.315 39.9524 20.4218C39.9644 20.6356 39.997 20.8616 40.0204 20.9992C40.0391 21.1183 40.0495 21.2194 40.0596 21.3169C40.0607 21.3283 40.0619 21.3396 40.0631 21.3508C40.0643 21.3916 40.0514 21.4212 40.0368 21.4389C40.0225 21.4564 40.0039 21.4666 39.9797 21.4681C39.952 21.4699 39.9311 21.4609 39.9157 21.4468C39.9007 21.4329 39.8857 21.4087 39.8827 21.371C39.8811 21.2752 39.8558 21.1414 39.8364 21.0384C39.8356 21.0342 39.8348 21.0301 39.834 21.026L39.8333 21.0208C39.7933 20.7479 39.7531 20.4727 39.7594 20.2183C39.7659 19.9604 39.82 19.7634 39.936 19.6277L39.936 19.6277L39.9381 19.6252C40.0504 19.4905 40.2572 19.4074 40.5638 19.3734C40.8639 19.3401 41.2032 19.3591 41.5303 19.3774C41.6865 19.39 41.8294 19.39 41.9194 19.39H41.9212C42.1846 19.39 42.3706 19.4016 42.5622 19.4135C42.5979 19.4159 42.6356 19.419 42.6754 19.4223C42.8173 19.434 42.985 19.4478 43.1756 19.4381L45.0272 19.4141C45.0788 19.414 45.1294 19.4107 45.1724 19.4079L45.1789 19.4075C45.2261 19.4045 45.2668 19.402 45.3087 19.402H45.3158L45.323 19.4016C45.7629 19.3763 46.1244 19.3567 46.4226 19.5891C46.6757 19.7914 46.7928 20.0626 46.8403 20.3719C46.887 20.6769 46.8633 20.9975 46.8407 21.3013C46.8399 21.3127 46.8391 21.3241 46.8382 21.3354C46.8372 21.3467 46.8361 21.3581 46.835 21.3696C46.8254 21.47 46.8154 21.5754 46.8147 21.6721C46.8115 21.707 46.7968 21.736 46.7784 21.755C46.7597 21.7745 46.7407 21.7808 46.7248 21.7808H46.7237C46.7018 21.7782 46.6828 21.7679 46.6668 21.7492C46.6485 21.7278 46.6349 21.6955 46.6349 21.6574C46.6349 21.5507 46.645 21.4419 46.6565 21.3195L46.6566 21.319C46.6847 21.0139 46.7049 20.7201 46.6726 20.4679Z" fill="#5B8288" stroke="#5B8288" stroke-width="0.5"/>
<path d="M14.6969 49.2635L15.0305 49.473C15.1606 49.5546 18.3088 51.4727 26.4322 51.4727C34.5556 51.4727 37.7038 49.5546 37.8338 49.473L38.1674 49.2635V37.386L42.6618 35.9751V42.6355C41.5104 42.9434 40.6643 43.9419 40.6643 45.1236V48.6509H46.1574V45.1236C46.1574 43.9419 45.3112 42.9434 44.1599 42.6355V35.5048L46.7783 34.6828L38.9116 32.2131L38.4378 33.5516L42.0409 34.6827L26.4322 39.5828L10.8235 34.6828L26.4322 29.7828L37.0166 33.1056L37.4904 31.7671L26.4322 28.2955L6.08606 34.6828L14.6969 37.386V49.2635ZM44.6593 45.1236V47.2399H42.1624V45.1236C42.1624 44.4752 42.7224 43.9478 43.4108 43.9478C44.0993 43.9478 44.6593 44.4752 44.6593 45.1236ZM16.1951 37.8563L26.4322 41.0701L36.6693 37.8563V43.3834H34.8216V44.7944H36.6693V46.2053H33.4234V47.6162H36.6693V48.4667C35.7039 48.9094 32.5979 50.0618 26.4322 50.0618C20.2617 50.0618 17.1556 48.9077 16.1951 48.4671V37.8563Z" fill="#5B8288"/>
<path d="M43.9118 19.5559L43.9035 19.546L28.4051 0.960094L28.4035 0.95819C28.1463 0.655918 27.7734 0.460671 27.3634 0.460671H27.3521C26.9412 0.460671 26.5664 0.656929 26.3083 0.974631L26.3067 0.976696L11.6581 19.4058C11.6229 19.4501 11.5731 19.448 11.5443 19.4232C11.499 19.3815 11.4946 19.3029 11.529 19.2585C11.5291 19.2583 11.5292 19.2582 11.5293 19.258L26.1759 0.831442C26.1761 0.831205 26.1763 0.830967 26.1764 0.830729C26.4728 0.463517 26.9016 0.25 27.3408 0.25H27.3521C27.793 0.25 28.2126 0.453249 28.5208 0.811967C28.5211 0.812374 28.5215 0.812781 28.5218 0.813189L44.018 19.3964L44.0179 19.3964L44.0206 19.3995C44.057 19.4417 44.0543 19.5154 44.0088 19.5563L44.001 19.5633L43.9941 19.5707C43.9936 19.571 43.9925 19.5716 43.9905 19.5723C43.9854 19.5742 43.9756 19.5765 43.9607 19.5765C43.9472 19.5765 43.9341 19.5736 43.9252 19.5696C43.9212 19.5678 43.9192 19.5664 43.9184 19.5658L43.9118 19.5559Z" fill="#5B8288" stroke="#5B8288" stroke-width="0.5"/>
<path d="M27.3925 3.10418L27.3926 3.10397L27.3825 3.10225C27.1519 3.06303 26.9738 2.95862 26.8591 2.81102C26.7269 2.63658 26.6822 2.32017 26.782 2.05016L26.782 2.05017L26.7832 2.04666C26.861 1.82612 27.011 1.7131 27.1498 1.69297L27.1498 1.69298L27.1515 1.69273C27.3742 1.65889 27.5563 1.6488 27.7008 1.6583C27.9953 1.6983 28.1916 1.85418 28.2764 2.0591C28.3635 2.26945 28.3292 2.552 28.1687 2.78095C28.0126 2.9916 27.7714 3.11076 27.5105 3.11076C27.4497 3.11076 27.4193 3.10988 27.3925 3.10418ZM27.1685 1.91078L27.0891 1.92611L27.0338 1.98495L27.2159 2.15623C27.0338 1.98495 27.0338 1.985 27.0337 1.98504L27.0336 1.98513L27.0335 1.98531L27.0331 1.98568L27.0324 1.98646L27.0309 1.98814L27.0274 1.99202L27.019 2.00189C27.0128 2.0094 27.0055 2.01883 26.9975 2.03019C26.9814 2.05289 26.9625 2.08352 26.9444 2.12211L26.9441 2.12201L26.9399 2.13208C26.8979 2.23262 26.8909 2.33792 26.8973 2.41968C26.9006 2.46193 26.908 2.505 26.9203 2.54531C26.9295 2.57556 26.9484 2.62814 26.9883 2.67585C27.0859 2.7999 27.2432 2.86823 27.3991 2.88602C27.7581 2.93818 27.9644 2.73336 28.032 2.63761L28.032 2.63764L28.0352 2.63291C28.1126 2.51771 28.1777 2.35273 28.1229 2.1778L28.1199 2.16833L28.1162 2.15913C28.0595 2.01833 27.9336 1.95756 27.8721 1.93304C27.8116 1.90891 27.749 1.89567 27.7203 1.88978C27.6493 1.86933 27.5762 1.86987 27.5499 1.87007C27.5478 1.87008 27.5459 1.8701 27.5445 1.8701C27.4338 1.8701 27.3041 1.88455 27.1685 1.91078Z" fill="#5B8288" stroke="#5B8288" stroke-width="0.5"/>
<path d="M4.11605 25.7062L4.11606 25.7062V25.7047C4.11606 25.6289 4.17168 25.5933 4.20594 25.5933C4.22599 25.5933 4.24606 25.6014 4.26404 25.6209C4.28287 25.6414 4.29566 25.6713 4.29581 25.7041C4.29581 25.7043 4.29581 25.7045 4.29581 25.7047L4.10322 56.6715V56.6731C4.10322 56.7148 4.08866 56.743 4.07339 56.7593C4.0587 56.7749 4.03916 56.7844 4.01334 56.7844C3.99328 56.7844 3.97321 56.7764 3.95523 56.7568C3.93641 56.7364 3.92361 56.7065 3.92346 56.6737C3.92346 56.6735 3.92346 56.6733 3.92346 56.6731L4.11605 25.7062Z" fill="#5B8288" stroke="#5B8288" stroke-width="0.5"/>
<path d="M2.90331 60.9869H50.6333C51.7061 60.9869 52.5866 60.0461 52.5866 58.9133V58.7085C52.5866 57.5758 51.7176 56.6349 50.6333 56.6349H2.90331C1.83075 56.6349 0.95 57.5634 0.95 58.7085V58.9133C0.95 60.0459 1.81905 60.9869 2.90331 60.9869ZM1.72975 58.6964C1.72975 58.0101 2.2543 57.4455 2.90331 57.4455H50.6333C51.2716 57.4455 51.8069 57.9987 51.8069 58.6964V58.9012C51.8069 59.5875 51.2823 60.1521 50.6333 60.1521H2.90331C2.26505 60.1521 1.72975 59.5989 1.72975 58.9012V58.6964Z" fill="#5B8288" stroke="#5B8288" stroke-width="0.1"/>
<path d="M2.90331 25.8515H50.6333C51.7061 25.8515 52.5866 24.9108 52.5866 23.7779V23.5732C52.5866 22.4405 51.7176 21.4996 50.6333 21.4996H2.90331C1.83075 21.4996 0.95 22.4281 0.95 23.5732V23.7779C0.95 24.9106 1.81905 25.8515 2.90331 25.8515ZM1.72975 23.5611C1.72975 22.8748 2.2543 22.3102 2.90331 22.3102H50.6333C51.2716 22.3102 51.8069 22.8634 51.8069 23.5611V23.7659C51.8069 24.4522 51.2823 25.0168 50.6333 25.0168H2.90331C2.26505 25.0168 1.72975 24.4636 1.72975 23.7659V23.5611Z" fill="#5B8288" stroke="#5B8288" stroke-width="0.1"/>
</svg>
