<svg width="53" height="62" viewBox="0 0 53 62" fill="none" xmlns="http://www.w3.org/2000/svg">
<rect x="4.50636" y="26.0048" width="44.2843" height="30.7695" fill="#5CC88C" stroke="white" stroke-width="0.5"/>
<rect x="1.6511" y="21.637" width="50.1502" height="3.46233" rx="1.73116" fill="#5CC88C"/>
<path d="M49.3299 56.9551C49.3041 56.9551 49.2846 56.9455 49.2699 56.9299C49.2546 56.9137 49.2401 56.8855 49.2401 56.8437V25.8753C49.2401 25.8336 49.2546 25.8054 49.2699 25.7891C49.2846 25.7735 49.3041 25.764 49.3299 25.764C49.3558 25.764 49.3753 25.7735 49.39 25.7891C49.4053 25.8054 49.4198 25.8336 49.4198 25.8753V56.8437C49.4198 56.9195 49.3642 56.9551 49.3299 56.9551Z" fill="white" stroke="white" stroke-width="0.5"/>
<rect x="2.3022" y="56.9529" width="50.1502" height="3.46233" rx="1.73116" fill="#5CC88C"/>
<path d="M15.9024 20.6385C15.8693 20.3802 15.7772 20.1334 15.5547 19.9579C15.4057 19.8393 15.2237 19.8035 15.0656 19.7916C14.9303 19.7814 14.7804 19.7874 14.643 19.7929C14.6198 19.7938 14.5969 19.7947 14.5746 19.7956L14.5645 19.7959L14.5544 19.7971C14.4695 19.8072 14.3822 19.8074 14.2779 19.8074L14.2746 19.8075L12.4183 19.8315C12.1557 19.8315 11.9702 19.8199 11.7789 19.808C11.7432 19.8056 11.7055 19.8025 11.6657 19.7992C11.5243 19.7876 11.3571 19.7738 11.1672 19.7833C11.0559 19.7833 10.9295 19.7831 10.7722 19.7719L10.7722 19.7718L10.7651 19.7715C10.7486 19.7708 10.7298 19.77 10.7092 19.769C10.558 19.7622 10.3041 19.7508 10.0634 19.7563C9.92698 19.7594 9.78591 19.7681 9.66502 19.7883C9.60467 19.7983 9.54251 19.8124 9.48546 19.8331C9.43249 19.8523 9.36089 19.8854 9.30351 19.9464L9.29579 19.9546L9.28885 19.9634C9.21217 20.0613 9.19245 20.1916 9.18436 20.2755C9.17485 20.3744 9.1762 20.4856 9.18219 20.5924C9.1942 20.8063 9.22674 21.0322 9.25022 21.1698C9.26884 21.289 9.27928 21.3901 9.28934 21.4876C9.29051 21.4989 9.29167 21.5102 9.29284 21.5215C9.29404 21.5622 9.28115 21.5918 9.2666 21.6096C9.25229 21.6271 9.23368 21.6373 9.20944 21.6388L9.20944 21.6388L9.20846 21.6389C9.17192 21.6413 9.11826 21.6096 9.11242 21.5415C9.1108 21.4457 9.08558 21.312 9.06616 21.2091C9.06537 21.2049 9.06459 21.2007 9.06382 21.1966L9.06306 21.1915C9.02312 20.9185 8.98286 20.6434 8.98922 20.3889C8.99567 20.1311 9.04978 19.934 9.16581 19.7983L9.16582 19.7983L9.16788 19.7959C9.28013 19.6611 9.48693 19.5781 9.79358 19.544C10.0936 19.5108 10.433 19.5297 10.76 19.548C10.9162 19.5606 11.0591 19.5606 11.1491 19.5606H11.151C11.4144 19.5606 11.6003 19.5722 11.792 19.5842C11.8276 19.5866 11.8654 19.5897 11.9052 19.593C12.047 19.6046 12.2148 19.6185 12.4053 19.6087L14.2569 19.5847C14.3086 19.5846 14.3592 19.5814 14.4021 19.5786L14.4087 19.5782C14.4559 19.5751 14.4965 19.5727 14.5384 19.5727H14.5456L14.5528 19.5723C14.9926 19.547 15.3542 19.5273 15.6524 19.7598C15.9054 19.962 16.0226 20.2332 16.07 20.5425C16.1168 20.8476 16.093 21.1681 16.0705 21.472C16.0697 21.4833 16.0688 21.4947 16.068 21.506C16.0669 21.5174 16.0658 21.5288 16.0647 21.5403C16.0552 21.6407 16.0451 21.746 16.0445 21.8428C16.0413 21.8777 16.0265 21.9066 16.0082 21.9257C15.9895 21.9451 15.9705 21.9515 15.9546 21.9515H15.9535C15.9316 21.9489 15.9126 21.9385 15.8966 21.9199C15.8782 21.8984 15.8647 21.8661 15.8647 21.8281C15.8647 21.7213 15.8748 21.6126 15.8863 21.4901L15.8863 21.4897C15.9145 21.1846 15.9346 20.8907 15.9024 20.6385Z" fill="white" stroke="white" stroke-width="0.5"/>
<path d="M46.6726 20.6385C46.6395 20.3802 46.5475 20.1334 46.325 19.9579C46.176 19.8393 45.9939 19.8035 45.8358 19.7916C45.7005 19.7814 45.5507 19.7874 45.4132 19.7929C45.39 19.7938 45.3672 19.7947 45.3448 19.7956L45.3347 19.7959L45.3247 19.7971C45.2397 19.8072 45.1525 19.8074 45.0481 19.8074L45.0449 19.8075L43.1885 19.8315C42.926 19.8315 42.7404 19.8199 42.5491 19.808C42.5135 19.8056 42.4757 19.8025 42.436 19.7992C42.2945 19.7876 42.1273 19.7738 41.9374 19.7833C41.8262 19.7833 41.6997 19.7831 41.5424 19.7719L41.5424 19.7718L41.5353 19.7715C41.5188 19.7708 41.5001 19.77 41.4794 19.769C41.3282 19.7622 41.0744 19.7508 40.8336 19.7563C40.6972 19.7594 40.5562 19.7681 40.4353 19.7883C40.3749 19.7983 40.3128 19.8124 40.2557 19.8331C40.2027 19.8523 40.1311 19.8854 40.0737 19.9464L40.066 19.9546L40.0591 19.9634C39.9824 20.0613 39.9627 20.1916 39.9546 20.2755C39.9451 20.3744 39.9464 20.4856 39.9524 20.5924C39.9644 20.8063 39.997 21.0322 40.0205 21.1698C40.0391 21.2889 40.0495 21.3901 40.0596 21.4876C40.0607 21.4989 40.0619 21.5102 40.0631 21.5215C40.0643 21.5622 40.0514 21.5918 40.0368 21.6096C40.0225 21.6271 40.0039 21.6373 39.9797 21.6388C39.9521 21.6405 39.9311 21.6316 39.9158 21.6174C39.9007 21.6035 39.8857 21.5793 39.8827 21.5417C39.8811 21.4458 39.8558 21.3121 39.8364 21.2091C39.8356 21.2049 39.8348 21.2007 39.8341 21.1966L39.8333 21.1915C39.7934 20.9185 39.7531 20.6434 39.7595 20.3889C39.7659 20.1311 39.82 19.934 39.936 19.7983L39.9361 19.7983L39.9381 19.7959C40.0504 19.6611 40.2572 19.5781 40.5638 19.544C40.8639 19.5108 41.2032 19.5297 41.5303 19.548C41.6865 19.5606 41.8294 19.5606 41.9194 19.5606H41.9212C42.1846 19.5606 42.3706 19.5722 42.5622 19.5842C42.5979 19.5866 42.6356 19.5897 42.6754 19.593C42.8173 19.6046 42.9851 19.6185 43.1756 19.6087L45.0272 19.5847C45.0788 19.5846 45.1294 19.5814 45.1724 19.5786L45.1789 19.5782C45.2261 19.5751 45.2668 19.5727 45.3087 19.5727H45.3159L45.323 19.5723C45.7629 19.547 46.1245 19.5273 46.4226 19.7598C46.6757 19.962 46.7928 20.2332 46.8403 20.5425C46.8871 20.8476 46.8633 21.1681 46.8408 21.472C46.8399 21.4833 46.8391 21.4947 46.8382 21.506C46.8372 21.5174 46.8361 21.5288 46.835 21.5403C46.8254 21.6407 46.8154 21.746 46.8147 21.8428C46.8115 21.8777 46.7968 21.9066 46.7784 21.9257C46.7597 21.9451 46.7407 21.9515 46.7248 21.9515H46.7238C46.7019 21.9489 46.6828 21.9385 46.6668 21.9199C46.6485 21.8984 46.635 21.8661 46.635 21.8281C46.635 21.7213 46.645 21.6126 46.6565 21.4901L46.6566 21.4897C46.6847 21.1846 46.7049 20.8907 46.6726 20.6385Z" fill="white" stroke="white" stroke-width="0.5"/>
<path d="M14.697 49.4341L15.0306 49.6436C15.1606 49.7253 18.3088 51.6434 26.4322 51.6434C34.5556 51.6434 37.7039 49.7253 37.8339 49.6436L38.1675 49.4341V37.5567L42.6618 36.1457V42.8061C41.5105 43.1141 40.6643 44.1125 40.6643 45.2942V48.8215H46.1574V45.2942C46.1574 44.1125 45.3113 43.1141 44.1599 42.8061V35.6754L46.7784 34.8534L38.9116 32.3838L38.4378 33.7223L42.0409 34.8533L26.4322 39.7535L10.8235 34.8534L26.4322 29.9534L37.0166 33.2762L37.4904 31.9377L26.4322 28.4661L6.08611 34.8534L14.697 37.5567V49.4341ZM44.6593 45.2942V47.4106H42.1625V45.2942C42.1625 44.6459 42.7225 44.1185 43.4109 44.1185C44.0993 44.1185 44.6593 44.6459 44.6593 45.2942ZM16.1951 38.027L26.4322 41.2408L36.6694 38.027V43.5541H34.8217V44.965H36.6694V46.3759H33.4234V47.7868H36.6694V48.6373C35.704 49.0801 32.598 50.2324 26.4322 50.2324C20.2618 50.2324 17.1557 49.0783 16.1951 48.6377V38.027Z" fill="white"/>
<path d="M43.9117 19.7266L43.9035 19.7166L28.4051 1.13075L28.4035 1.12884C28.1462 0.826572 27.7733 0.631325 27.3634 0.631325H27.3521C26.9411 0.631325 26.5664 0.827583 26.3083 1.14529L26.3067 1.14735L11.6581 19.5765C11.6229 19.6207 11.5731 19.6187 11.5443 19.5938C11.4989 19.5522 11.4946 19.4736 11.5289 19.4291C11.529 19.429 11.5292 19.4288 11.5293 19.4287L26.1758 1.0021C26.176 1.00186 26.1762 1.00162 26.1764 1.00138C26.4728 0.634171 26.9016 0.420654 27.3407 0.420654H27.3521C27.793 0.420654 28.2126 0.623903 28.5207 0.982622C28.5211 0.983029 28.5214 0.983436 28.5218 0.983843L44.0179 19.5671L44.0179 19.5671L44.0206 19.5702C44.0569 19.6123 44.0543 19.686 44.0087 19.727L44.001 19.734L43.994 19.7414C43.9936 19.7416 43.9925 19.7422 43.9905 19.743C43.9854 19.7448 43.9756 19.7472 43.9607 19.7472C43.9471 19.7472 43.9341 19.7442 43.9251 19.7402C43.9212 19.7385 43.9192 19.7371 43.9184 19.7364L43.9117 19.7266Z" fill="white" stroke="white" stroke-width="0.5"/>
<path d="M27.3925 3.27483L27.3926 3.27463L27.3825 3.27291C27.1519 3.23368 26.9738 3.12928 26.8591 2.98167C26.7269 2.80723 26.6822 2.49082 26.782 2.22081L26.782 2.22082L26.7833 2.21732C26.8611 1.99677 27.011 1.88375 27.1498 1.86363L27.1498 1.86363L27.1515 1.86338C27.3742 1.82955 27.5563 1.81946 27.7008 1.82896C27.9954 1.86896 28.1917 2.02484 28.2765 2.22976C28.3635 2.44011 28.3292 2.72266 28.1687 2.95161C28.0126 3.16226 27.7714 3.28141 27.5105 3.28141C27.4498 3.28141 27.4193 3.28053 27.3925 3.27483ZM27.1685 2.08143L27.0892 2.09676L27.0338 2.15561L27.2159 2.32689C27.0338 2.15561 27.0338 2.15565 27.0337 2.1557L27.0336 2.15579L27.0335 2.15597L27.0331 2.15634L27.0324 2.15711L27.0309 2.15879L27.0274 2.16267L27.019 2.17254C27.0128 2.18006 27.0055 2.18949 26.9975 2.20085C26.9815 2.22355 26.9625 2.25417 26.9444 2.29277L26.9442 2.29266L26.9399 2.30274C26.8979 2.40327 26.8909 2.50858 26.8973 2.59034C26.9006 2.63258 26.908 2.67565 26.9203 2.71597C26.9295 2.74621 26.9484 2.79879 26.9883 2.8465C27.086 2.97055 27.2433 3.03888 27.3991 3.05667C27.7581 3.10884 27.9644 2.90401 28.032 2.80826L28.032 2.8083L28.0352 2.80357C28.1126 2.68837 28.1777 2.52338 28.1229 2.34846L28.1199 2.33899L28.1162 2.32978C28.0595 2.18898 27.9336 2.12821 27.8721 2.1037C27.8116 2.07957 27.749 2.06632 27.7203 2.06043C27.6493 2.03999 27.5762 2.04053 27.5499 2.04072C27.5478 2.04074 27.546 2.04075 27.5445 2.04075C27.4338 2.04075 27.3041 2.05521 27.1685 2.08143Z" fill="white" stroke="white" stroke-width="0.5"/>
<path d="M4.11605 25.8769L4.11605 25.8769V25.8753C4.11605 25.7995 4.17167 25.764 4.20593 25.764C4.22599 25.764 4.24605 25.772 4.26403 25.7916C4.28286 25.812 4.29566 25.8419 4.2958 25.8748C4.2958 25.875 4.2958 25.8751 4.2958 25.8753L4.10321 56.8422V56.8437C4.10321 56.8855 4.08865 56.9137 4.07339 56.9299C4.05869 56.9455 4.03916 56.9551 4.01333 56.9551C3.99327 56.9551 3.9732 56.9471 3.95523 56.9275C3.9364 56.907 3.9236 56.8771 3.92346 56.8443C3.92345 56.8441 3.92345 56.8439 3.92345 56.8437L4.11605 25.8769Z" fill="white" stroke="white" stroke-width="0.5"/>
<path d="M2.90331 61.1575H50.6333C51.7061 61.1575 52.5866 60.2168 52.5866 59.0839V58.8791C52.5866 57.7465 51.7176 56.8055 50.6333 56.8055H2.90331C1.83075 56.8055 0.95 57.734 0.95 58.8791V59.0839C0.95 60.2166 1.81905 61.1575 2.90331 61.1575ZM1.72975 58.8671C1.72975 58.1808 2.2543 57.6162 2.90331 57.6162H50.6333C51.2716 57.6162 51.8069 58.1694 51.8069 58.8671V59.0719C51.8069 59.7582 51.2823 60.3227 50.6333 60.3227H2.90331C2.26505 60.3227 1.72975 59.7696 1.72975 59.0719V58.8671Z" fill="white" stroke="white" stroke-width="0.1"/>
<path d="M2.90331 26.0222H50.6333C51.7061 26.0222 52.5866 25.0814 52.5866 23.9486V23.7438C52.5866 22.6112 51.7176 21.6702 50.6333 21.6702H2.90331C1.83075 21.6702 0.95 22.5987 0.95 23.7438V23.9486C0.95 25.0812 1.81905 26.0222 2.90331 26.0222ZM1.72975 23.7318C1.72975 23.0455 2.2543 22.4809 2.90331 22.4809H50.6333C51.2716 22.4809 51.8069 23.034 51.8069 23.7318V23.9365C51.8069 24.6228 51.2823 25.1874 50.6333 25.1874H2.90331C2.26505 25.1874 1.72975 24.6343 1.72975 23.9365V23.7318Z" fill="white" stroke="white" stroke-width="0.1"/>
</svg>
