<svg width="51" height="53" viewBox="0 0 51 53" fill="none" xmlns="http://www.w3.org/2000/svg">
<rect x="1.05695" y="5.60883" width="46.7884" height="37.5423" rx="4" fill="#4B7C61"/>
<path d="M21.5981 43.1513H27.5893L28.7305 52.0753H20.4569L21.5981 43.1513Z" fill="#4B7C61"/>
<rect x="46.7034" y="8.6861" width="3.42354" height="6.15447" fill="#4B7C61"/>
<path d="M1.34224 1.91621C4.76578 -0.545619 8.18932 0.993001 10.4717 2.22386L11.0423 7.76292L1.05695 8.07064L1.34224 1.91621Z" fill="#4B7C61"/>
<path d="M20.7426 2.22407C17.3191 -0.237756 13.6102 0.993182 11.3279 2.83958V7.84268L20.7426 7.84274V2.22407Z" fill="#4B7C61"/>
<path d="M24.5187 37.8365C24.1872 37.8365 23.8632 37.9426 23.5875 38.1412C23.3119 38.3398 23.0971 38.6222 22.9702 38.9525C22.8433 39.2829 22.8101 39.6464 22.8748 39.9971C22.9395 40.3478 23.0991 40.6699 23.3335 40.9228C23.5679 41.1756 23.8666 41.3478 24.1917 41.4176C24.5168 41.4873 24.8538 41.4515 25.1601 41.3147C25.4664 41.1779 25.7282 40.9461 25.9123 40.6488C26.0965 40.3515 26.1948 40.002 26.1948 39.6444C26.1943 39.1651 26.0176 38.7056 25.7033 38.3667C25.3891 38.0278 24.9631 37.8371 24.5187 37.8365ZM24.5187 40.3608C24.3874 40.3609 24.259 40.3188 24.1497 40.2401C24.0405 40.1614 23.9553 40.0495 23.9051 39.9186C23.8548 39.7877 23.8416 39.6437 23.8672 39.5047C23.8929 39.3657 23.9561 39.238 24.049 39.1378C24.1419 39.0376 24.2603 38.9694 24.3891 38.9418C24.5179 38.9141 24.6515 38.9283 24.7729 38.9825C24.8942 39.0367 24.998 39.1286 25.071 39.2464C25.144 39.3642 25.1829 39.5027 25.1829 39.6444C25.1827 39.8343 25.1127 40.0164 24.9881 40.1507C24.8636 40.285 24.6948 40.3606 24.5187 40.3608V40.3608Z" fill="white"/>
<path d="M28.0381 25.3118C28.1066 25.337 28.1797 25.3441 28.2513 25.3327C28.3229 25.3212 28.3909 25.2916 28.4498 25.2461C28.5086 25.2007 28.5566 25.1407 28.5897 25.0713C28.6227 25.0019 28.64 24.9249 28.64 24.8469V21.8669C28.64 21.7888 28.6227 21.7119 28.5897 21.6425C28.5566 21.573 28.5086 21.5131 28.4498 21.4676C28.3909 21.4222 28.3229 21.3925 28.2513 21.3811C28.1797 21.3697 28.1066 21.3768 28.0381 21.4019L26.5659 21.9419V21.329C26.5659 21.1987 26.5179 21.0738 26.4325 20.9817C26.3472 20.8896 26.2313 20.8378 26.1106 20.8378H22.4501C22.1366 20.8382 21.836 20.9727 21.6143 21.2119C21.3926 21.451 21.2679 21.7752 21.2676 22.1134V24.5523C21.2679 24.8905 21.3926 25.2147 21.6143 25.4538C21.836 25.6929 22.1366 25.8275 22.4501 25.8279H26.1106C26.2313 25.8279 26.3472 25.7761 26.4325 25.684C26.5179 25.5919 26.5659 25.467 26.5659 25.3367V24.7719L28.0381 25.3118ZM26.5783 22.9748L27.7293 22.5526V24.161L26.5783 23.7389V22.9748ZM25.6552 24.8455H22.4501C22.3781 24.8454 22.309 24.8145 22.258 24.7595C22.207 24.7045 22.1784 24.63 22.1783 24.5523V22.1134C22.1784 22.0356 22.207 21.9611 22.258 21.9061C22.309 21.8511 22.3781 21.8202 22.4501 21.8201H25.6552V24.8455Z" fill="white"/>
<path d="M13.1183 8.33404C13.2224 8.33415 13.3235 8.29582 13.4047 8.22542C13.4552 8.18167 14.669 7.16147 16.9527 7.80861C17.0108 7.82572 17.0714 7.83026 17.131 7.82195C17.1907 7.81364 17.2483 7.79265 17.3004 7.7602C17.3525 7.72775 17.3981 7.68449 17.4347 7.6329C17.4712 7.58131 17.4979 7.52243 17.5132 7.45965C17.5284 7.39688 17.532 7.33146 17.5238 7.26717C17.5155 7.20289 17.4954 7.14101 17.4649 7.08512C17.4343 7.02923 17.3937 6.98044 17.3455 6.94156C17.2973 6.90268 17.2425 6.87448 17.1841 6.85861C14.4228 6.07551 12.89 7.40971 12.8261 7.46684C12.7542 7.53145 12.7026 7.61837 12.6783 7.71576C12.6539 7.81315 12.658 7.91626 12.69 8.01107C12.7219 8.10587 12.7802 8.18774 12.8568 8.24553C12.9334 8.30333 13.0247 8.33423 13.1183 8.33404Z" fill="white"/>
<path d="M13.1183 10.5688C13.2224 10.5689 13.3235 10.5305 13.4047 10.4601C13.4552 10.4163 14.669 9.39615 16.9527 10.0433C17.0108 10.0605 17.0714 10.065 17.131 10.0567C17.1907 10.0484 17.2483 10.0274 17.3004 9.99493C17.3525 9.96248 17.3981 9.91922 17.4347 9.86763C17.4712 9.81604 17.4979 9.75716 17.5132 9.69439C17.5284 9.63161 17.5321 9.56619 17.5238 9.5019C17.5155 9.43762 17.4955 9.37574 17.4649 9.31985C17.4343 9.26396 17.3937 9.21517 17.3455 9.17629C17.2973 9.13741 17.2425 9.10921 17.1841 9.09334C14.4228 8.31013 12.89 9.64439 12.8261 9.70157C12.7542 9.76618 12.7026 9.8531 12.6783 9.95049C12.6539 10.0479 12.658 10.151 12.69 10.2458C12.7219 10.3406 12.7802 10.4225 12.8568 10.4803C12.9334 10.5381 13.0247 10.569 13.1183 10.5688Z" fill="white"/>
<path d="M13.1183 12.9078C13.2224 12.9079 13.3235 12.8696 13.4047 12.7992C13.4552 12.7554 14.669 11.7352 16.9527 12.3824C17.0108 12.3995 17.0714 12.404 17.131 12.3957C17.1907 12.3874 17.2483 12.3664 17.3004 12.334C17.3525 12.3015 17.3981 12.2583 17.4347 12.2067C17.4712 12.1551 17.4979 12.0962 17.5132 12.0334C17.5284 11.9707 17.5321 11.9053 17.5238 11.841C17.5155 11.7767 17.4955 11.7148 17.4649 11.6589C17.4343 11.603 17.3937 11.5542 17.3455 11.5153C17.2973 11.4765 17.2425 11.4483 17.1841 11.4324C14.4228 10.6493 12.89 11.9835 12.8261 12.0406C12.7542 12.1052 12.7026 12.1922 12.6783 12.2895C12.6539 12.3869 12.658 12.4901 12.69 12.5849C12.7219 12.6797 12.7802 12.7615 12.8568 12.8193C12.9334 12.8771 13.0247 12.908 13.1183 12.9078Z" fill="white"/>
<path d="M4.97697 7.80864C7.25542 7.16272 8.4691 8.17721 8.52468 8.22512C8.61791 8.30794 8.73781 8.34741 8.85802 8.33487C8.97823 8.32233 9.08889 8.25879 9.16567 8.15824C9.24245 8.05769 9.27905 7.92836 9.26742 7.7987C9.25579 7.66904 9.19688 7.54967 9.10366 7.46686C9.03972 7.40973 7.50675 6.07548 4.74558 6.85863C4.68723 6.87451 4.63238 6.9027 4.5842 6.94158C4.53601 6.98046 4.49545 7.02925 4.46486 7.08514C4.43426 7.14103 4.41424 7.20291 4.40595 7.2672C4.39766 7.33148 4.40127 7.3969 4.41656 7.45968C4.43185 7.52245 4.45853 7.58133 4.49505 7.63292C4.53156 7.68451 4.5772 7.72778 4.62931 7.76023C4.68143 7.79267 4.73899 7.81366 4.79867 7.82197C4.85835 7.83028 4.91896 7.82575 4.97701 7.80864H4.97697Z" fill="white"/>
<path d="M4.97701 10.0433C7.25417 9.39769 8.46776 10.4107 8.52458 10.4597C8.61779 10.5425 8.73769 10.582 8.85789 10.5695C8.9781 10.557 9.08878 10.4934 9.16557 10.3929C9.24236 10.2924 9.27898 10.163 9.26737 10.0334C9.25576 9.90372 9.19687 9.78435 9.10366 9.70152C9.03972 9.64439 7.50675 8.31019 4.74558 9.09329C4.68723 9.10916 4.63238 9.13736 4.5842 9.17624C4.53601 9.21512 4.49545 9.26391 4.46486 9.3198C4.43426 9.37569 4.41424 9.43757 4.40595 9.50185C4.39766 9.56614 4.40127 9.63156 4.41656 9.69434C4.43185 9.75711 4.45853 9.81599 4.49505 9.86758C4.53156 9.91917 4.5772 9.96243 4.62931 9.99488C4.68143 10.0273 4.73899 10.0483 4.79867 10.0566C4.85835 10.0649 4.91896 10.0604 4.97701 10.0433Z" fill="white"/>
<path d="M4.97701 12.3824C7.25417 11.7368 8.46776 12.7498 8.52458 12.7988C8.61779 12.8816 8.73769 12.9211 8.85789 12.9086C8.9781 12.8961 9.08878 12.8325 9.16557 12.732C9.24236 12.6315 9.27898 12.5021 9.26737 12.3725C9.25576 12.2428 9.19687 12.1234 9.10366 12.0406C9.03972 11.9834 7.50675 10.6493 4.74558 11.4324C4.68723 11.4483 4.63238 11.4765 4.5842 11.5153C4.53601 11.5542 4.49545 11.603 4.46486 11.6589C4.43426 11.7148 4.41424 11.7767 4.40595 11.841C4.39766 11.9052 4.40127 11.9707 4.41656 12.0334C4.43185 12.0962 4.45853 12.1551 4.49505 12.2067C4.53156 12.2583 4.5772 12.3015 4.62931 12.334C4.68143 12.3664 4.73899 12.3874 4.79867 12.3957C4.85835 12.404 4.91896 12.3995 4.97701 12.3824Z" fill="white"/>
<path d="M49.2402 7.77099H48.55C48.47 6.93335 48.1051 6.1574 47.5258 5.59289C46.9465 5.02838 46.1939 4.71535 45.4132 4.7142H21.5232V2.56295C21.5222 2.22051 21.4061 1.89009 21.1964 1.63298C20.9866 1.37588 20.6976 1.20953 20.3828 1.1648C20.2477 1.14611 19.9115 1.13394 19.5993 1.12864C19.5838 0.906346 19.4996 0.696079 19.3603 0.53145C19.2209 0.366821 19.0344 0.257335 18.8306 0.220492C17.203 -0.0763062 13.2108 -0.487783 11.2966 2.09855C11.261 2.14781 11.2154 2.18766 11.1634 2.21507C11.1114 2.24248 11.0542 2.25672 10.9964 2.25672C10.9385 2.25672 10.8813 2.24248 10.8293 2.21507C10.7773 2.18766 10.7317 2.14781 10.6961 2.09855C8.78236 -0.487957 4.79011 -0.0766336 3.16247 0.220426C2.95852 0.257257 2.77191 0.366819 2.63252 0.531578C2.49313 0.696337 2.40901 0.90677 2.39362 1.1292C2.07507 1.13481 1.73993 1.14678 1.61014 1.16474C1.29524 1.20915 1.00602 1.3754 0.796256 1.63258C0.586488 1.88975 0.470453 2.22035 0.469727 2.56289V15.5828C0.469727 15.5896 0.470587 15.5962 0.470738 15.603V35.9866C0.470738 35.988 0.470364 35.9893 0.470364 35.9907C0.470364 35.992 0.470718 35.9933 0.470738 35.9947V40.4307C0.471542 41.3326 0.803965 42.1972 1.39508 42.835C1.98619 43.4728 2.78772 43.8316 3.62381 43.8328H20.7367L19.7121 51.907H17.2844C17.1502 51.907 17.0215 51.9645 16.9266 52.0668C16.8318 52.1692 16.7785 52.308 16.7785 52.4527C16.7785 52.5974 16.8318 52.7363 16.9266 52.8386C17.0215 52.9409 17.1502 52.9984 17.2844 52.9984H31.9445C32.0786 52.9984 32.2073 52.9409 32.3022 52.8386C32.3971 52.7363 32.4504 52.5974 32.4504 52.4527C32.4504 52.308 32.3971 52.1692 32.3022 52.0668C32.2073 51.9645 32.0786 51.907 31.9445 51.907H29.5167L28.4922 43.8328H45.4132C46.2492 43.8316 47.0508 43.4728 47.6419 42.835C48.233 42.1972 48.5654 41.3326 48.5662 40.4307V35.996C48.5662 35.9941 48.5667 35.9925 48.5667 35.9907C48.5667 35.9889 48.5662 35.9872 48.5662 35.9854V15.4664H49.2402C49.6212 15.4659 49.9865 15.3025 50.2559 15.0118C50.5254 14.7212 50.6769 14.3272 50.6774 13.9162V9.32113C50.6769 8.91014 50.5254 8.51613 50.2559 8.22552C49.9865 7.93491 49.6212 7.77145 49.2402 7.77099ZM20.7335 51.907L21.758 43.8331H27.4709L28.4954 51.907H20.7335ZM45.4131 5.80559C45.9251 5.8067 46.4199 6.0055 46.8078 6.36602C47.1956 6.72654 47.451 7.22494 47.5277 7.77099H43.1012C42.7201 7.77145 42.3548 7.93492 42.0854 8.22554C41.8159 8.51616 41.6644 8.91019 41.664 9.32119V10.0797H21.5233V5.80563L45.4131 5.80559ZM12.0083 2.71133C13.6658 0.471809 17.5329 0.979988 18.6786 1.18898C18.6824 1.18985 18.6858 1.19211 18.6882 1.19539C18.6906 1.19867 18.6919 1.20275 18.6918 1.20693V13.9522C18.692 13.9546 18.6916 13.957 18.6907 13.9593C18.6898 13.9615 18.6884 13.9635 18.6866 13.965C18.6847 13.9671 18.6824 13.9686 18.6799 13.9695C18.6774 13.9704 18.6747 13.9706 18.6721 13.9701C14.6982 13.5882 12.4973 14.805 11.4518 15.6904V3.14826C11.6705 3.05937 11.8628 2.90839 12.0084 2.7113L12.0083 2.71133ZM3.30111 1.20693C3.30102 1.20274 3.3023 1.19865 3.30472 1.19537C3.30714 1.19209 3.31055 1.18983 3.31435 1.18898C4.46015 0.979857 8.3273 0.471897 9.98448 2.7113C10.1301 2.90841 10.3225 3.05941 10.5411 3.14831V15.6905C9.63135 14.9198 7.8468 13.8979 4.77894 13.8979C4.322 13.8979 3.83602 13.9206 3.32087 13.9702C3.31825 13.9706 3.31558 13.9703 3.31306 13.9694C3.31054 13.9685 3.30825 13.967 3.30635 13.965C3.30459 13.9635 3.3032 13.9615 3.30229 13.9593C3.30138 13.957 3.30097 13.9546 3.30111 13.9522V1.20693ZM1.38043 2.56289C1.38072 2.45904 1.41598 2.35885 1.47964 2.28095C1.5433 2.20305 1.63103 2.15275 1.7265 2.1394C1.82658 2.1254 2.10982 2.11612 2.39041 2.11181V13.9522C2.39048 14.0912 2.41739 14.2286 2.46942 14.3558C2.52145 14.483 2.59746 14.597 2.69262 14.6908C2.78777 14.7845 2.89999 14.8558 3.0221 14.9002C3.14422 14.9446 3.27357 14.9611 3.40191 14.9486C7.32391 14.5716 9.3143 15.8314 10.1512 16.6164C10.3862 16.835 10.6861 16.9553 10.9964 16.9553C11.3067 16.9553 11.6067 16.835 11.8417 16.6164C12.6788 15.8314 14.6688 14.5713 18.591 14.9486C18.7194 14.9611 18.8487 14.9446 18.9709 14.9002C19.093 14.8558 19.2052 14.7845 19.3003 14.6908C19.3955 14.597 19.4715 14.483 19.5235 14.3558C19.5756 14.2286 19.6025 14.0912 19.6025 13.9522V2.10915C19.6872 2.10895 19.7525 2.10885 19.7686 2.10885C19.935 2.10738 20.1013 2.11759 20.2665 2.13941C20.362 2.15276 20.4497 2.20306 20.5133 2.28096C20.577 2.35886 20.6123 2.45905 20.6126 2.5629V15.5828C20.6124 15.641 20.6013 15.6986 20.5798 15.7519C20.5583 15.8053 20.527 15.8534 20.4877 15.8933C20.4483 15.9331 20.4019 15.9639 20.3512 15.9837C20.3004 16.0035 20.2465 16.0119 20.1926 16.0085C15.7595 15.6974 13.2419 16.9035 11.9082 17.9709C11.6439 18.1804 11.3245 18.2934 10.9965 18.2934C10.6685 18.2934 10.3491 18.1804 10.0848 17.9709C8.89679 17.0202 6.76877 15.9583 3.18362 15.9583C2.74445 15.9583 2.28337 15.975 1.80035 16.0085C1.74657 16.0126 1.69259 16.0045 1.64188 15.9848C1.59116 15.965 1.54484 15.9341 1.50589 15.8939C1.46617 15.8542 1.43451 15.8061 1.41291 15.7525C1.39132 15.699 1.38025 15.6412 1.38041 15.5828L1.38043 2.56289ZM17.602 23.785C17.7117 25.0875 18.2685 26.2987 19.1633 27.1813C20.0581 28.0638 21.2262 28.554 22.4387 28.5557H24.1299V35.4449H15.7617V34.3008C15.7692 33.703 15.612 33.1164 15.3101 32.6151C15.0082 32.1138 14.5751 31.7204 14.0658 31.4848C13.9797 31.4459 13.8981 31.3961 13.8229 31.3364C13.7457 31.2758 13.6814 31.1981 13.6342 31.1085C13.5871 31.0189 13.5583 30.9194 13.5497 30.8169C13.5399 30.699 13.5534 30.5803 13.5893 30.4685C13.6253 30.3568 13.6828 30.2545 13.7582 30.1685C14.0789 29.7941 14.2916 29.3269 14.3703 28.8242C14.4489 28.3215 14.3901 27.8049 14.2011 27.3377C14.012 26.8704 13.7009 26.4726 13.3057 26.193C12.9105 25.9133 12.4483 25.7638 11.9757 25.7628C11.503 25.7618 11.0403 25.9093 10.6441 26.1873C10.2478 26.4653 9.93526 26.8617 9.7445 27.3282C9.55373 27.7946 9.49305 28.3109 9.56987 28.814C9.64668 29.317 9.85767 29.7851 10.177 30.1609C10.2597 30.2562 10.3212 30.3703 10.3572 30.4949C10.3931 30.6195 10.4024 30.7512 10.3845 30.8802C10.3693 30.9923 10.3304 31.0992 10.2707 31.1925C10.211 31.2858 10.1322 31.3631 10.0404 31.4182C9.99859 31.4436 9.95534 31.4662 9.91092 31.4859C9.40317 31.7178 8.97103 32.1077 8.66967 32.6058C8.36832 33.1039 8.21143 33.6875 8.21903 34.2822V35.4449H1.48259V23.785H17.602ZM22.4387 27.5734C21.3931 27.5716 20.3909 27.1223 19.6522 26.3242C18.9134 25.5261 18.4985 24.4444 18.4985 23.3167C18.4985 22.1889 18.9134 21.1072 19.6522 20.3091C20.3909 19.511 21.3931 19.0617 22.4387 19.0599H26.6613C27.1801 19.059 27.694 19.1685 28.1735 19.382C28.6531 19.5955 29.0889 19.9089 29.456 20.3043C29.8231 20.6996 30.1144 21.1692 30.3131 21.6861C30.5118 22.203 30.6141 22.7571 30.6141 23.3167C30.6141 23.8762 30.5118 24.4303 30.3131 24.9472C30.1144 25.4641 29.8231 25.9337 29.456 26.329C29.0889 26.7244 28.6531 27.0378 28.1735 27.2513C27.694 27.4648 27.1801 27.5743 26.6613 27.5734H22.4387ZM10.9228 29.4231C10.7364 29.2035 10.6133 28.9302 10.5685 28.6364C10.5237 28.3426 10.5592 28.0411 10.6707 27.7687C10.7821 27.4963 10.9647 27.2648 11.1961 27.1025C11.4275 26.9402 11.6977 26.8541 11.9737 26.8546C12.2497 26.8552 12.5197 26.9425 12.7505 27.1058C12.9813 27.269 13.163 27.5013 13.2735 27.7741C13.384 28.047 13.4184 28.3486 13.3726 28.6422C13.3267 28.9358 13.2026 29.2087 13.0154 29.4275C12.8434 29.6265 12.7124 29.8625 12.6309 30.12C12.5495 30.3775 12.5195 30.6507 12.5429 30.9216C12.5641 31.1779 12.636 31.4263 12.7539 31.6499C12.8717 31.8736 13.0327 32.0674 13.2259 32.2183C13.3657 32.328 13.5168 32.4199 13.6762 32.4922C13.9992 32.6478 14.273 32.902 14.4637 33.2233C14.6545 33.5447 14.754 33.9192 14.7498 34.3008V35.4449H9.23091V34.2822C9.22673 33.9046 9.32549 33.5339 9.51492 33.2163C9.70435 32.8986 9.9761 32.648 10.2964 32.4955C10.3798 32.4585 10.4609 32.4158 10.5393 32.3678C10.7635 32.2317 10.9561 32.0423 11.1024 31.8141C11.2488 31.5859 11.3452 31.3247 11.3842 31.0504C11.4264 30.7592 11.4067 30.4615 11.3268 30.1796C11.2469 29.8977 11.1088 29.6391 10.9228 29.4231ZM45.4131 42.7413H3.62375C3.05589 42.7407 2.51148 42.497 2.11004 42.0638C1.70859 41.6306 1.48292 41.0432 1.48258 40.4307V36.5364H40.5876C40.7218 36.5363 40.8505 36.4788 40.9453 36.3765C41.0402 36.2742 41.0935 36.1354 41.0936 35.9907V34.3C41.101 33.7023 40.9439 33.1156 40.6419 32.6143C40.34 32.113 39.907 31.7197 39.3976 31.4841C39.3116 31.4455 39.23 31.3961 39.1548 31.3367C39.0775 31.2759 39.0132 31.198 38.9661 31.1082C38.919 31.0184 38.8902 30.9188 38.8816 30.8161C38.8718 30.6985 38.8853 30.5801 38.921 30.4685C38.9568 30.357 39.014 30.2548 39.089 30.1689C39.41 29.7946 39.623 29.3275 39.7019 28.8248C39.7808 28.322 39.7222 27.8054 39.5333 27.338C39.3444 26.8706 39.0334 26.4726 38.6382 26.1928C38.2431 25.9129 37.7809 25.7633 37.3082 25.7621C36.8355 25.761 36.3727 25.9084 35.9764 26.1863C35.58 26.4642 35.2674 26.8606 35.0765 27.3271C34.8857 27.7936 34.8249 28.31 34.9017 28.8131C34.9785 29.3162 35.1895 29.7843 35.5089 30.1601C35.5916 30.2556 35.6531 30.37 35.689 30.4947C35.725 30.6195 35.7343 30.7513 35.7164 30.8805C35.701 30.9926 35.662 31.0994 35.6024 31.1927C35.5427 31.286 35.464 31.3633 35.3723 31.4186C35.3305 31.444 35.2872 31.4666 35.2428 31.4863C34.735 31.7178 34.3028 32.1075 34.0014 32.6054C33.7 33.1033 33.5432 33.6869 33.5509 34.2815V35.4449H25.0406V28.5557H26.6613C27.8738 28.554 29.042 28.0638 29.9368 27.1813C30.8315 26.2987 31.3884 25.0875 31.4981 23.785H47.5543V35.445H42.6223C42.4881 35.445 42.3594 35.5025 42.2646 35.6048C42.1697 35.7072 42.1164 35.846 42.1164 35.9907C42.1164 36.1355 42.1697 36.2743 42.2646 36.3766C42.3594 36.479 42.4881 36.5365 42.6223 36.5365H47.5543V40.4308C47.5539 41.0433 47.3283 41.6306 46.9268 42.0638C46.5254 42.497 45.981 42.7407 45.4131 42.7413ZM36.2537 29.4223C36.0672 29.2028 35.9441 28.9294 35.8993 28.6356C35.8546 28.3418 35.8901 28.0403 36.0015 27.7679C36.113 27.4956 36.2955 27.2641 36.5269 27.1017C36.7583 26.9394 37.0285 26.8533 37.3046 26.8539C37.5806 26.8544 37.8505 26.9417 38.0813 27.105C38.3121 27.2683 38.4939 27.5005 38.6043 27.7734C38.7148 28.0462 38.7492 28.3479 38.7034 28.6415C38.6576 28.935 38.5335 29.2079 38.3463 29.4267C38.1747 29.626 38.0441 29.8621 37.9628 30.1196C37.8816 30.377 37.8516 30.6501 37.8747 30.9209C37.8958 31.1772 37.9677 31.4256 38.0856 31.6493C38.2034 31.873 38.3644 32.0668 38.5578 32.2175C38.6973 32.3276 38.8485 32.4196 39.008 32.4915C39.3311 32.6471 39.6048 32.9012 39.7956 33.2226C39.9864 33.5439 40.0858 33.9184 40.0817 34.3V35.4449H34.5628V34.2815C34.5587 33.9038 34.6575 33.5332 34.847 33.2156C35.0364 32.898 35.308 32.6474 35.6283 32.4948C35.7116 32.4581 35.7928 32.4158 35.8712 32.3681C36.0951 32.2317 36.2873 32.0423 36.4335 31.8141C36.5797 31.5859 36.676 31.3249 36.7151 31.0508C36.7577 30.7594 36.7383 30.4613 36.6584 30.1792C36.5784 29.8971 36.44 29.6382 36.2537 29.4223ZM36.2537 16.5771C36.0672 16.3575 35.9441 16.0842 35.8993 15.7904C35.8545 15.4966 35.8901 15.1951 36.0015 14.9227C36.113 14.6503 36.2955 14.4188 36.5269 14.2565C36.7583 14.0942 37.0285 14.0081 37.3046 14.0086C37.5806 14.0092 37.8505 14.0965 38.0813 14.2598C38.3121 14.423 38.4939 14.6553 38.6044 14.9281C38.7148 15.201 38.7493 15.5026 38.7034 15.7962C38.6576 16.0898 38.5335 16.3627 38.3463 16.5815C38.1747 16.781 38.044 17.0173 37.9627 17.2749C37.8815 17.5325 37.8515 17.8058 37.8747 18.0768C37.896 18.3329 37.9679 18.5811 38.0858 18.8046C38.2036 19.0281 38.3646 19.2217 38.5578 19.3723C38.6971 19.4828 38.8483 19.5748 39.008 19.6463C39.331 19.802 39.6047 20.0561 39.7954 20.3775C39.9862 20.6988 40.0857 21.0733 40.0817 21.4548V22.8027H34.5628V21.4362C34.5587 21.0588 34.6576 20.6883 34.847 20.3709C35.0364 20.0535 35.3081 19.803 35.6283 19.6506C35.7115 19.6132 35.7926 19.5705 35.8712 19.5229C36.0951 19.3865 36.2873 19.1971 36.4335 18.9689C36.5797 18.7407 36.676 18.4797 36.7151 18.2056C36.7577 17.9142 36.7383 17.6161 36.6584 17.334C36.5784 17.0519 36.44 16.793 36.2537 16.5771ZM47.5543 22.8027H41.0936V21.4548C41.101 20.8571 40.9439 20.2704 40.6419 19.7691C40.34 19.2678 39.907 18.8745 39.3976 18.6389C39.3116 18.6003 39.23 18.5508 39.1548 18.4915C39.0775 18.4307 39.0132 18.3528 38.9661 18.263C38.919 18.1732 38.8902 18.0736 38.8816 17.9709C38.8718 17.8533 38.8853 17.7349 38.921 17.6233C38.9568 17.5118 39.014 17.4096 39.089 17.3237C39.41 16.9494 39.623 16.4823 39.7019 15.9796C39.7808 15.4768 39.7222 14.9602 39.5333 14.4928C39.3444 14.0254 39.0334 13.6274 38.6382 13.3476C38.2431 13.0677 37.7809 12.9181 37.3082 12.9169C36.8355 12.9158 36.3727 13.0632 35.9764 13.3411C35.58 13.619 35.2674 14.0154 35.0765 14.4819C34.8857 14.9484 34.8249 15.4647 34.9017 15.9679C34.9785 16.471 35.1895 16.9391 35.5089 17.3149C35.5915 17.4104 35.6531 17.5248 35.689 17.6495C35.725 17.7742 35.7343 17.9061 35.7164 18.0353C35.7012 18.1475 35.6622 18.2543 35.6026 18.3477C35.5429 18.441 35.4641 18.5182 35.3723 18.5734C35.3305 18.5988 35.2872 18.6214 35.2428 18.641C34.735 18.8726 34.3028 19.2623 34.0014 19.7602C33.7 20.2581 33.5432 20.8417 33.5509 21.4362V22.8027H31.4948C31.3752 21.5092 30.8144 20.3096 29.9214 19.4366C29.0283 18.5636 27.8666 18.0793 26.6613 18.0776H22.4387C21.2334 18.0793 20.0717 18.5635 19.1786 19.4365C18.2856 20.3096 17.7249 21.5091 17.6052 22.8027H1.48259V16.9538C1.60618 16.985 1.73332 16.9967 1.86002 16.9886C6.01488 16.6961 8.33111 17.7908 9.54134 18.76C9.96122 19.0994 10.4718 19.2828 10.9965 19.2828C11.5211 19.2828 12.0317 19.0994 12.4516 18.76C13.6618 17.7908 15.976 16.6961 20.1329 16.9886C20.3111 17.0009 20.4897 16.9736 20.6578 16.9086C20.8259 16.8435 20.9798 16.7419 21.1101 16.6102C21.2404 16.4785 21.3443 16.3194 21.4153 16.1427C21.4864 15.9659 21.5231 15.7754 21.5232 15.5828V11.1711H40.8803L39.9627 12.4025C39.903 12.4827 39.8654 12.5795 39.8545 12.6817C39.8435 12.7839 39.8596 12.8874 39.9008 12.9802C39.9421 13.073 40.0068 13.1513 40.0875 13.2061C40.1683 13.261 40.2617 13.2901 40.3571 13.2901H41.8613V13.9162C41.8618 14.3272 42.0133 14.7212 42.2827 15.0118C42.5522 15.3025 42.9175 15.4659 43.2985 15.4664H47.5543L47.5543 22.8027ZM49.6655 13.9162C49.6653 14.0378 49.6205 14.1544 49.5407 14.2404C49.461 14.3264 49.3529 14.3748 49.2402 14.375H43.2985C43.1857 14.3748 43.0776 14.3264 42.9979 14.2404C42.9182 14.1544 42.8733 14.0378 42.8732 13.9162V12.7443C42.8732 12.5996 42.8199 12.4608 42.725 12.3584C42.6301 12.2561 42.5014 12.1986 42.3672 12.1986H41.413L42.5643 10.6536C42.6365 10.5567 42.6759 10.4361 42.6759 10.3118V9.32113C42.676 9.19951 42.7208 9.08291 42.8006 8.99691C42.8803 8.91091 42.9884 8.86253 43.1012 8.86238H49.2402C49.3529 8.86253 49.461 8.91091 49.5407 8.99691C49.6205 9.08291 49.6653 9.19951 49.6655 9.32113V13.9162Z" fill="white"/>
</svg>
